<?xml version="1.0" standalone="no"?>
<!DOCTYPE svg PUBLIC "-//W3C//DTD SVG 20010904//EN"
 "http://www.w3.org/TR/2001/REC-SVG-20010904/DTD/svg10.dtd">
<svg version="1.0" xmlns="http://www.w3.org/2000/svg"
 width="1024.000000pt" height="610.000000pt" viewBox="0 0 1024.000000 610.000000"
 preserveAspectRatio="xMidYMid meet">

<g transform="translate(0.000000,610.000000) scale(0.100000,-0.100000)"
fill="#000000" stroke="none">
<path d="M10050 6096 c0 -2 7 -6 15 -10 8 -3 15 -1 15 4 0 6 -7 10 -15 10 -8
0 -15 -2 -15 -4z"/>
<path d="M10160 6073 c0 -16 7 -50 16 -78 9 -27 15 -72 15 -100 -2 -63 17
-154 35 -173 12 -11 14 15 14 182 l0 196 -40 0 c-37 0 -40 -2 -40 -27z"/>
<path d="M1909 5982 c-23 -3 -28 -9 -33 -47 -4 -24 -6 -92 -5 -151 1 -99 3
-110 29 -148 16 -22 38 -47 50 -54 12 -8 85 -20 162 -27 77 -7 145 -18 152
-25 17 -17 24 -920 23 -3022 l-2 -1878 -171 0 c-163 0 -172 -1 -196 -23 -25
-21 -48 -103 -48 -165 0 -14 -11 -40 -25 -58 -14 -18 -25 -37 -25 -43 0 -5 -6
-14 -12 -18 -7 -4 -20 -28 -29 -53 -9 -25 -23 -61 -30 -80 -7 -19 -18 -48 -25
-65 -7 -16 -15 -51 -19 -77 l-7 -48 392 0 c288 0 397 3 413 12 26 14 195 11
214 -3 7 -6 150 -9 360 -7 360 3 380 5 406 45 4 7 15 13 22 13 8 0 15 7 15 15
0 7 6 18 13 22 49 32 118 193 133 312 4 31 10 66 15 79 8 20 5 22 -24 23 l-32
1 35 12 c23 8 36 20 38 34 3 19 -2 22 -35 23 -21 1 -30 3 -21 6 15 4 16 42 13
501 l-3 497 -51 3 c-29 2 -49 7 -46 12 3 4 14 6 25 3 11 -3 27 1 36 8 12 10
17 10 23 0 15 -23 16 19 11 349 -3 179 -7 298 -9 265 l-4 -60 -7 70 c-3 39 -4
115 -2 169 5 88 3 101 -13 113 -22 15 -49 18 -40 3 3 -5 1 -18 -4 -27 -9 -16
-10 -16 -11 -2 0 9 -7 20 -16 23 -9 3 -221 7 -472 7 -276 1 -433 5 -397 10 33
4 251 8 485 9 234 1 437 2 453 2 30 1 37 14 10 21 -14 4 -12 5 5 6 l22 1 0
248 c0 296 7 375 34 380 34 7 83 -29 97 -71 13 -40 64 -101 189 -227 41 -41
104 -105 139 -142 35 -38 67 -68 71 -68 14 0 109 -85 112 -101 2 -7 17 -26 34
-43 17 -17 39 -43 49 -59 19 -30 38 -37 28 -9 -5 14 -2 14 18 -4 13 -12 33
-26 44 -32 19 -11 19 -11 1 -12 -17 0 -17 -1 -2 -23 8 -12 30 -47 48 -77 18
-30 37 -60 43 -66 5 -6 19 -27 30 -47 11 -20 23 -37 28 -37 4 0 5 -4 2 -10 -3
-5 -1 -10 6 -10 7 0 9 -3 6 -6 -4 -4 2 -19 13 -34 11 -16 20 -33 20 -40 0 -7
6 -10 14 -7 26 10 45 -37 24 -58 -7 -7 -72 82 -93 127 -43 94 -152 264 -174
273 -13 5 -13 3 0 -12 8 -10 26 -43 39 -73 13 -30 32 -67 42 -82 10 -14 18
-31 18 -38 0 -6 6 -18 13 -25 32 -37 38 -46 32 -55 -3 -5 0 -12 7 -17 7 -4 21
-26 31 -48 18 -37 87 -145 111 -172 6 -6 24 -27 39 -47 41 -51 67 -56 165 -33
l84 20 65 101 c36 55 82 119 103 141 41 44 96 114 180 230 30 41 88 116 128
166 40 50 78 101 84 113 13 25 98 128 114 138 7 5 28 32 47 60 44 67 91 114
184 189 45 36 160 50 195 24 13 -9 16 -15 8 -13 -35 11 -37 -24 -39 -704 -1
-367 1 -679 5 -693 4 -16 12 -24 20 -21 9 3 6 -6 -6 -27 -17 -27 -20 -51 -20
-151 l0 -118 203 5 c135 4 174 3 117 -3 -47 -4 -138 -8 -202 -9 l-118 -1 0
-357 c0 -197 4 -363 8 -370 4 -6 21 -13 37 -16 l30 -4 -33 -2 c-27 -1 -31 -4
-23 -19 12 -21 40 -135 46 -181 5 -50 44 -147 66 -167 10 -9 19 -23 19 -30 0
-7 9 -18 20 -24 11 -6 20 -17 20 -26 0 -8 10 -19 23 -25 12 -5 33 -16 47 -24
21 -12 101 -15 470 -15 249 0 474 5 510 10 145 23 169 24 189 6 16 -15 56 -16
402 -14 l384 3 0 30 c0 20 -5 30 -15 30 -10 0 -25 31 -46 95 -17 51 -36 96
-43 98 -6 2 -11 9 -11 15 0 7 -27 65 -60 130 -32 65 -62 138 -66 163 -3 24
-11 47 -17 51 -6 3 -106 5 -224 4 l-213 -2 -1 118 c0 65 -3 199 -5 298 -7 298
-16 1301 -14 1590 4 511 4 671 1 1115 -2 245 -3 596 -2 781 1 185 1 340 0 345
-2 5 0 38 4 74 4 36 9 144 12 240 4 96 10 193 15 215 15 65 48 130 73 144 24
13 92 18 248 20 101 1 141 21 174 86 18 35 21 59 20 177 0 89 -4 141 -12 149
-14 14 12 14 -830 11 -474 -1 -723 -5 -723 -12 0 -5 19 -11 43 -11 l42 -2 -39
-6 c-44 -7 -57 -25 -29 -39 10 -4 74 -9 143 -11 69 -1 202 -7 295 -13 94 -5
224 -14 290 -18 l120 -7 -115 -1 c-63 -1 -251 3 -418 8 -365 12 -379 16 -347
92 6 15 3 16 -25 8 -17 -5 -38 -6 -46 -3 -10 3 -14 -2 -15 -18 0 -13 -2 -37
-4 -54 -2 -16 -6 -112 -9 -212 -6 -195 -13 -230 -61 -280 -14 -16 -38 -48 -53
-73 -14 -25 -34 -56 -44 -69 -24 -31 -24 -55 0 -43 30 15 67 -1 70 -30 3 -26
2 -27 -35 -21 -21 3 -42 9 -47 14 -5 5 -17 0 -26 -11 -19 -22 -18 -84 2 -178
7 -32 8 -56 2 -61 -5 -5 -30 -3 -56 5 l-48 15 40 50 c22 28 40 54 40 58 0 9
-22 31 -31 31 -3 0 -29 -33 -57 -72 -28 -40 -60 -84 -71 -98 -29 -36 -26 -40
23 -40 75 0 146 -21 146 -42 0 -16 -6 -18 -42 -14 -142 17 -198 3 -209 -52 -8
-39 -51 -85 -71 -77 -11 4 -23 -10 -40 -47 l-26 -53 32 -5 c25 -4 31 -10 31
-30 0 -20 -5 -25 -25 -24 -14 1 -32 4 -42 8 -13 6 -33 -18 -97 -114 -45 -67
-81 -125 -81 -129 0 -5 -6 -14 -14 -20 -8 -7 -26 -37 -41 -67 l-27 -55 22 -24
c13 -14 26 -23 29 -20 4 2 33 -3 66 -11 33 -8 112 -19 175 -25 63 -5 156 -14
205 -19 50 -4 96 -9 104 -9 8 -1 -4 -17 -27 -37 -24 -20 -42 -45 -43 -57 0
-21 -1 -21 -9 -2 -8 18 -9 18 -9 -6 -1 -30 13 -50 58 -84 29 -21 46 -25 100
-25 39 0 78 6 95 15 36 19 47 19 22 0 -27 -21 -15 -28 13 -8 15 10 19 18 12
22 -8 5 -8 16 0 39 8 24 7 43 -4 81 -8 27 -12 53 -8 59 12 18 50 32 89 32 49
0 76 28 123 128 17 37 51 108 75 159 24 50 44 98 44 105 0 7 14 29 30 48 16
19 37 49 45 65 l15 30 -6 -42 c-7 -49 6 -73 41 -73 12 0 28 7 35 15 7 9 19 14
27 11 7 -3 13 -2 13 3 0 5 13 11 28 14 21 4 33 16 47 46 39 87 131 149 235
157 l55 5 -66 -19 c-127 -34 -183 -95 -180 -194 1 -52 23 -95 69 -134 l24 -22
-26 5 c-34 7 -94 77 -102 120 -3 18 -10 33 -15 33 -18 0 -95 -141 -211 -385
-35 -73 -57 -105 -108 -156 -26 -25 -52 -61 -59 -80 -7 -19 -19 -46 -27 -61
-11 -20 -11 -28 -3 -34 12 -7 25 6 71 67 27 35 32 16 8 -35 -24 -54 -12 -53
-270 -35 -141 10 -173 10 -223 -3 l-58 -15 -86 49 c-107 62 -125 68 -146 57
-12 -7 -16 -6 -13 3 18 56 16 68 -9 78 -37 14 -67 -2 -130 -66 -53 -55 -75
-62 -37 -13 25 32 46 88 38 97 -4 3 -10 2 -14 -4 -22 -33 -105 -39 -124 -10
-19 29 10 37 37 10 10 -11 24 -14 41 -10 35 9 40 32 13 56 -19 16 -36 19 -88
17 l-64 -2 -36 -51 c-20 -28 -71 -98 -113 -155 -42 -57 -85 -115 -95 -129 -10
-13 -21 -35 -25 -47 -5 -18 -2 -23 12 -23 10 0 22 -4 25 -10 6 -10 -11 -14
-51 -11 -24 2 -35 -10 -86 -93 -38 -61 -38 -89 0 -65 12 7 24 11 27 8 9 -10
-6 -39 -20 -39 -8 0 -16 -8 -18 -17 -4 -13 -5 -12 -6 5 0 12 -8 25 -16 28 -17
7 -66 -45 -60 -64 3 -7 0 -10 -5 -7 -6 3 -10 1 -10 -5 0 -6 11 -16 25 -22 14
-6 25 -14 25 -18 0 -8 -36 -20 -61 -20 -10 0 -33 -16 -53 -36 -20 -20 -41 -34
-48 -32 -7 3 -21 21 -31 42 -10 21 -26 40 -35 43 -17 4 -24 14 -56 81 -8 17
-20 32 -26 32 -6 0 -8 5 -5 10 3 6 1 10 -4 10 -6 0 -11 6 -11 13 0 7 -9 18
-21 25 -11 7 -18 18 -16 25 10 26 -137 272 -198 332 -5 6 -28 11 -50 12 -29 2
-36 0 -25 -7 9 -6 10 -10 3 -10 -6 0 -14 4 -17 9 -3 5 -16 9 -28 9 -13 0 -27
1 -33 2 -26 6 -46 -1 -39 -12 6 -10 3 -9 -8 0 -12 10 -44 12 -112 10 l-96 -3
-6 30 c-3 17 -12 49 -20 73 -8 23 -13 66 -13 95 1 29 4 39 6 22 4 -35 19 -93
40 -152 l15 -43 134 0 c146 0 143 -1 128 58 -8 27 -28 28 -79 2 -49 -25 -159
-38 -170 -20 -6 9 0 10 22 6 17 -4 52 -2 78 5 l48 12 -49 16 c-61 20 -97 40
-72 41 9 0 18 -5 20 -12 3 -8 12 -4 26 10 31 31 19 54 -27 50 -31 -3 -36 -7
-39 -30 -3 -25 -4 -26 -23 -10 -10 9 -19 29 -19 44 0 28 1 28 63 28 69 0 104
-17 109 -53 3 -19 10 -22 56 -25 28 -2 52 1 52 5 0 4 -13 26 -28 49 -15 22
-49 74 -77 115 -27 41 -49 77 -47 82 1 4 -2 7 -8 7 -5 0 -7 7 -4 15 4 8 1 15
-5 15 -6 0 -17 15 -24 33 -8 17 -22 38 -31 46 -9 8 -23 29 -30 46 -8 17 -28
47 -45 67 -17 20 -31 40 -31 44 -1 13 -34 50 -50 57 -10 3 -10 6 -2 6 19 1 14
19 -8 26 -11 3 -20 12 -20 20 0 13 -151 245 -177 273 -7 7 -13 19 -13 26 0 7
-11 27 -25 46 -14 19 -25 31 -25 28 0 -3 -17 10 -37 28 -28 26 -34 37 -25 46
8 8 7 19 -6 42 -24 45 -43 66 -53 60 -5 -3 -9 2 -9 11 0 20 -60 112 -132 202
-48 59 -58 78 -58 110 0 21 -7 65 -15 96 -10 38 -15 106 -15 197 0 136 0 139
-21 135 -12 -2 -29 0 -39 5 -16 8 -1375 20 -1441 12z m1436 -44 c-1 -13 -9
-24 -18 -26 -21 -4 -22 12 -1 32 20 21 21 20 19 -6z m3459 4 c2 -4 -12 -6 -32
-4 -56 5 -62 10 -15 11 23 1 44 -3 47 -7z m-236 -154 c-2 -6 -10 -14 -16 -16
-7 -2 -10 2 -6 12 7 18 28 22 22 4z m-3393 -78 c6 -18 15 -20 111 -20 71 0
104 -4 104 -11 0 -9 -55 -10 -207 -5 -222 8 -280 16 -118 16 66 0 96 3 89 10
-6 6 -180 13 -444 18 l-435 9 447 1 c439 2 447 2 453 -18z m4315 -19 c0 5 4 9
9 9 12 0 1 -41 -15 -57 -9 -10 -18 -7 -39 13 -22 20 -30 23 -36 12 -7 -10 -9
-10 -9 0 0 9 -101 13 -462 14 l-463 3 470 5 c259 3 487 2 508 -1 20 -4 37 -2
37 2z m-4627 -8 c-34 -2 -93 -2 -130 0 -37 2 -9 3 62 3 72 0 102 -1 68 -3z
m4465 -51 c16 -16 18 -40 19 -235 2 -215 2 -217 -20 -222 -12 -3 -171 -5 -354
-3 -279 3 -335 5 -347 18 -22 22 -26 437 -5 451 8 5 166 9 352 9 311 0 338 -1
355 -18z m-817 -67 l-8 -70 -2 66 c-1 56 5 86 15 76 2 -1 -1 -34 -5 -72z m60
-87 c0 -90 4 -202 7 -250 l7 -88 -30 0 -31 0 8 83 c5 45 5 148 2 228 -7 152
-2 189 22 189 11 0 14 -29 15 -162z m-3921 -184 l0 -294 387 0 386 0 -7 198
c-6 189 -2 262 14 262 18 0 21 -65 14 -262 l-7 -208 -403 0 -404 0 0 306 c0
201 3 303 10 299 6 -4 10 -115 10 -301z m4757 234 c-2 -13 -4 -5 -4 17 -1 22
1 32 4 23 2 -10 2 -28 0 -40z m124 -11 c-10 -9 -11 -8 -5 6 3 10 9 15 12 12 3
-3 0 -11 -7 -18z m-124 -104 c-2 -16 -4 -3 -4 27 0 30 2 43 4 28 2 -16 2 -40
0 -55z m-5060 -150 c-3 -10 -5 -4 -5 12 0 17 2 24 5 18 2 -7 2 -21 0 -30z
m1203 -63 c8 -5 11 -12 8 -16 -10 -9 -78 5 -78 16 0 13 50 13 70 0z m3870 -26
c0 -21 -4 -33 -10 -29 -17 10 -11 65 7 65 2 0 3 -16 3 -36z m-3825 8 c-3 -3
-11 0 -18 7 -9 10 -8 11 6 5 10 -3 15 -9 12 -12z m-1160 -2 c11 -17 -5 -32
-21 -19 -8 6 -14 15 -14 20 0 12 27 11 35 -1z m73 -107 c-10 -2 -26 -2 -35 0
-10 3 -2 5 17 5 19 0 27 -2 18 -5z m89 1 c-3 -3 -12 -4 -19 -1 -8 3 -5 6 6 6
11 1 17 -2 13 -5z m970 -20 c-3 -3 -12 -4 -19 -1 -8 3 -5 6 6 6 11 1 17 -2 13
-5z m3836 -8 c4 -10 1 -13 -8 -9 -8 3 -12 9 -9 14 7 12 11 11 17 -5z m-273
-16 c0 -13 -28 -25 -38 -16 -3 4 0 11 8 16 20 13 30 12 30 0z m130 -15 c0 -14
-13 -39 -29 -57 l-29 -33 -154 -1 c-118 -1 -133 0 -65 5 84 6 86 7 57 19 -25
11 -30 19 -30 48 l0 34 20 -20 c52 -52 122 -53 180 -5 23 19 44 35 46 35 2 0
4 -11 4 -25z m-922 -55 c6 0 12 -11 12 -25 0 -23 -3 -25 -32 -20 -43 8 -47 12
-41 36 4 15 11 19 27 15 11 -3 27 -6 34 -6z m-2901 -47 c-3 -10 -5 -4 -5 12 0
17 2 24 5 18 2 -7 2 -21 0 -30z m4026 30 c-7 -2 -19 -2 -25 0 -7 3 -2 5 12 5
14 0 19 -2 13 -5z m-640 -20 c-18 -2 -48 -2 -65 0 -18 2 -4 4 32 4 36 0 50 -2
33 -4z m-3163 -16 c0 -7 -5 -18 -12 -25 -9 -9 -7 -17 8 -34 10 -12 -1 -6 -25
15 -25 20 -56 38 -70 38 -18 1 -14 4 14 9 65 12 85 11 85 -3z m-596 -6 c-17
-4 -37 -11 -45 -15 -8 -4 -5 0 5 8 11 9 31 16 45 15 24 -1 24 -2 -5 -8z m366
-31 c0 -5 -4 -10 -10 -10 -5 0 -10 5 -10 10 0 6 5 10 10 10 6 0 10 -4 10 -10z
m340 -25 c11 -13 6 -15 -39 -15 -28 0 -51 3 -51 8 0 4 19 7 43 5 42 -2 42 -2
7 6 l-35 8 31 2 c17 0 37 -6 44 -14z m2560 -19 c0 -24 -3 -28 -11 -16 -8 12
-10 12 -8 -5 3 -46 -2 -86 -10 -80 -6 3 -8 18 -7 33 2 15 4 43 5 63 1 46 31
51 31 5z m-2483 18 c-3 -3 -12 -4 -19 -1 -8 3 -5 6 6 6 11 1 17 -2 13 -5z
m-1072 -33 c3 -6 -3 -9 -14 -8 -11 0 -17 5 -15 9 7 11 22 10 29 -1z m105 -7
c0 -9 -6 -28 -14 -42 -8 -15 -18 -36 -21 -47 -5 -13 -9 -15 -12 -7 -3 6 -9 12
-15 12 -10 0 -48 38 -48 48 0 3 9 15 20 27 25 27 90 33 90 9z m3766 -6 c-9
-12 -16 -30 -16 -40 0 -23 -20 -24 -21 0 -3 42 9 61 39 62 10 0 9 -5 -2 -22z
m-3324 -20 c2 -13 1 -42 0 -65 l-4 -42 -28 21 c-20 14 -36 19 -54 14 -24 -6
-38 -36 -16 -36 6 0 10 8 10 18 0 14 2 15 9 2 6 -8 8 -17 5 -21 -2 -4 3 -12
11 -19 22 -19 19 -27 -24 -56 -32 -21 -58 -27 -133 -34 l-93 -8 78 1 c42 1 77
-1 77 -5 0 -15 -159 -8 -200 8 -23 9 -39 19 -36 21 2 3 -4 13 -15 24 -19 19
-19 21 -2 50 45 76 50 79 158 90 111 12 198 7 222 -12 13 -11 15 -8 13 21 -3
46 -2 50 9 50 5 0 11 -10 13 -22z m-705 6 c-3 -3 -12 -4 -19 -1 -8 3 -5 6 6 6
11 1 17 -2 13 -5z m4713 -14 c0 -5 -5 -10 -11 -10 -5 0 -7 5 -4 10 3 6 8 10
11 10 2 0 4 -4 4 -10z m-3587 -60 c-7 -8 -33 32 -33 49 0 9 8 3 19 -14 10 -16
16 -32 14 -35z m-1388 30 c-2 -31 -15 -37 -15 -7 0 15 4 27 8 27 5 0 8 -9 7
-20z m1530 0 c7 -11 -41 -32 -63 -28 -9 2 -17 8 -19 15 -4 10 10 15 64 22 6 0
15 -4 18 -9z m3642 -82 c-2 -18 -4 -6 -4 27 0 33 2 48 4 33 2 -15 2 -42 0 -60z
m-194 65 c-7 -2 -19 -2 -25 0 -7 3 -2 5 12 5 14 0 19 -2 13 -5z m-816 -29 c-3
-3 -12 -4 -19 -1 -8 3 -5 6 6 6 11 1 17 -2 13 -5z m413 -14 c0 -11 -7 -20 -15
-20 -27 0 -18 30 13 39 1 1 2 -8 2 -19z m313 13 c-7 -2 -21 -2 -30 0 -10 3 -4
5 12 5 17 0 24 -2 18 -5z m-447 -20 c28 -9 42 -19 34 -21 -8 -3 -21 -12 -28
-21 -11 -14 -11 -13 -2 7 13 26 10 27 -37 7 -57 -24 -67 -20 -46 15 20 35 16
35 79 13z m359 -3 c-3 -5 -2 -10 4 -10 5 0 13 4 16 10 9 15 136 5 170 -13 17
-9 23 -17 15 -17 -10 -1 -9 -4 5 -10 18 -8 18 -9 -5 -10 -24 -2 -23 -3 5 -10
l30 -8 -27 -1 c-29 -1 -40 -21 -13 -21 15 0 20 -21 8 -34 -9 -9 -13 -37 -5
-32 4 2 13 -2 19 -9 10 -11 9 -15 -5 -19 -9 -3 -5 -4 10 -2 16 2 29 -3 32 -11
5 -11 0 -13 -16 -7 -20 6 -21 5 -10 -8 15 -19 6 -28 -54 -51 -32 -12 -55 -14
-106 -7 -136 17 -155 35 -155 145 0 75 2 81 46 110 39 28 45 30 36 15z m-3764
-79 c-6 -38 -11 -86 -11 -105 l0 -36 56 0 c59 0 59 -1 20 52 -11 15 -17 31
-13 35 4 3 7 1 7 -5 0 -15 146 -17 155 -2 4 6 10 8 15 5 5 -3 0 -21 -12 -41
-11 -19 -19 -36 -17 -38 2 -2 19 -6 37 -9 31 -6 45 6 20 17 -7 2 -2 4 11 3 22
-2 26 4 37 51 11 49 11 55 -7 73 -17 17 -18 19 -1 19 13 1 11 6 -12 26 -15 14
-26 27 -23 30 12 13 60 -12 87 -44 29 -35 39 -59 21 -48 -12 8 -17 -10 -20
-66 l-2 -48 36 0 c27 0 35 4 35 18 1 15 2 15 16 -3 8 -11 22 -19 30 -17 8 2
14 -2 14 -8 0 -5 13 -10 29 -10 24 0 30 5 35 30 4 21 14 34 32 40 33 13 39 8
24 -20 -18 -34 -6 -49 47 -52 l48 -3 1 -45 c1 -40 1 -40 -3 -7 l-4 38 -485 -3
c-266 -2 -484 0 -484 5 0 4 -27 7 -61 7 -93 0 -61 16 46 23 52 4 105 12 118
18 32 16 177 170 177 188 0 8 3 12 6 8 3 -3 1 -37 -5 -76z m2657 62 c-10 -2
-28 -2 -40 0 -13 2 -5 4 17 4 22 1 32 -1 23 -4z m-2458 -18 c11 -13 6 -15 -31
-15 -24 -1 -61 -7 -82 -15 -37 -13 -38 -12 -20 5 10 9 21 16 26 13 4 -2 7 0 7
6 0 22 82 27 100 6z m2565 -2 c-96 -7 -203 -7 -198 0 2 4 57 6 121 5 64 -1 99
-3 77 -5z m160 -32 l180 -1 -3 -212 c-2 -117 -4 -214 -6 -215 -9 -9 -530 -2
-536 7 -4 6 -48 9 -116 8 -100 -3 -112 -1 -141 20 -18 13 -33 28 -33 33 0 5
10 1 21 -10 27 -24 57 -13 83 30 21 35 51 35 50 1 -1 -26 -3 -25 30 -12 14 5
26 6 26 2 0 -15 -67 -42 -115 -46 -27 -2 0 -3 62 -2 61 1 115 5 119 9 4 4 8
94 9 199 1 106 3 194 4 196 0 2 43 1 94 -2 50 -2 173 -5 272 -5z m-2420 -81
c8 -13 -5 -13 -25 0 -13 8 -13 10 2 10 9 0 20 -4 23 -10z m-1443 -22 c17 -11
64 -36 105 -53 l74 -33 -33 -11 c-19 -7 -28 -15 -23 -19 12 -8 18 -62 7 -62
-4 0 -14 5 -22 10 -11 7 -11 10 -2 10 7 0 10 5 7 10 -4 6 -10 8 -15 5 -5 -3
-11 -1 -15 5 -10 15 -58 12 -84 -6 -16 -12 -22 -23 -18 -40 2 -13 0 -24 -4
-24 -5 0 -9 6 -10 13 0 6 -2 19 -4 27 -10 40 -25 138 -25 163 0 33 20 35 62 5z
m4975 -10 c-3 -8 -6 -5 -6 6 -1 11 2 17 5 13 3 -3 4 -12 1 -19z m-744 -50 c-7
-53 -8 -54 -27 -35 -18 17 -12 45 13 64 9 7 17 13 18 13 0 0 -1 -19 -4 -42z
m727 -18 c-6 -11 -13 -20 -16 -20 -2 0 0 9 6 20 6 11 13 20 16 20 2 0 0 -9 -6
-20z m-787 3 c-7 -2 -21 -2 -30 0 -10 3 -4 5 12 5 17 0 24 -2 18 -5z m867 -13
c0 -11 -6 -20 -14 -20 -18 0 -29 16 -21 30 11 18 35 11 35 -10z m-4412 3 c-10
-2 -28 -2 -40 0 -13 2 -5 4 17 4 22 1 32 -1 23 -4z m3479 1 c-3 -3 -12 -4 -19
-1 -8 3 -5 6 6 6 11 1 17 -2 13 -5z m-2899 -11 c-16 -2 -40 -2 -55 0 -16 2 -3
4 27 4 30 0 43 -2 28 -4z m338 -16 c4 -4 6 -52 5 -107 l-2 -100 33 -1 33 -2
-30 -4 c-38 -6 -47 -20 -40 -60 7 -39 6 -39 -45 -13 -50 25 -120 26 -199 1
l-61 -19 -6 36 c-7 34 2 257 10 271 6 9 293 8 302 -2z m174 -20 c0 -4 -6 -2
-14 5 -8 7 -12 17 -9 22 5 8 23 -12 23 -27z m1582 6 c-6 -10 -20 -27 -32 -38
-20 -18 -21 -18 -14 0 9 23 46 66 52 61 2 -2 -1 -13 -6 -23z m1595 6 c-21 -11
-62 -22 -90 -24 l-52 -4 53 9 c29 6 65 17 80 25 15 8 32 14 37 14 6 0 -7 -9
-28 -20z m-161 -17 c-10 -2 -22 0 -28 6 -6 6 0 7 19 4 21 -5 23 -7 9 -10z
m-4242 -273 c3 -107 9 -324 12 -483 7 -281 6 -289 -12 -282 -10 4 -53 11 -94
16 -165 19 -483 106 -444 121 21 8 48 33 141 129 78 81 98 100 106 100 10 0
57 43 57 52 0 4 9 17 20 28 13 13 20 33 20 59 0 21 6 44 14 50 16 14 31 -4 57
-67 8 -19 20 -31 29 -30 13 3 16 42 20 260 4 224 7 256 20 248 9 -5 17 -32 21
-67 6 -57 6 -56 8 27 4 143 18 52 25 -161z m-404 221 c0 -12 -60 -29 -80 -22
-10 4 -5 10 15 18 36 16 65 17 65 4z m1552 -118 c2 -28 0 -52 -4 -52 -5 0 -7
35 -7 78 2 78 6 69 11 -26z m-1450 66 c-7 -7 -12 -8 -12 -2 0 6 3 14 7 17 3 4
9 5 12 2 2 -3 -1 -11 -7 -17z m4461 5 c-7 -2 -19 -2 -25 0 -7 3 -2 5 12 5 14
0 19 -2 13 -5z m92 -13 c-3 -5 -11 -10 -16 -10 -6 0 -7 5 -4 10 3 6 11 10 16
10 6 0 7 -4 4 -10z m-4574 -47 c-10 -21 -22 -49 -26 -63 -9 -32 -46 -93 -52
-87 -2 3 7 28 21 56 14 28 26 55 26 62 0 11 38 69 46 69 2 0 -4 -17 -15 -37z
m4424 -21 c-2 -2 -10 0 -17 4 -7 5 -22 10 -32 11 -30 5 -32 13 -4 13 15 0 29
7 33 18 6 14 9 12 16 -12 5 -17 7 -32 4 -34z m275 25 c0 -12 -9 -28 -19 -34
-17 -10 -18 -9 -14 10 9 40 12 47 23 47 5 0 10 -10 10 -23z m-363 -3 c-3 -3
-12 -4 -19 -1 -8 3 -5 6 6 6 11 1 17 -2 13 -5z m-3841 -59 c27 -9 56 -19 64
-21 15 -6 -112 -74 -137 -74 -9 0 -13 20 -13 65 0 61 1 65 19 56 10 -6 41 -18
67 -26z m1222 -40 c-3 -3 -9 2 -12 12 -6 14 -5 15 5 6 7 -7 10 -15 7 -18z
m-414 -19 c56 -23 66 -48 66 -157 0 -69 -4 -98 -12 -101 -7 -2 -75 -2 -150 0
l-138 4 0 79 c0 49 6 94 16 119 9 22 17 40 18 40 0 0 19 7 41 15 51 18 117 19
159 1z m2957 -49 c-13 -13 -15 1 -4 30 7 17 8 17 11 -1 2 -10 -1 -23 -7 -29z
m319 -15 c0 -8 -1 -13 -3 -11 -1 2 -9 12 -16 22 -12 15 -12 17 3 11 9 -3 16
-13 16 -22z m-4788 -12 c24 0 32 -6 41 -30 14 -38 42 -39 55 -2 6 15 11 20 11
12 0 -8 -5 -26 -12 -40 -11 -23 -18 -25 -85 -26 l-72 -2 0 50 c0 42 3 49 16
44 9 -3 29 -6 46 -6z m1782 -16 c4 -10 1 -14 -6 -12 -15 5 -23 28 -10 28 5 0
13 -7 16 -16z m2696 -10 c0 -8 -4 -14 -9 -14 -11 0 -22 26 -14 34 9 9 23 -3
23 -20z m626 -29 c-5 -64 -16 -69 -16 -7 0 29 4 52 10 52 5 0 8 -20 6 -45z
m-516 25 c0 -5 -5 -10 -11 -10 -5 0 -7 5 -4 10 3 6 8 10 11 10 2 0 4 -4 4 -10z
m138 -15 c-3 -3 -9 2 -12 12 -6 14 -5 15 5 6 7 -7 10 -15 7 -18z m-842 -17 c1
-7 5 -20 9 -29 4 -12 -1 -18 -17 -23 -63 -17 -98 -1 -98 44 l1 25 15 -27 c12
-23 21 -27 48 -25 26 2 32 6 28 20 -3 10 -11 21 -19 24 -12 5 -12 7 -1 14 14
9 30 -3 34 -23z m691 -35 c-9 -2 -14 -9 -11 -15 4 -7 2 -8 -4 -4 -20 12 -13
26 11 25 17 -1 18 -2 4 -6z m352 -34 c-56 -5 -97 -14 -114 -25 -33 -21 -20
-20 -286 -29 -177 -6 -217 -4 -221 7 -5 11 34 13 211 13 207 0 217 1 247 22
17 12 34 20 37 17 3 -3 12 -2 20 3 9 4 55 6 104 4 l88 -5 -86 -7z m166 1 c13
-5 14 -9 5 -9 -8 0 -24 4 -35 9 -13 5 -14 9 -5 9 8 0 24 -4 35 -9z m-2088 -46
c-10 -27 -21 -40 -35 -42 -12 -2 -22 0 -22 3 0 10 62 87 66 82 2 -2 -2 -21 -9
-43z m576 -43 l87 -54 -28 -33 c-15 -18 -34 -33 -42 -33 -25 -1 -134 96 -163
145 -4 7 -2 22 5 33 14 22 6 26 141 -58z m-2916 53 c-3 -3 -12 -4 -19 -1 -8 3
-5 6 6 6 11 1 17 -2 13 -5z m91 -19 c-3 -3 -9 2 -12 12 -6 14 -5 15 5 6 7 -7
10 -15 7 -18z m1331 11 c16 -19 -3 -31 -26 -16 -15 9 -14 10 7 5 24 -6 24 -5
6 9 -11 9 -15 16 -9 16 6 0 16 -6 22 -14z m36 4 c3 -6 -1 -7 -9 -4 -18 7 -21
14 -7 14 6 0 13 -4 16 -10z m2788 -7 c-7 -2 -19 -2 -25 0 -7 3 -2 5 12 5 14 0
19 -2 13 -5z m-1130 -30 c-7 -2 -19 -2 -25 0 -7 3 -2 5 12 5 14 0 19 -2 13 -5z
m-2193 -13 c0 -6 -60 -10 -161 -10 -104 0 -158 3 -154 10 4 6 68 10 161 10 96
0 154 -4 154 -10z m3540 -5 c0 -9 -11 -20 -25 -25 l-25 -10 0 -171 c0 -95 -3
-169 -6 -166 -4 4 -6 83 -5 177 2 165 1 170 -19 170 -20 0 -20 -5 -20 -226 l0
-226 25 6 c14 4 25 2 25 -3 0 -16 -78 -20 -414 -23 -236 -2 -330 0 -333 8 -7
20 54 24 369 24 215 0 307 3 303 11 -8 13 -7 371 1 403 l6 24 -229 6 c-202 6
-280 9 -388 18 -16 2 139 5 345 8 206 3 378 6 383 8 4 1 7 -5 7 -13z m-1814
-17 c-19 -27 -20 -39 -3 -32 7 2 20 -9 30 -25 26 -44 78 -72 147 -78 50 -4 65
-2 82 13 l21 19 -17 -30 c-9 -16 -24 -42 -34 -56 -46 -70 -78 -115 -89 -127
-7 -7 -13 -20 -13 -28 0 -8 -3 -14 -8 -14 -10 0 -92 -106 -92 -119 0 -6 -25
-35 -56 -64 -31 -28 -71 -74 -90 -102 -18 -27 -63 -79 -100 -115 -36 -36 -70
-73 -75 -83 -8 -14 -136 -87 -154 -87 -3 0 -5 7 -5 15 0 8 5 15 10 15 6 0 10
6 10 13 0 8 6 14 13 15 99 7 113 16 115 74 0 24 -2 37 -5 31 -2 -7 -17 -13
-33 -13 -20 0 -36 -9 -52 -30 -13 -17 -38 -49 -56 -72 -18 -23 -40 -53 -47
-67 -8 -14 -30 -42 -50 -61 -19 -19 -35 -39 -35 -45 -1 -5 -17 -18 -37 -27
-32 -15 -38 -15 -59 -2 -40 27 -175 194 -167 207 9 14 109 120 246 259 53 54
97 103 97 108 0 6 6 10 13 10 7 0 22 12 34 28 61 82 281 327 294 327 10 0 85
71 137 128 36 41 52 49 28 15z m761 -14 c-3 -3 -12 -4 -19 -1 -8 3 -5 6 6 6
11 1 17 -2 13 -5z m-4084 -31 c-13 -2 -33 -2 -45 0 -13 2 -3 4 22 4 25 0 35
-2 23 -4z m1554 0 c-20 -2 -52 -2 -70 0 -17 2 0 4 38 4 39 0 53 -2 32 -4z
m-842 -21 c6 -4 16 -25 23 -47 7 -22 16 -46 21 -54 11 -18 97 -28 164 -21 27
4 50 3 53 -1 4 -7 225 -12 549 -12 89 0 118 -3 93 -8 -59 -13 -164 -17 -477
-18 -162 -1 -291 -4 -288 -7 4 -4 111 -9 239 -11 128 -3 235 -7 237 -9 11 -10
-464 -2 -483 8 -23 13 -148 38 -186 38 -24 0 -25 1 -22 65 4 61 5 65 28 65 13
0 24 5 24 10 0 12 11 13 25 2z m-709 -147 c-19 -75 -31 -100 -37 -82 -3 8 16
93 34 154 31 104 34 44 3 -72z m4342 92 l3 -39 -43 7 c-24 4 -56 14 -72 22
-19 10 -45 13 -73 10 -40 -4 -43 -3 -43 19 0 21 5 23 58 26 31 2 82 1 112 -2
l55 -5 3 -38z m-3260 -2 c2 -2 -17 -3 -42 -3 -25 0 -46 4 -46 8 0 8 80 3 88
-5z m1849 -1 c-3 -3 -12 -4 -19 -1 -8 3 -5 6 6 6 11 1 17 -2 13 -5z m-1299
-26 c5 -28 -64 -25 -71 3 -5 18 -1 20 31 17 26 -2 38 -8 40 -20z m-450 5 c-26
-2 -71 -2 -100 0 -29 2 -8 3 47 3 55 0 79 -1 53 -3z m2610 -14 c26 -9 26 -9
-4 -5 -24 4 -37 -1 -58 -23 -31 -33 -34 -46 -5 -31 11 7 23 9 26 7 2 -3 -6
-11 -19 -17 -46 -24 -68 -52 -68 -87 0 -27 6 -37 33 -53 17 -11 43 -20 57 -21
17 -1 19 -3 7 -6 -50 -13 -137 54 -137 106 0 24 119 153 133 144 5 -3 21 -9
35 -14z m-2588 -9 c0 -5 -8 -10 -17 -10 -15 0 -16 2 -3 10 19 12 20 12 20 0z
m2773 -4 c74 2 77 1 77 -21 0 -26 -23 -35 -60 -24 -14 4 -39 7 -56 8 -41 1
-107 29 -99 41 4 6 18 7 33 3 15 -5 62 -7 105 -7z m141 -43 c-14 -27 -30 -52
-37 -58 -8 -7 -8 -6 0 5 6 8 16 34 22 58 7 24 18 42 26 42 11 0 8 -11 -11 -47z
m-327 11 c-3 -3 -12 -4 -19 -1 -8 3 -5 6 6 6 11 1 17 -2 13 -5z m84 -11 c34
-20 43 -42 34 -83 -10 -44 -26 -37 -19 8 5 30 2 41 -18 59 -12 11 -32 23 -43
26 -18 4 -18 5 -2 6 11 0 32 -7 48 -16z m1246 -195 c-1 -40 -3 -8 -3 72 0 80
2 112 3 73 2 -40 2 -106 0 -145z m-4527 126 c0 -35 -4 -53 -10 -49 -12 7 -9
105 3 105 4 0 7 -25 7 -56z m940 -45 c0 -6 -4 -7 -10 -4 -5 3 -10 11 -10 16 0
6 5 7 10 4 6 -3 10 -11 10 -16z m2051 4 c-11 -20 -51 -56 -51 -46 0 6 52 62
58 63 1 0 -2 -8 -7 -17z m119 3 c0 -3 -4 -8 -10 -11 -5 -3 -10 -1 -10 4 0 6 5
11 10 11 6 0 10 -2 10 -4z m-2284 -24 c-10 -2 -22 0 -28 6 -6 6 0 7 19 4 21
-5 23 -7 9 -10z m2757 -9 c-7 -2 -19 -2 -25 0 -7 3 -2 5 12 5 14 0 19 -2 13
-5z m50 0 c-7 -2 -19 -2 -25 0 -7 3 -2 5 12 5 14 0 19 -2 13 -5z m-430 -20
c-13 -2 -33 -2 -45 0 -13 2 -3 4 22 4 25 0 35 -2 23 -4z m-287 -45 c-24 -30
-38 -49 -107 -148 -14 -19 -42 -53 -62 -74 -39 -42 -46 -62 -24 -69 6 -2 0 -2
-15 0 -14 2 -29 -1 -33 -6 -3 -6 2 -11 13 -11 11 0 30 -9 43 -20 21 -17 22
-21 9 -30 -8 -5 -11 -10 -5 -10 5 0 5 -4 -1 -10 -13 -13 -60 -24 -96 -22 -15
1 -30 -3 -33 -8 -4 -6 0 -10 7 -11 7 0 3 -4 -9 -9 -12 -5 -41 -37 -64 -72 -23
-35 -77 -107 -118 -161 -42 -54 -113 -146 -158 -205 -74 -97 -100 -129 -178
-227 -13 -16 -27 -27 -30 -23 -3 3 6 19 20 36 14 16 25 32 25 35 0 3 14 20 31
38 18 19 65 79 105 134 40 55 80 108 88 118 9 9 16 19 16 22 0 2 10 15 23 28
12 13 40 49 62 81 22 32 45 63 51 70 41 44 108 133 133 178 17 29 47 71 67 93
46 50 169 204 214 268 18 26 38 47 43 47 5 0 -2 -15 -17 -32z m-2909 6 c-3 -3
-12 -4 -19 -1 -8 3 -5 6 6 6 11 1 17 -2 13 -5z m3533 -4 c0 -5 13 -10 30 -10
23 0 28 -4 23 -16 -3 -9 0 -19 6 -24 24 -14 -17 -40 -64 -40 -72 0 -101 49
-47 82 32 19 52 22 52 8z m-106 -61 c24 -54 103 -76 173 -47 15 6 34 10 42 9
7 -1 11 2 8 7 -3 4 8 6 24 4 28 -4 29 -5 13 -23 -9 -10 -52 -30 -95 -44 -73
-25 -80 -25 -101 -11 -12 9 -33 16 -45 16 -57 0 -127 108 -88 136 24 18 48 1
69 -47z m-2957 14 c-3 -3 -14 0 -24 6 -17 10 -17 10 0 11 9 0 18 6 18 13 1 6
3 4 6 -6 3 -10 2 -21 0 -24z m133 15 c0 -16 -3 -19 -11 -11 -6 6 -8 16 -5 22
11 17 16 13 16 -11z m2498 3 c8 -4 13 -12 12 -17 0 -5 23 -14 52 -21 l53 -11
-67 5 c-49 4 -73 2 -85 -8 -14 -11 -13 -8 2 10 17 21 18 23 3 18 -10 -3 -20
-2 -23 4 -4 5 -11 7 -16 4 -10 -7 -12 8 -2 18 9 10 55 8 71 -2z m-2955 -8 c-7
-2 -21 -2 -30 0 -10 3 -4 5 12 5 17 0 24 -2 18 -5z m97 3 c0 -3 -4 -8 -10 -11
-5 -3 -10 -1 -10 4 0 6 5 11 10 11 6 0 10 -2 10 -4z m484 -5 c4 -5 -3 -7 -14
-4 -23 6 -26 13 -6 13 8 0 17 -4 20 -9z m59 2 c-7 -2 -19 -2 -25 0 -7 3 -2 5
12 5 14 0 19 -2 13 -5z m215 -25 c3 -14 -3 -18 -30 -17 -18 1 -25 3 -15 6 20
5 22 19 5 27 -7 3 -2 4 12 3 15 -1 26 -9 28 -19z m217 12 c3 -5 1 -10 -4 -10
-6 0 -11 5 -11 10 0 6 2 10 4 10 3 0 8 -4 11 -10z m71 -116 c18 -23 44 -65 57
-95 13 -30 31 -60 40 -68 10 -7 17 -18 17 -23 0 -16 37 -58 44 -50 4 4 4 -6 0
-22 -5 -21 -4 -27 5 -22 7 4 18 2 26 -4 8 -7 15 -11 16 -9 0 2 2 13 5 24 6 28
-6 91 -15 77 -4 -7 -11 -5 -19 8 -7 11 -8 20 -3 20 6 0 4 12 -3 28 -41 83 -47
101 -49 134 -1 20 -5 34 -9 31 -5 -2 -8 1 -8 7 0 22 30 21 59 -2 17 -12 30
-27 30 -32 1 -5 7 -17 15 -25 8 -9 29 -43 47 -76 159 -290 157 -285 101 -285
-48 0 -67 11 -89 49 -18 32 -26 38 -48 34 -28 -6 -28 -7 -16 -31 5 -9 17 -34
27 -54 l19 -38 72 0 73 0 49 -99 c63 -126 130 -252 144 -269 5 -7 8 -14 6 -16
-5 -5 -161 -56 -171 -56 -4 0 -23 28 -42 63 -19 34 -48 87 -65 117 -28 51
-289 572 -326 650 -8 19 -24 51 -35 70 -10 19 -19 42 -19 50 0 8 7 2 16 -15 8
-16 31 -48 49 -71z m-86 72 c0 -2 3 -11 6 -20 5 -13 -1 -16 -30 -16 -29 0 -36
4 -36 20 0 16 7 20 30 20 17 0 30 -2 30 -4z m1833 -11 c-3 -9 -8 -14 -10 -11
-3 3 -2 9 2 15 9 16 15 13 8 -4z m-1293 -30 c-7 -8 -16 -15 -20 -15 -3 0 -7 7
-7 15 0 8 9 15 20 15 16 0 17 -3 7 -15z m-804 -52 c15 -27 30 -50 33 -53 4 -3
12 -16 19 -30 14 -29 54 -87 75 -111 8 -10 18 -31 22 -48 4 -17 16 -36 27 -42
15 -8 17 -14 8 -22 -9 -9 -17 -6 -33 15 -33 40 -177 273 -177 286 0 3 -10 16
-22 29 -21 23 -21 23 -1 23 15 0 30 -15 49 -47z m2832 36 c-2 -6 -8 -10 -13
-10 -5 0 -11 4 -13 10 -2 6 4 11 13 11 9 0 15 -5 13 -11z m325 -7 c-4 -17 9
-32 132 -139 29 -25 36 -38 32 -55 -3 -13 1 -32 9 -42 18 -26 18 -66 -1 -66
-56 0 -92 -55 -59 -92 27 -30 131 -108 143 -108 6 0 11 -5 11 -10 0 -11 -85
-5 -155 10 -22 5 -85 18 -140 30 -55 12 -109 24 -120 26 -16 4 -17 3 -5 -5 11
-8 5 -11 -27 -11 -24 0 -43 -4 -43 -10 0 -5 -9 -10 -20 -10 -11 0 -22 -6 -24
-12 -2 -7 -12 -40 -21 -73 -9 -33 -25 -82 -35 -110 -10 -27 -24 -69 -31 -92
-11 -39 -15 -43 -44 -43 -39 0 -54 -17 -84 -95 -13 -33 -31 -81 -42 -107 -10
-26 -19 -54 -19 -63 0 -9 -10 -37 -21 -63 -12 -25 -22 -56 -23 -69 0 -13 -4
-23 -7 -23 -4 0 -12 -15 -18 -32 -19 -52 -44 -106 -89 -198 -23 -47 -42 -91
-42 -99 0 -8 -3 -11 -6 -8 -4 4 3 39 15 79 50 166 75 244 81 253 4 6 21 52 39
104 17 51 38 103 46 115 8 11 15 27 15 36 1 8 9 33 20 55 11 22 19 46 20 53 0
7 25 63 55 126 55 112 115 271 115 302 0 15 8 16 60 11 35 -4 60 -3 60 3 0 13
-41 55 -67 69 -15 7 -23 21 -23 36 0 31 -17 33 -23 3 -3 -17 -5 -14 -6 10 0
17 4 32 9 32 15 0 12 52 -4 91 -17 40 -44 65 -100 90 -57 26 -214 26 -271 0
-45 -20 -115 -88 -115 -110 0 -8 -3 -12 -6 -8 -4 3 1 24 10 47 9 22 16 54 16
71 0 17 5 39 11 50 9 18 17 19 112 13 66 -4 116 -2 142 5 78 22 140 24 175 6
45 -23 87 -20 205 14 120 36 165 39 158 13z m-2883 -12 c0 -12 -7 -20 -16 -20
-27 0 -9 -25 22 -30 23 -4 30 -11 32 -33 3 -25 1 -27 -36 -27 -42 0 -52 11
-52 54 0 30 22 76 38 76 6 0 12 -9 12 -20z m-1463 -9 c3 -11 12 -21 22 -23 13
-3 12 -5 -5 -10 -16 -4 -23 1 -31 23 -8 19 -8 29 -1 29 5 0 12 -9 15 -19z
m210 -16 c-5 -12 -23 -15 -89 -14 -83 2 -83 2 -28 10 30 4 69 12 85 17 35 11
40 9 32 -13z m363 5 c223 0 297 -6 280 -24 -3 -2 -22 -7 -42 -11 -32 -6 -38
-4 -38 9 0 10 -5 14 -11 10 -14 -8 -430 -7 -464 2 -14 3 -25 11 -25 16 0 6 10
8 23 4 12 -3 137 -6 277 -6z m-846 -108 c9 32 26 28 26 -5 0 -16 3 -19 9 -8 5
7 14 10 21 6 6 -4 38 -8 70 -9 56 -1 59 0 63 24 2 14 5 -80 6 -208 1 -231 1
-233 24 -243 16 -7 5 -8 -42 -4 -35 3 -112 6 -170 6 -58 1 -99 3 -90 6 13 3
17 26 22 125 4 67 7 152 7 190 0 48 5 74 15 84 8 9 16 34 17 57 l1 42 7 -45
c6 -42 7 -43 14 -18z m2344 42 c32 -9 27 -25 -5 -19 -28 6 -28 6 -5 -8 21 -12
21 -15 8 -26 -13 -11 -20 -8 -42 14 -22 22 -24 29 -13 36 17 10 26 11 57 3z
m-1956 -66 l112 4 -26 -34 c-57 -75 -57 -157 0 -215 16 -15 31 -36 35 -46 22
-58 229 -85 312 -40 33 17 134 103 136 115 0 1 2 35 5 73 4 57 1 77 -15 109
-12 22 -19 41 -17 44 8 7 180 2 187 -5 4 -5 9 -19 11 -33 2 -21 -2 -25 -27
-30 -30 -5 -30 -5 -35 -89 -4 -58 -10 -86 -19 -89 -15 -5 -38 -29 -64 -66 -36
-52 -134 -81 -272 -80 -126 1 -218 25 -274 72 -35 30 -81 139 -81 195 0 55
-10 77 -35 77 -13 0 -31 -7 -39 -16 -15 -14 -16 -9 -14 53 1 37 3 52 5 32 l4
-35 111 4z m3669 22 c11 -6 19 -21 19 -35 0 -17 6 -25 18 -26 13 -1 14 -2 2
-6 -13 -3 -15 -14 -10 -60 11 -100 -1 -133 -49 -133 -23 -1 -24 -2 -7 -11 10
-6 35 -9 55 -6 l36 5 -30 -13 c-54 -25 -119 -15 -182 27 -44 30 -86 100 -80
136 3 23 4 22 6 -8 2 -33 2 -34 16 -16 8 11 15 29 15 40 1 37 70 99 121 109
42 8 50 7 70 -3z m-3258 -12 c-4 -7 2 -9 22 -8 10 1 54 -57 64 -83 13 -33 -7
-98 -31 -105 -10 -2 -18 -9 -18 -15 0 -6 -3 -8 -6 -5 -3 3 -32 -5 -64 -18 -67
-27 -117 -30 -173 -11 -35 13 -101 57 -84 57 4 0 3 9 -3 20 -12 23 -4 64 10
55 5 -3 16 8 25 25 20 39 27 39 12 0 -6 -16 -15 -30 -19 -30 -13 0 -9 -30 9
-61 33 -56 141 -76 218 -40 69 31 92 72 80 142 -7 37 -12 43 -59 64 l-51 23
36 -1 c21 -1 35 -5 32 -9z m960 -39 c-24 -7 -33 -15 -33 -31 0 -16 -3 -18 -13
-9 -8 6 -17 8 -20 4 -4 -3 -7 3 -7 14 0 29 8 33 59 32 46 -1 46 -1 14 -10z
m-1150 -106 c-5 -12 -2 -15 10 -10 9 3 17 2 17 -3 0 -6 -4 -10 -10 -10 -5 0
-10 -5 -10 -11 0 -5 5 -7 10 -4 6 4 9 1 8 -7 -2 -9 10 -13 45 -13 26 0 47 -3
47 -7 0 -5 -25 -8 -55 -8 -30 0 -55 4 -55 10 0 5 -7 6 -17 3 -11 -4 -14 -3 -9
5 4 7 2 12 -3 12 -6 0 -11 7 -11 15 0 8 5 15 10 15 6 0 10 7 10 15 0 8 4 15
10 15 5 0 6 -8 3 -17z m4444 -80 c-2 -16 -4 -3 -4 27 0 30 2 43 4 28 2 -16 2
-40 0 -55z m-2669 32 c-3 -3 -9 2 -12 12 -6 14 -5 15 5 6 7 -7 10 -15 7 -18z
m-538 -20 c32 -22 80 -135 57 -135 -8 0 -9 -3 -1 -8 5 -4 10 -17 10 -29 0 -13
8 -29 19 -37 18 -14 17 -14 -13 -3 -22 8 -32 17 -29 27 2 9 -1 21 -7 27 -27
30 -35 43 -47 82 -7 22 -16 41 -22 41 -5 0 -7 7 -3 15 3 8 1 15 -3 15 -5 0
-11 6 -14 14 -4 10 0 12 16 7 12 -3 29 -10 37 -16z m1940 -51 c0 -14 -3 -14
-15 -4 -8 7 -15 14 -15 16 0 2 7 4 15 4 8 0 15 -7 15 -16z m1132 -7 c-1 -4 4
-15 13 -23 21 -21 19 -29 -11 -42 -21 -10 -29 -9 -49 5 -29 21 -30 30 -8 55
16 18 61 22 55 5z m-3832 -11 c0 -2 3 -11 6 -20 4 -11 0 -16 -12 -16 -27 0
-48 16 -40 29 7 10 46 16 46 7z m2672 -47 c29 -11 59 -27 66 -36 18 -25 15
-51 -9 -58 -14 -5 -18 -10 -11 -17 6 -6 7 -21 2 -37 -4 -15 -6 -41 -5 -59 2
-23 0 -30 -9 -23 -6 5 -28 12 -49 16 -60 11 -67 25 -67 124 0 54 4 91 12 99
15 15 8 16 70 -9z m-1927 -7 c-3 -3 -11 0 -18 7 -9 10 -8 11 6 5 10 -3 15 -9
12 -12z m2760 3 c39 -17 21 -18 -25 0 -19 7 -28 14 -20 14 8 0 29 -6 45 -14z
m102 -31 c-3 -3 -12 -4 -19 -1 -8 3 -5 6 6 6 11 1 17 -2 13 -5z m-657 -46 c0
-5 -19 -8 -42 -8 -24 0 -38 4 -31 8 15 9 73 9 73 0z m-2180 -22 c0 -11 -19
-15 -25 -6 -3 5 1 10 9 10 9 0 16 -2 16 -4z m2170 -12 c0 -15 -27 -146 -36
-173 -10 -32 -18 4 -16 74 2 42 -2 84 -8 95 -10 18 -8 20 25 20 25 0 35 -4 35
-16z m-3485 -23 l180 -7 -212 -2 c-190 -2 -212 0 -206 14 4 12 13 14 32 9 14
-4 107 -11 206 -14z m483 -8 c-21 -2 -57 -2 -80 0 -24 2 -7 4 37 4 44 0 63 -2
43 -4z m2852 -37 c0 -3 -4 -8 -10 -11 -5 -3 -10 -1 -10 4 0 6 5 11 10 11 6 0
10 -2 10 -4z m-1270 -36 c0 -6 -6 -19 -12 -30 -10 -16 -9 -25 5 -49 27 -46 22
-71 -7 -32 -14 18 -22 39 -19 47 3 8 0 14 -7 14 -6 0 -8 5 -4 12 5 8 2 9 -9 5
-14 -5 -15 -3 -5 13 11 17 24 25 51 29 4 0 7 -4 7 -9z m1525 -35 c-15 -24 -24
-49 -20 -55 3 -5 1 -10 -4 -10 -6 0 -11 -7 -11 -16 0 -8 -5 -12 -11 -8 -8 4
-8 9 0 17 6 6 11 19 11 28 0 30 30 89 46 89 12 0 9 -9 -11 -45z m-3214 -132
c1 -283 -2 -377 -14 -385 -7 -4 -1 -11 16 -17 22 -9 27 -17 27 -45 0 -19 -4
-38 -10 -41 -12 -7 -173 19 -255 41 -186 51 -269 94 -330 168 -38 46 -85 140
-85 170 0 11 -9 47 -19 80 -22 71 -41 168 -34 179 2 4 161 7 354 7 l349 0 1
-157z m2799 102 c0 -19 -4 -37 -10 -40 -6 -3 -10 4 -10 17 0 13 -3 33 -6 46
-5 18 -3 21 10 16 10 -4 16 -18 16 -39z m1153 8 c-13 -2 -35 -2 -50 0 -16 2
-5 4 22 4 28 0 40 -2 28 -4z m-4973 -22 c0 -10 -6 -24 -13 -30 -11 -8 -14 -5
-14 19 0 18 6 30 14 30 7 0 13 -8 13 -19z m4020 -11 c0 -5 -4 -10 -10 -10 -5
0 -10 5 -10 10 0 6 5 10 10 10 6 0 10 -4 10 -10z m-2960 -60 c0 -16 -3 -30 -7
-30 -5 0 -8 14 -8 30 0 17 3 30 8 30 4 0 7 -13 7 -30z m2945 -29 l40 -9 -40 0
c-22 0 -49 3 -60 8 l-20 9 20 0 c11 0 38 -4 60 -8z m779 -6 c-4 -8 -16 -15
-28 -15 -14 0 -23 6 -23 15 0 10 10 15 28 15 21 0 27 -4 23 -15z m-2357 -21
c-3 -3 -12 -4 -19 -1 -8 3 -5 6 6 6 11 1 17 -2 13 -5z m-57 -14 c-8 -5 -19
-10 -25 -10 -5 0 -3 5 5 10 8 5 20 10 25 10 6 0 3 -5 -5 -10z m1689 -6 c2 -2
-32 -3 -75 -2 -53 1 -71 3 -54 8 23 7 119 2 129 -6z m38 -26 c-3 -8 -6 -5 -6
6 -1 11 2 17 5 13 3 -3 4 -12 1 -19z m-287 -34 c0 -2 -9 -4 -21 -4 -11 0 -18
4 -14 10 5 8 35 3 35 -6z m-1167 -11 c11 -10 -13 -33 -34 -33 -22 0 -24 11 -7
28 13 13 31 16 41 5z m1333 -33 c17 -17 -9 -124 -30 -128 -10 -2 -16 0 -14 5
23 42 29 73 13 73 -21 0 -27 17 -15 40 12 22 30 26 46 10z m790 -37 c-8 -8
-36 5 -36 17 0 7 6 7 21 0 11 -7 18 -14 15 -17z m-3509 -120 c-2 -27 -3 -5 -3
47 0 52 1 74 3 48 2 -27 2 -69 0 -95z m3851 90 c-10 -2 -28 -2 -40 0 -13 2 -5
4 17 4 22 1 32 -1 23 -4z m-3951 -39 c-3 -3 -12 -4 -19 -1 -8 3 -5 6 6 6 11 1
17 -2 13 -5z m3535 -20 c4 -3 88 -7 187 -8 99 -1 182 -4 185 -6 2 -3 6 -158 7
-345 l3 -340 -45 -7 c-56 -8 -316 -10 -346 -2 l-23 6 0 344 c0 235 3 344 11
344 5 0 7 5 4 10 -7 11 8 14 17 4z m-755 -20 c-3 -3 -12 -4 -19 -1 -8 3 -5 6
6 6 11 1 17 -2 13 -5z m-36 -137 l1 -107 31 0 c36 0 27 -15 -15 -25 l-28 -7 0
128 c0 70 2 125 4 123 3 -3 6 -53 7 -112z m114 7 c-9 -53 -29 -42 -21 12 3 25
9 51 13 57 11 17 16 -28 8 -69z m-2758 -131 c-2 -37 -3 -9 -3 62 0 72 1 102 3
68 2 -34 2 -93 0 -130z m-112 157 c-3 -5 -13 -10 -21 -10 -8 0 -14 5 -14 10 0
6 9 10 21 10 11 0 17 -4 14 -10z m2672 -122 c-3 -7 -5 -2 -5 12 0 14 2 19 5
13 2 -7 2 -19 0 -25z m-7 -141 c0 -1 4 -17 9 -35 9 -31 8 -32 -19 -32 -21 0
-27 4 -25 18 2 9 4 25 4 35 1 9 8 17 16 17 8 0 15 -1 15 -3z m830 -37 c0 -22
-4 -40 -8 -40 -5 0 -9 18 -10 40 -1 22 3 40 8 40 6 0 10 -18 10 -40z m-3788 8
c76 -2 138 -6 138 -9 0 -4 -65 -8 -145 -11 -119 -3 -148 -6 -161 -20 -15 -15
-19 -15 -28 -3 -9 11 -59 15 -223 21 -117 4 -210 10 -208 15 3 4 -3 10 -12 13
-16 4 132 3 639 -6z m-307 -47 l60 -7 -80 -9 c-44 -5 -163 -9 -265 -10 -168 0
-185 2 -188 18 -3 16 11 17 205 16 114 -1 235 -4 268 -8z m197 -63 c-7 -7 -12
-8 -13 -2 0 5 -2 18 -4 28 -3 18 -2 18 13 3 13 -13 14 -19 4 -29z m408 22 c18
-13 31 -16 35 -10 3 5 15 10 26 10 15 0 19 -7 19 -38 0 -21 -6 -47 -14 -58
-16 -21 -15 -22 -33 41 -7 22 -22 36 -54 52 -25 13 -36 22 -26 23 11 0 32 -9
47 -20z m-413 -152 c-2 -13 -4 -3 -4 22 0 25 2 35 4 23 2 -13 2 -33 0 -45z
m336 -45 c-7 -2 -19 -2 -25 0 -7 3 -2 5 12 5 14 0 19 -2 13 -5z m3384 -10 c5
-13 -31 -23 -47 -13 -9 6 -7 11 6 19 21 12 36 10 41 -6z m-677 -8 c0 -10 -10
-15 -31 -15 -27 0 -30 2 -19 15 7 8 21 15 31 15 11 0 19 -7 19 -15z m658 -42
c-53 -2 -143 -2 -200 0 -57 1 -13 3 97 3 110 0 156 -2 103 -3z m-518 -98 c30
-10 63 -32 87 -56 21 -22 67 -61 103 -87 36 -25 90 -67 120 -92 30 -25 73 -59
95 -75 35 -26 116 -99 208 -188 16 -15 28 -29 26 -31 -2 -2 -35 -6 -74 -9 -38
-2 -59 -2 -47 2 l24 6 -24 25 c-12 14 -57 52 -98 85 -41 32 -88 72 -105 88
-16 15 -104 78 -195 139 -146 98 -206 140 -275 193 -10 8 -24 15 -30 16 -5 1
1 4 15 8 30 8 104 -2 170 -24z m-3587 -43 c8 -44 -3 -92 -23 -92 -39 0 -60
114 -22 122 27 7 40 -1 45 -30z m901 -88 c3 -9 6 -36 6 -60 l0 -44 -70 0 -70
0 0 39 c0 36 3 40 43 59 51 25 83 27 91 6z m3586 -2 c0 -4 15 -7 33 -5 17 1
99 4 181 6 l149 4 -6 -55 c-3 -30 -10 -59 -16 -65 -5 -5 -29 -7 -54 -3 -33 5
-49 14 -66 37 -21 28 -25 29 -74 23 -50 -6 -87 -30 -87 -54 0 -6 -5 -8 -10 -5
-6 4 -8 15 -5 25 8 26 -3 30 -84 32 -59 2 -71 5 -71 19 0 40 11 49 61 49 27 0
49 -4 49 -8z m40 -167 c-7 -8 -19 -15 -28 -15 -11 0 -9 6 9 23 25 23 40 17 19
-8z m-3630 -25 l0 -30 -70 0 -70 0 0 30 0 30 70 0 70 0 0 -30z m-1120 -15 c0
-16 -6 -25 -15 -25 -21 0 -31 30 -14 41 23 14 29 11 29 -16z m3751 -61 c18
-22 4 -27 -36 -14 -28 9 -33 15 -25 25 12 15 44 9 61 -11z m-3298 -151 c-7 -2
-19 -2 -25 0 -7 3 -2 5 12 5 14 0 19 -2 13 -5z m4597 -38 c0 -8 -2 -15 -4 -15
-2 0 -6 7 -10 15 -3 8 -1 15 4 15 6 0 10 -7 10 -15z m-377 -2 c-23 -2 -64 -2
-90 0 -26 2 -7 3 42 3 50 0 71 -1 48 -3z m314 -9 c-3 -3 -12 -4 -19 -1 -8 3
-5 6 6 6 11 1 17 -2 13 -5z m-5304 -21 c-13 -2 -33 -2 -45 0 -13 2 -3 4 22 4
25 0 35 -2 23 -4z m-23 -39 c0 -2 -11 -4 -25 -4 -14 0 -25 4 -25 9 0 4 11 6
25 3 14 -2 25 -6 25 -8z m5680 -4 c21 -7 19 -8 -17 -9 -24 -1 -43 4 -43 9 0
12 24 12 60 0z m-5715 -39 c-3 -5 3 -12 12 -14 14 -4 13 -5 -4 -6 -14 -1 -23
5 -23 14 0 8 5 15 11 15 5 0 8 -4 4 -9z m5715 -11 c20 -6 16 -8 -23 -9 -30 -1
-46 3 -42 9 7 11 29 11 65 0z m-5697 -47 c-7 -2 -19 -2 -25 0 -7 3 -2 5 12 5
14 0 19 -2 13 -5z m5692 -3 c17 -7 16 -9 -10 -9 -16 0 -37 4 -45 9 -12 8 -10
10 10 9 14 0 34 -4 45 -9z m3 -47 c-16 -2 -40 -2 -55 0 -16 2 -3 4 27 4 30 0
43 -2 28 -4z"/>
<path d="M5975 4560 c-3 -6 -4 -19 0 -29 7 -24 43 -29 220 -30 77 -1 159 -4
181 -7 41 -6 42 -5 47 28 2 18 3 36 0 41 -7 11 -441 9 -448 -3z"/>
<path d="M6444 4435 c-5 -11 -9 -72 -9 -135 0 -101 2 -115 18 -118 15 -3 17 6
16 95 0 54 -4 116 -8 138 -7 34 -9 37 -17 20z"/>
<path d="M7182 3000 c2 -6 8 -11 13 -10 5 1 12 -7 16 -17 7 -17 7 -17 14 0 9
21 8 22 -24 32 -16 5 -22 3 -19 -5z"/>
<path d="M6220 2565 c0 -21 30 -31 41 -14 14 23 11 29 -16 29 -16 0 -25 -6
-25 -15z"/>
<path d="M4458 3903 c12 -2 30 -2 40 0 9 3 -1 5 -23 4 -22 0 -30 -2 -17 -4z"/>
<path d="M5040 3356 c0 -2 7 -6 15 -10 8 -3 15 -1 15 4 0 6 -7 10 -15 10 -8 0
-15 -2 -15 -4z"/>
<path d="M3644 2410 c0 -69 1 -97 3 -62 2 34 2 90 0 125 -2 34 -3 6 -3 -63z"/>
<path d="M4680 2061 c0 -5 5 -13 10 -16 6 -3 10 -2 10 4 0 5 -4 13 -10 16 -5
3 -10 2 -10 -4z"/>
<path d="M10226 1040 c-3 -33 -9 -87 -12 -120 -3 -33 -9 -60 -14 -60 -11 0
-24 -93 -26 -186 0 -44 -4 -93 -8 -109 -7 -27 -9 -28 -59 -22 -41 4 -57 1 -75
-13 -27 -23 -27 -26 0 -33 17 -5 19 -9 9 -20 -6 -8 -24 -17 -40 -20 -18 -4
-30 -14 -34 -27 -3 -12 -15 -24 -26 -27 -12 -3 -21 -9 -21 -14 0 -5 -7 -9 -15
-9 -8 0 -15 -4 -15 -9 0 -5 7 -11 15 -15 22 -8 18 -36 -4 -36 -11 0 -23 -9
-26 -20 -3 -11 -10 -20 -15 -20 -5 0 -11 -9 -15 -19 -3 -11 -16 -21 -28 -23
-28 -4 -25 -21 5 -30 17 -4 18 -6 5 -7 -10 -1 -20 -8 -23 -16 -4 -8 -14 -15
-24 -15 -25 0 -50 -10 -50 -21 0 -5 7 -9 16 -9 11 0 14 -8 12 -32 l-3 -33
-115 -12 c-63 -6 -142 -14 -174 -17 -53 -5 -75 -16 -76 -38 0 -5 191 -8 425
-8 l425 0 0 550 c0 303 -2 550 -4 550 -2 0 -7 -27 -10 -60z"/>
<path d="M0 400 l0 -400 293 0 c281 0 337 4 337 20 0 13 -52 28 -113 34 -32 2
-65 10 -72 16 -8 7 -26 9 -44 5 -24 -5 -32 -2 -41 15 -9 17 -17 20 -40 15 -35
-8 -45 6 -41 60 2 38 -1 44 -36 68 -22 15 -47 27 -56 27 -12 0 -17 8 -17 30 0
17 5 30 10 30 6 0 10 11 10 25 0 14 -4 25 -8 25 -5 0 -21 11 -36 23 -21 19
-26 29 -21 49 10 40 -23 47 -38 8 -3 -8 -5 8 -5 36 0 27 -6 63 -15 80 -11 22
-37 170 -37 215 0 4 -7 9 -15 13 -13 5 -15 -43 -15 -394z"/>
<path d="M10120 590 c0 -23 4 -30 20 -30 16 0 20 7 20 30 0 23 -4 30 -20 30
-16 0 -20 -7 -20 -30z"/>
<path d="M10060 570 c-13 -8 -12 -10 3 -10 9 0 17 5 17 10 0 12 -1 12 -20 0z"/>
<path d="M9958 503 c6 -2 18 -2 25 0 6 3 1 5 -13 5 -14 0 -19 -2 -12 -5z"/>
<path d="M300 130 c0 -5 5 -10 10 -10 6 0 10 5 10 10 0 6 -4 10 -10 10 -5 0
-10 -4 -10 -10z"/>
<path d="M9650 120 c0 -5 7 -10 15 -10 8 0 15 5 15 10 0 6 -7 10 -15 10 -8 0
-15 -4 -15 -10z"/>
</g>
</svg>
