<?xml version="1.0" standalone="no"?>
<!DOCTYPE svg PUBLIC "-//W3C//DTD SVG 20010904//EN"
 "http://www.w3.org/TR/2001/REC-SVG-20010904/DTD/svg10.dtd">
<svg version="1.0" xmlns="http://www.w3.org/2000/svg"
 width="1024.000000pt" height="1024.000000pt" viewBox="0 0 1024.000000 1024.000000"
 preserveAspectRatio="xMidYMid meet">

<g transform="translate(0.000000,1024.000000) scale(0.100000,-0.100000)"
fill="#000000" stroke="none">
<path d="M1903 8882 c-19 -3 -22 -11 -28 -89 -4 -48 -5 -136 -1 -197 6 -91 12
-120 33 -163 44 -89 52 -93 201 -103 75 -5 139 -14 151 -22 19 -12 21 -22 22
-138 0 -69 1 -502 2 -963 1 -461 5 -828 9 -815 3 13 6 -24 6 -82 0 -63 -3 -97
-8 -85 -4 11 -6 -185 -5 -435 4 -594 6 -2367 4 -3010 -1 -278 -1 -616 -1 -752
l2 -247 63 -4 c34 -2 -49 -4 -185 -5 l-248 -2 -1 -32 c0 -26 -2 -29 -8 -14
-12 32 -19 7 -25 -99 -10 -157 -17 -210 -26 -195 -5 8 -9 -2 -13 -26 -2 -22
-12 -72 -21 -113 -21 -93 -26 -227 -10 -303 14 -68 64 -137 114 -158 16 -7 30
-16 30 -21 0 -5 13 -9 29 -9 16 0 46 -7 67 -16 29 -12 55 -14 109 -10 38 4 82
7 98 7 17 0 27 5 27 14 0 8 11 17 23 20 21 6 107 86 107 101 0 3 11 20 25 38
14 18 25 41 25 50 0 10 5 14 11 11 6 -4 20 3 31 15 14 15 27 20 42 15 11 -3
62 -12 111 -20 50 -8 128 -22 175 -31 47 -8 103 -17 125 -18 84 -5 86 -6 79
-18 -5 -8 0 -7 11 2 10 8 16 10 12 4 -8 -13 45 -27 53 -14 3 4 43 10 90 14 47
3 103 9 125 13 47 9 127 52 119 65 -3 4 6 12 20 18 14 5 26 15 26 21 0 7 6 20
14 28 24 27 103 193 120 251 8 30 20 95 25 144 6 48 16 94 22 102 10 12 -27
14 -242 16 l-254 2 230 6 c127 4 240 10 252 14 21 8 37 42 27 58 -3 4 -21 8
-40 8 -19 0 -34 4 -34 10 0 5 7 7 15 4 12 -5 14 46 15 371 0 207 1 379 1 383
1 4 1 134 0 290 l-1 282 -67 0 c-48 0 -64 3 -53 10 11 7 0 10 -37 10 -30 0
-53 5 -53 10 0 7 13 9 33 6 106 -17 127 -17 142 -3 8 8 11 17 8 21 -4 3 -1 6
5 6 7 0 12 -12 12 -27 0 -14 3 -23 8 -19 8 9 4 1192 -5 1243 -3 22 -11 33 -27
36 -17 3 -16 5 6 6 l27 1 3 226 c2 124 0 228 -4 231 -5 2 -7 23 -6 46 l1 42 7
-45 c4 -27 7 31 8 144 0 105 5 193 10 198 17 17 109 -42 97 -61 -3 -6 -2 -11
4 -11 6 0 13 -17 17 -37 8 -44 73 -149 154 -248 31 -38 60 -80 64 -93 5 -13
10 -21 13 -18 4 3 29 -31 57 -75 28 -45 84 -115 124 -156 42 -43 71 -81 68
-88 -3 -9 0 -12 8 -9 7 3 16 -2 19 -10 4 -9 2 -16 -4 -16 -5 0 1 -11 15 -24
15 -13 26 -28 26 -35 0 -6 6 -10 13 -8 7 1 12 -7 11 -20 0 -12 3 -20 8 -17 4
3 13 -7 18 -21 9 -23 40 -64 40 -53 0 3 -9 23 -20 46 -29 60 -24 65 9 7 17
-27 40 -53 53 -58 19 -8 20 -10 6 -16 -14 -5 -9 -20 33 -108 27 -56 53 -104
59 -108 6 -4 8 -10 5 -15 -3 -5 5 -26 18 -47 13 -21 21 -45 19 -55 -1 -9 2
-19 7 -23 6 -3 11 -15 11 -26 0 -11 4 -17 10 -14 6 4 4 17 -5 36 -9 16 -13 29
-11 29 12 0 35 -59 26 -65 -11 -7 8 -55 22 -55 5 0 4 9 -2 21 -7 11 -10 23 -7
25 2 2 9 -7 15 -21 7 -14 7 -27 2 -30 -12 -7 -2 -34 23 -63 15 -16 18 -25 10
-33 -14 -14 -48 52 -132 250 -64 150 -150 323 -150 303 -1 -7 6 -26 14 -43 9
-16 13 -34 10 -39 -3 -6 -2 -10 3 -10 7 0 35 -76 37 -100 0 -3 8 -22 18 -43
10 -21 16 -45 13 -53 -3 -9 -1 -12 4 -9 6 3 10 -1 10 -9 0 -9 5 -16 10 -16 6
0 10 -7 10 -15 0 -8 4 -15 10 -15 5 0 7 -7 4 -15 -5 -12 -2 -14 12 -8 16 6 17
4 6 -9 -14 -17 -6 -51 11 -41 6 4 8 -3 3 -21 -4 -15 -2 -26 4 -26 5 0 10 -7
10 -16 0 -9 8 -33 19 -53 10 -20 24 -49 32 -66 7 -16 25 -48 40 -70 14 -22 36
-60 49 -84 25 -49 76 -101 101 -101 9 0 37 11 63 25 25 13 46 22 46 19 0 -2
13 2 28 10 19 10 40 39 66 93 76 156 90 180 151 273 35 52 73 115 86 140 12
25 42 78 66 118 24 40 48 84 53 98 5 13 36 66 68 116 33 51 75 125 95 165 19
39 55 100 79 135 59 85 108 166 108 179 0 14 74 109 141 182 53 57 55 58 119
63 36 3 71 7 77 9 7 3 12 -1 10 -7 -1 -6 9 -15 23 -19 24 -8 24 -9 -3 -5 -15
2 -30 -1 -33 -5 -3 -5 1 -9 8 -9 9 0 9 -3 -2 -10 -13 -8 -15 -110 -13 -837 2
-455 3 -876 3 -935 l0 -107 25 23 c14 13 25 33 25 45 0 12 4 19 10 16 6 -4 10
10 10 34 0 23 5 41 10 41 6 0 10 -7 10 -16 0 -8 4 -12 10 -9 6 3 10 -5 10 -19
0 -39 18 -76 42 -87 22 -9 22 -9 -2 -3 -74 18 -90 17 -116 -11 -14 -15 -23
-34 -20 -42 3 -8 2 -11 -3 -8 -17 10 -20 -27 -19 -181 l2 -150 443 2 c267 1
441 -1 437 -7 -3 -5 -154 -9 -352 -10 -191 -1 -389 -2 -440 -3 l-93 -1 1 -450
c1 -247 4 -470 7 -494 l6 -43 458 4 c252 2 456 2 453 -1 -7 -8 -72 -9 -498
-10 -333 -1 -416 -4 -409 -13 16 -21 60 -184 78 -288 3 -19 10 -39 16 -44 5
-6 9 -17 9 -26 0 -27 57 -133 87 -162 80 -79 103 -95 166 -116 37 -12 76 -22
87 -22 10 0 21 -4 24 -9 7 -11 76 -20 76 -10 0 4 69 5 153 2 131 -5 158 -3
189 11 20 10 42 16 50 15 7 -1 24 1 38 5 14 3 72 10 130 15 109 8 156 23 218
69 30 23 35 24 68 11 27 -11 40 -24 52 -54 17 -42 30 -61 75 -108 15 -16 27
-32 27 -37 0 -11 51 -36 90 -45 16 -4 30 -10 30 -15 0 -23 166 -33 218 -13 18
7 45 22 59 33 14 11 34 20 44 20 10 0 28 15 40 33 13 17 26 34 31 37 4 3 11
53 15 110 10 134 -12 263 -88 520 -13 42 -14 49 -24 125 -4 33 -12 71 -17 84
l-9 24 -217 -6 -217 -5 -1 71 c-10 469 -18 2843 -11 3347 1 80 0 172 -2 205
-3 33 -4 200 -3 370 0 171 0 625 0 1010 0 716 7 1227 17 1325 6 52 24 122 47
182 17 44 58 56 223 62 172 7 182 11 224 91 25 48 26 57 29 252 l3 203 -28 1
c-15 0 -370 0 -787 -1 -605 -1 -764 -4 -785 -14 -14 -7 -32 -11 -38 -9 -8 3
-13 -6 -14 -24 -2 -26 -2 -25 -9 7 -3 20 -7 -28 -8 -113 0 -81 -4 -156 -7
-167 -3 -10 -2 -21 3 -23 4 -3 4 -45 0 -94 -5 -48 -6 -111 -3 -140 4 -31 2
-54 -4 -58 -6 -3 -11 -13 -11 -20 0 -14 -46 -112 -84 -180 -37 -67 -86 -187
-86 -210 0 -14 -4 -25 -9 -25 -17 0 -18 -35 -5 -160 7 -69 13 -137 13 -152 l1
-28 -52 21 c-29 11 -54 22 -56 24 -2 1 13 29 33 61 36 61 43 96 23 118 -9 9
-22 -7 -59 -78 -25 -50 -58 -111 -73 -136 -32 -56 -32 -61 2 -58 15 1 57 -7
95 -17 60 -16 67 -21 67 -43 0 -19 -4 -23 -20 -19 -11 3 -20 1 -20 -4 0 -5
-12 -3 -27 5 -16 7 -42 11 -60 9 -24 -4 -33 -1 -33 8 0 11 -2 11 -8 2 -5 -7
-20 -14 -34 -15 -18 -2 -24 -7 -20 -17 3 -8 1 -12 -5 -8 -11 7 -28 -37 -24
-62 1 -8 -2 -10 -9 -6 -9 5 -10 1 -5 -14 5 -16 1 -27 -14 -40 -12 -10 -21 -24
-21 -31 0 -10 -3 -10 -15 0 -20 16 -19 18 -49 -64 -26 -68 -34 -104 -17 -77
12 19 65 6 57 -15 -3 -9 -1 -12 4 -9 13 8 13 -11 0 -36 -13 -24 -46 -25 -59
-1 -6 9 -11 13 -11 7 0 -5 -4 -3 -10 5 -6 11 -30 -30 -90 -155 -45 -94 -98
-203 -118 -244 -38 -76 -49 -160 -23 -169 6 -2 8 -9 5 -14 -5 -7 -2 -8 6 -3 7
4 16 2 21 -6 7 -12 9 -11 9 1 0 13 1 13 10 0 5 -8 10 -10 10 -3 0 8 19 5 63
-8 34 -10 89 -19 122 -19 33 -1 87 -7 120 -15 33 -8 80 -15 105 -15 26 0 56
-7 69 -17 14 -9 22 -12 18 -6 -4 6 8 10 29 10 29 0 32 -2 17 -10 -44 -23 -84
-72 -90 -112 l-7 -40 -8 30 c-6 23 -6 20 -3 -15 3 -38 11 -52 49 -87 44 -42
47 -43 111 -43 63 0 69 2 101 34 19 19 34 42 35 52 0 11 2 28 4 39 2 11 -2 47
-10 80 -19 84 -9 99 77 109 64 8 88 48 153 251 20 66 42 126 48 133 6 8 25 64
43 125 18 62 33 103 34 92 0 -11 12 6 26 40 15 33 28 62 30 64 3 3 3 -21 2
-54 -3 -57 -2 -58 27 -66 18 -5 32 -4 35 2 4 5 17 11 28 12 12 1 22 5 22 9 0
4 8 8 18 8 10 0 23 5 30 12 20 20 15 -22 -6 -57 -22 -36 -104 -242 -162 -410
-50 -144 -80 -206 -126 -262 -44 -53 -92 -171 -85 -210 1 -6 -6 -14 -16 -16
-12 -3 -10 -5 8 -6 21 -1 29 7 49 49 13 27 33 59 45 70 22 21 22 19 -5 -57
l-28 -78 -83 0 c-46 0 -113 4 -149 9 -89 13 -196 9 -250 -9 l-45 -14 40 4 c22
3 54 1 70 -4 25 -8 20 -9 -37 -10 l-66 -1 -107 80 c-59 44 -111 80 -115 80 -5
0 -23 -15 -41 -32 l-32 -33 23 33 c12 18 20 36 17 39 -3 3 -1 16 4 30 13 35 3
60 -28 68 -32 8 -77 -32 -131 -115 -39 -59 -56 -54 -24 7 23 43 42 98 42 121
0 12 -5 10 -21 -7 -45 -49 -120 -45 -127 7 -4 25 25 32 34 7 4 -8 10 -12 15
-9 5 3 9 -2 9 -10 0 -22 13 -20 38 7 27 29 27 30 -1 61 -18 20 -34 25 -81 27
-45 2 -61 -1 -71 -14 -6 -9 -16 -13 -20 -9 -5 4 -5 2 -2 -5 9 -15 -2 -45 -14
-37 -5 3 -6 -1 -4 -9 3 -7 -1 -27 -10 -43 -8 -16 -15 -22 -15 -14 0 8 -14 -8
-30 -37 -17 -29 -30 -58 -30 -64 0 -7 -8 -18 -17 -26 -10 -8 -12 -12 -6 -8 9
4 11 1 7 -9 -3 -9 -9 -14 -13 -12 -4 3 -33 -47 -64 -111 -46 -90 -55 -118 -46
-129 6 -8 15 -11 20 -8 5 3 9 0 9 -5 0 -6 -7 -11 -15 -11 -8 0 -15 5 -15 10 0
6 -5 10 -11 10 -8 0 -8 -5 1 -15 20 -24 38 -18 58 21 14 27 20 33 25 21 3 -9
-1 -18 -11 -22 -16 -6 -15 -8 2 -21 11 -7 16 -17 12 -21 -4 -4 -11 -1 -17 7
-7 13 -10 13 -18 1 -6 -9 -21 -12 -45 -9 -35 4 -36 3 -71 -64 -19 -37 -31 -68
-27 -68 4 0 -1 -5 -11 -11 -9 -6 -15 -14 -12 -20 4 -5 1 -9 -5 -9 -6 0 -9 -4
-5 -9 3 -5 1 -12 -5 -16 -6 -4 -8 -10 -5 -15 3 -4 -2 -14 -11 -21 -18 -15 -54
-82 -54 -101 0 -7 10 -18 22 -23 12 -6 23 -15 25 -21 4 -12 -39 -34 -66 -34
-11 0 -24 -12 -31 -30 -7 -17 -25 -39 -41 -50 l-27 -20 -21 55 c-12 31 -21 61
-21 66 0 6 -7 9 -15 5 -8 -3 -15 -1 -15 5 0 6 -5 7 -11 3 -7 -4 -10 -1 -7 7 3
8 -6 36 -18 63 -13 27 -20 54 -17 59 3 6 1 7 -5 3 -12 -7 -16 5 -13 33 2 7 -2
10 -8 6 -7 -4 -11 3 -11 17 0 14 -7 33 -16 44 -15 18 -15 18 -5 -3 17 -33 12
-42 -5 -10 -8 15 -12 31 -10 36 7 10 -80 225 -131 327 -20 39 -46 76 -57 81
-12 5 -15 8 -8 6 6 -1 12 5 12 14 0 9 -3 13 -7 9 -4 -3 -12 6 -18 21 -10 25
-17 28 -56 28 l-44 0 2 49 c1 34 -1 45 -8 35 -7 -11 -9 -11 -9 4 0 21 -28 22
-54 2 -22 -16 -72 -10 -98 13 -10 8 -18 11 -18 7 0 -5 -5 -4 -12 3 -17 17 -41
15 -34 -3 3 -9 0 -15 -8 -15 -8 0 -16 9 -19 21 -4 13 -1 19 6 16 7 -2 21 -1
32 4 16 6 14 8 -12 8 -21 1 -33 6 -33 15 0 8 -7 17 -16 20 -11 4 -14 17 -12
43 l3 38 56 3 c72 4 109 -22 111 -81 1 -21 4 -34 7 -29 7 10 81 10 75 0 -3 -4
4 -6 15 -5 18 1 18 3 -4 52 -12 27 -28 64 -36 80 -7 17 -18 37 -25 45 -17 21
-105 192 -101 196 2 2 14 -14 26 -36 26 -46 39 -54 16 -10 -8 16 -20 42 -26
57 -8 22 -12 24 -19 13 -7 -11 -10 -8 -10 12 0 30 -29 98 -41 98 -7 0 -31 67
-33 92 -1 4 -7 13 -13 20 -7 6 -13 19 -14 28 0 10 -3 9 -9 -5 -7 -17 -9 -18
-9 -2 -1 9 -12 40 -26 68 -13 29 -22 55 -20 59 3 4 -2 13 -10 20 -8 7 -15 18
-15 26 0 22 -18 25 -51 9 -17 -9 -33 -14 -37 -11 -3 3 0 6 6 6 22 0 51 38 45
59 -3 12 -10 21 -15 21 -6 0 -6 5 1 14 9 11 8 15 -5 20 -9 4 -14 12 -10 22 3
8 2 13 -3 10 -4 -3 -21 20 -36 52 -15 31 -32 64 -36 72 -5 8 -12 22 -15 30
-15 38 -30 67 -46 89 -10 13 -18 29 -18 35 0 6 5 4 10 -4 5 -8 10 -10 10 -4 0
5 -8 19 -17 30 -10 10 -19 28 -21 38 -4 22 -27 48 -36 39 -3 -3 -12 9 -20 28
-11 25 -15 28 -16 14 -1 -16 -4 -13 -14 10 -12 27 -13 36 -6 70 4 17 -12 55
-22 55 -5 0 -6 4 -3 10 7 12 -24 62 -35 55 -4 -3 -10 4 -13 15 -3 14 -1 18 6
13 14 -8 -20 47 -37 62 -6 6 -11 17 -11 25 0 18 -17 40 -27 33 -4 -2 -5 3 -2
12 4 9 -5 33 -20 55 -14 22 -26 42 -26 45 0 4 -13 25 -28 48 -39 58 -43 68
-55 182 -11 110 -15 205 -18 400 0 81 -4 121 -9 105 -4 -14 -8 -19 -9 -11 -1
7 -7 11 -15 8 -8 -3 -17 -1 -20 6 -2 7 -5 -7 -5 -29 -1 -28 -6 -44 -16 -48
-24 -9 -28 18 -10 54 9 18 15 33 13 35 -5 5 -1405 11 -1435 7z m4777 -32 c69
0 110 -4 118 -12 18 -18 14 -30 -5 -19 -15 7 -223 21 -223 15 0 -1 -3 -9 -6
-18 -5 -13 1 -16 27 -18 30 -1 29 -2 -11 -8 l-45 -7 45 -2 c25 -1 56 -4 70 -6
22 -5 22 -4 5 4 -16 8 -12 10 25 11 56 3 42 4 190 -14 116 -13 238 -24 560
-46 149 -10 -429 -3 -685 9 -177 8 -215 20 -215 68 0 36 19 68 33 54 7 -7 53
-11 117 -11z m1298 -17 c-8 -10 -20 -27 -26 -38 -6 -11 -12 -15 -12 -9 0 12
38 64 47 64 3 0 -1 -8 -9 -17z m-6021 -7 c-10 -8 -22 -27 -27 -43 -7 -24 -8
-25 -9 -5 -1 21 30 62 47 62 4 0 -1 -7 -11 -14z m6091 -14 c2 -16 -2 -22 -15
-22 -15 0 -15 2 -4 9 13 8 13 12 0 27 -12 15 -12 17 1 12 8 -2 16 -14 18 -26z
m-47 -15 c-8 -8 -11 -7 -11 4 0 9 3 19 7 23 4 4 9 2 11 -4 3 -7 -1 -17 -7 -23z
m-5987 -38 c-30 -33 -49 -40 -69 -25 -16 12 -15 13 11 9 21 -3 35 1 48 16 11
12 21 21 24 21 3 0 -3 -9 -14 -21z m4487 4 c13 -16 12 -17 -3 -4 -10 7 -18 15
-18 17 0 8 8 3 21 -13z m-4451 -46 c0 -2 -10 -12 -22 -23 l-23 -19 19 23 c18
21 26 27 26 19z m5911 -14 c13 -16 12 -17 -3 -4 -10 7 -18 15 -18 17 0 8 8 3
21 -13z m-4584 -25 c-3 -8 -6 -5 -6 6 -1 11 2 17 5 13 3 -3 4 -12 1 -19z
m4658 -18 c-3 -5 -12 -10 -18 -10 -7 0 -6 4 3 10 19 12 23 12 15 0z m-1465
-39 c-6 -12 -15 -21 -19 -21 -11 0 -24 31 -16 38 3 3 5 0 5 -7 0 -8 5 -7 16 4
21 21 29 13 14 -14z m-4572 -16 c-3 -3 -9 2 -12 12 -6 14 -5 15 5 6 7 -7 10
-15 7 -18z m1389 -82 c-3 -10 -5 -4 -5 12 0 17 2 24 5 18 2 -7 2 -21 0 -30z
m-209 0 c3 -22 7 -23 108 -23 92 0 104 -2 104 -17 0 -17 -10 -17 -137 -10 -76
4 -288 9 -472 12 -184 3 -337 8 -340 10 -2 3 159 5 359 5 252 0 361 3 354 10
-7 7 -170 13 -455 17 -244 4 -433 10 -419 14 14 4 221 6 460 5 l435 -1 3 -22z
m4303 -35 c7 -10 9 -9 9 5 0 9 4 17 9 17 4 0 8 -17 7 -39 -1 -25 -5 -37 -13
-34 -6 3 -13 -6 -16 -19 l-4 -23 -8 23 c-4 12 -11 22 -15 22 -5 0 -12 9 -15
20 -5 16 -9 17 -18 8 -9 -10 -10 -86 -5 -313 4 -165 9 -321 12 -347 3 -37 1
-48 -10 -48 -12 0 -14 50 -14 308 0 169 -3 331 -6 360 l-7 52 -406 0 c-223 0
-431 4 -461 8 -46 6 828 21 924 15 16 0 33 -7 37 -15z m-141 -87 c5 -21 9
-103 8 -182 -2 -79 -2 -199 0 -267 2 -89 0 -128 -9 -139 -11 -13 -58 -14 -354
-11 -271 2 -345 6 -358 17 -15 12 -17 47 -17 317 l0 304 360 0 359 0 11 -39z
m-824 -17 c-3 -26 -6 -74 -6 -108 0 -43 -3 -57 -10 -46 -11 17 -13 106 -4 163
10 55 28 47 20 -9z m57 -272 c3 -174 9 -325 12 -335 6 -14 1 -17 -30 -17 -32
0 -36 3 -30 18 5 9 9 157 10 327 2 171 3 313 4 318 1 4 7 7 14 7 11 0 15 -62
20 -318z m-3537 -532 l385 0 -3 320 c-2 176 0 320 3 320 4 0 12 -23 19 -50 9
-36 11 -135 9 -330 l-4 -280 -407 0 -408 0 0 394 c0 216 3 409 8 427 4 19 8
-154 10 -383 l2 -418 386 0z m4523 698 c-1 -19 -2 -19 -6 -5 -5 18 -5 18 -18
0 -13 -17 -14 -17 -10 2 2 11 4 21 4 23 1 1 8 2 16 2 9 0 15 -9 14 -22z
m-4952 -30 c-3 -8 -6 -5 -6 6 -1 11 2 17 5 13 3 -3 4 -12 1 -19z m-6 -27 c7
12 9 12 9 -1 -1 -8 -6 -23 -13 -32 -12 -15 -14 -14 -24 13 -6 16 -7 27 -2 23
5 -3 10 1 10 8 1 7 4 4 6 -6 4 -15 7 -16 14 -5z m3846 -68 c-2 -16 -4 -3 -4
27 0 30 2 43 4 28 2 -16 2 -40 0 -55z m1108 67 c3 -5 -1 -10 -10 -10 -9 0 -13
5 -10 10 3 6 8 10 10 10 2 0 7 -4 10 -10z m-5035 -26 c0 -2 -7 -4 -15 -4 -8 0
-15 4 -15 10 0 5 7 7 15 4 8 -4 15 -8 15 -10z m3906 -51 c-11 -11 -17 4 -9 23
7 18 8 18 11 1 2 -10 1 -21 -2 -24z m-49 -150 c-3 -10 -5 -4 -5 12 0 17 2 24
5 18 2 -7 2 -21 0 -30z m-4030 -65 c-2 -13 -4 -3 -4 22 0 25 2 35 4 23 2 -13
2 -33 0 -45z m1223 34 c0 -4 -11 -9 -26 -10 -15 -1 -23 2 -19 8 4 6 11 8 16 5
5 -4 9 -1 9 5 0 6 5 8 10 5 6 -3 10 -9 10 -13z m-1064 -29 c-10 -10 -19 5 -10
18 6 11 8 11 12 0 2 -7 1 -15 -2 -18z m-91 -16 c15 -4 14 -5 -7 -6 -21 -1 -28
4 -28 17 0 11 3 13 8 6 4 -7 16 -14 27 -17z m195 8 c0 -8 -7 -15 -15 -15 -13
0 -14 3 -3 15 16 18 18 18 18 0z m3757 -32 c-3 -10 -5 -4 -5 12 0 17 2 24 5
18 2 -7 2 -21 0 -30z m-3879 20 c-10 -2 -26 -2 -35 0 -10 3 -2 5 17 5 19 0 27
-2 18 -5z m3876 -54 c8 -8 8 -13 0 -16 -6 -2 -9 -15 -6 -28 2 -15 0 -25 -7
-25 -6 0 -11 5 -11 11 0 6 -10 10 -22 9 -51 -4 -60 8 -37 51 8 15 17 19 41 15
17 -2 36 -10 42 -17z m-2812 -13 c13 -19 9 -26 -17 -26 -14 0 -25 5 -25 12 0
9 -3 9 -12 0 -7 -7 -16 -12 -20 -12 -13 0 -9 38 4 42 19 7 62 -4 70 -16z m48
-30 c0 -5 -7 -3 -15 4 -8 7 -12 17 -9 22 7 10 24 -9 24 -26z m27 12 c-3 -8 -6
-5 -6 6 -1 11 2 17 5 13 3 -3 4 -12 1 -19z m-1187 -29 c0 -16 -4 -29 -8 -29
-12 0 -34 49 -27 60 11 18 35 -3 35 -31z m-73 -26 c-3 -10 -5 -4 -5 12 0 17 2
24 5 18 2 -7 2 -21 0 -30z m-30 -5 c-3 -8 -6 -5 -6 6 -1 11 2 17 5 13 3 -3 4
-12 1 -19z m1166 15 c-7 -2 -19 -2 -25 0 -7 3 -2 5 12 5 14 0 19 -2 13 -5z
m3620 -20 c-89 -2 -237 -2 -330 0 -92 1 -19 3 162 3 182 0 257 -2 168 -3z m15
-20 c-21 -2 -55 -2 -75 0 -21 2 -4 4 37 4 41 0 58 -2 38 -4z m105 0 c-7 -2
-21 -2 -30 0 -10 3 -4 5 12 5 17 0 24 -2 18 -5z m294 -45 c-3 -8 -6 -5 -6 6
-1 11 2 17 5 13 3 -3 4 -12 1 -19z m-1220 -10 c-3 -8 -6 -5 -6 6 -1 11 2 17 5
13 3 -3 4 -12 1 -19z m210 -45 c-2 -16 -4 -5 -4 22 0 28 2 40 4 28 2 -13 2
-35 0 -50z m-3920 33 c4 -3 -30 -6 -75 -6 -45 0 -84 5 -87 10 -7 11 151 7 162
-4z m3940 -8 c-3 -8 -6 -5 -6 6 -1 11 2 17 5 13 3 -3 4 -12 1 -19z m518 2 c-3
-5 -11 -10 -16 -10 -6 0 -7 5 -4 10 3 6 11 10 16 10 6 0 7 -4 4 -10z m401 -12
c19 -23 19 -23 -1 -7 -11 9 -27 19 -35 22 -13 5 -13 6 1 6 9 1 24 -9 35 -21z
m68 -25 c-3 -27 -7 -60 -9 -75 -5 -30 11 -39 18 -10 4 13 5 11 6 -5 1 -17 -5
-23 -20 -23 -11 0 -28 -4 -37 -9 -9 -5 -44 -11 -77 -14 -61 -6 -38 2 47 17 29
5 36 10 32 24 -5 13 -4 14 4 4 14 -20 22 8 22 79 0 32 4 59 10 59 6 0 7 -20 4
-47z m-3926 28 c8 -4 -6 -8 -35 -8 -41 -1 -44 0 -18 7 17 4 32 8 35 9 3 0 11
-3 18 -8z m3800 -13 c0 -13 3 -34 6 -48 5 -16 1 -13 -8 8 -20 42 -34 38 -63
-18 -13 -24 -23 -37 -23 -29 0 23 64 109 81 109 4 0 7 -10 7 -22z m-4935 -5
c-7 -2 -19 -2 -25 0 -7 3 -2 5 12 5 14 0 19 -2 13 -5z m4557 -26 c0 -28 6 -37
39 -55 61 -34 119 -24 133 23 1 6 15 22 30 37 l28 27 0 -35 c0 -49 -27 -103
-63 -124 -27 -17 -51 -18 -249 -15 -121 2 -223 7 -227 10 -3 4 78 5 181 3 103
-2 179 0 168 4 -46 17 -60 40 -60 100 0 32 4 58 10 58 6 0 10 -15 10 -33z m96
-12 c-7 -19 -36 -19 -36 0 0 17 33 38 38 24 2 -5 1 -16 -2 -24z m-3402 6 c-5
-5 -27 -12 -49 -15 l-40 -7 45 19 c45 19 62 20 44 3z m2868 -91 c18 -14 42
-28 53 -32 17 -5 16 -6 -6 -7 -19 -1 -38 11 -68 44 -22 24 -41 50 -41 57 1 7
7 2 14 -12 8 -14 29 -36 48 -50z m868 46 c0 -2 -8 -10 -17 -17 -16 -13 -17
-12 -4 4 13 16 21 21 21 13z m-530 -24 c0 -11 10 -24 23 -30 21 -10 21 -11 2
-11 -12 -1 -26 4 -33 11 -15 15 -16 48 -2 48 6 0 10 -8 10 -18z m-3500 -124
c-13 -76 -8 -114 22 -155 l20 -28 -26 28 c-33 35 -42 86 -27 162 6 34 12 75
12 91 l2 29 5 -30 c2 -16 -1 -60 -8 -97z m2903 110 c13 1 17 -7 17 -34 0 -31
-19 -51 -21 -21 0 9 -2 9 -5 0 -5 -12 -34 -6 -45 9 -3 5 -4 21 -1 34 3 19 9
23 21 18 9 -4 24 -6 34 -6z m-2548 -8 c3 -5 1 -10 -4 -10 -6 0 -11 5 -11 10 0
6 2 10 4 10 3 0 8 -4 11 -10z m2582 -42 c-2 -13 -4 -5 -4 17 -1 22 1 32 4 23
2 -10 2 -28 0 -40z m-2607 23 c0 -5 -9 -7 -20 -4 -11 3 -20 7 -20 9 0 2 9 4
20 4 11 0 20 -4 20 -9z m-102 -71 c-4 -35 -1 -53 8 -61 11 -9 14 -8 15 2 0 10
2 11 6 2 6 -15 42 -17 63 -3 11 7 7 10 -20 11 -31 2 -32 2 -7 6 16 3 35 -1 42
-7 10 -8 28 -10 52 -5 28 5 35 4 27 -4 -6 -6 -51 -13 -102 -16 -81 -4 -91 -3
-96 13 -13 41 -63 74 -123 82 -45 6 -50 8 -23 10 85 5 134 11 139 15 16 16 23
-1 19 -45z m-564 31 c3 -4 -13 -13 -35 -20 -25 -8 -58 -30 -86 -59 -25 -26
-41 -38 -35 -26 16 31 73 85 107 100 36 16 42 17 49 5z m3013 -13 c-3 -8 -6
-5 -6 6 -1 11 2 17 5 13 3 -3 4 -12 1 -19z m-3647 -4 c0 -2 -7 -4 -15 -4 -8 0
-15 4 -15 10 0 5 7 7 15 4 8 -4 15 -8 15 -10z m104 8 c2 -4 -5 -9 -17 -9 -17
-2 -19 0 -7 7 18 12 18 12 24 2z m837 -49 c-12 -20 -14 -14 -5 12 4 9 9 14 11
11 3 -2 0 -13 -6 -23z m197 -20 c15 -16 19 -21 7 -12 -11 9 -29 21 -40 27 -11
6 -14 12 -8 12 7 0 25 -12 41 -27z m2819 -25 c-2 -13 -4 -5 -4 17 -1 22 1 32
4 23 2 -10 2 -28 0 -40z m-86 32 c5 0 9 -23 9 -52 0 -50 -12 -57 -23 -13 -3
11 -6 2 -5 -20 0 -73 -2 -95 -9 -95 -5 0 -8 43 -8 95 0 75 3 94 13 90 8 -3 18
-5 23 -5z m296 4 c-3 -3 -12 -4 -19 -1 -8 3 -5 6 6 6 11 1 17 -2 13 -5z
m-4127 -77 c-7 -17 -9 -10 -9 28 1 43 2 46 9 22 5 -16 5 -38 0 -50z m3857 6
c-2 -16 -4 -5 -4 22 0 28 2 40 4 28 2 -13 2 -35 0 -50z m200 20 c-3 -10 -5 -4
-5 12 0 17 2 24 5 18 2 -7 2 -21 0 -30z m-17 11 c0 -2 -15 -4 -32 -4 -23 0
-29 3 -19 9 12 8 51 4 51 -5z m-3759 -8 c6 3 7 -6 3 -23 l-6 -28 16 23 c12 15
27 22 52 22 20 0 34 5 35 13 0 9 2 9 5 0 7 -15 -33 -161 -51 -189 -7 -11 -15
-29 -18 -40 -2 -10 -3 -8 -2 6 2 14 6 35 10 47 5 16 2 23 -14 28 -12 3 -21 13
-21 21 0 8 -10 15 -22 15 -17 1 -18 3 -6 6 16 4 16 6 2 28 -9 13 -12 30 -8 36
4 7 3 9 -3 6 -6 -4 -17 1 -24 10 -12 15 -12 16 3 11 10 -4 19 0 23 10 5 12 9
13 12 4 3 -6 9 -9 14 -6z m536 -45 c8 -58 10 -152 2 -156 -4 -3 -14 3 -21 13
-7 10 -23 24 -34 30 -17 9 -25 8 -37 -6 -11 -12 -13 -22 -7 -32 8 -12 10 -10
10 8 0 12 5 22 10 22 6 0 10 -12 10 -27 0 -14 8 -35 18 -46 16 -19 15 -21 -28
-58 -53 -46 -83 -53 -193 -47 -77 4 -79 4 -42 -8 49 -15 100 -17 143 -5 36 11
39 9 16 -13 -23 -23 -137 -21 -190 3 -43 20 -65 41 -42 41 8 0 6 4 -4 11 -40
23 -42 47 -7 120 18 38 41 71 50 74 9 3 72 12 139 20 87 10 128 11 142 4 11
-6 26 -8 35 -5 11 4 13 2 10 -9 -4 -8 -2 -17 3 -20 5 -3 7 14 4 37 -13 117
-13 114 -2 93 6 -10 13 -30 15 -44z m3298 49 c3 -5 1 -10 -4 -10 -6 0 -11 5
-11 10 0 6 2 10 4 10 3 0 8 -4 11 -10z m-3918 -6 c-3 -3 -12 -4 -19 -1 -8 3
-5 6 6 6 11 1 17 -2 13 -5z m3962 -33 c-1 -20 -5 -47 -10 -61 -6 -18 -7 -12
-4 25 3 35 2 44 -4 30 -5 -11 -10 -32 -10 -47 -1 -16 -5 -28 -10 -28 -13 0
-21 52 -10 72 6 11 5 18 -4 21 -7 3 -5 6 6 6 9 1 17 5 17 9 0 5 7 9 15 9 11 0
15 -11 14 -36z m-3738 -8 c-12 -20 -14 -14 -5 12 4 9 9 14 11 11 3 -2 0 -13
-6 -23z m654 17 c3 -5 1 -10 -4 -10 -6 0 -11 5 -11 10 0 6 2 10 4 10 3 0 8 -4
11 -10z m2932 -22 c-3 -7 -5 -2 -5 12 0 14 2 19 5 13 2 -7 2 -19 0 -25z m-220
-25 c-3 -10 -5 -2 -5 17 0 19 2 27 5 18 2 -10 2 -26 0 -35z m1140 41 c-3 -3
-12 -4 -19 -1 -8 3 -5 6 6 6 11 1 17 -2 13 -5z m-4801 -21 c-3 -8 -6 -19 -6
-25 0 -6 -8 0 -18 12 l-17 21 -30 -21 -30 -22 27 25 c29 27 83 35 74 10z
m4732 0 c-15 -9 -31 -26 -37 -37 -5 -12 -10 -15 -10 -8 -1 7 -7 10 -13 7 -7
-4 3 7 22 24 19 17 41 31 50 31 9 0 5 -7 -12 -17z m-941 -55 c-2 -13 -4 -5 -4
17 -1 22 1 32 4 23 2 -10 2 -28 0 -40z m-2677 -29 c12 -22 12 -23 -3 -11 -18
16 -38 67 -29 77 4 3 9 -4 13 -17 3 -14 12 -35 19 -49z m-1382 26 c0 -24 -5
-35 -14 -35 -11 0 -13 7 -8 28 13 53 22 56 22 7z m1557 -5 c16 -32 22 -76 6
-51 -7 11 -10 10 -14 -5 -3 -10 -3 -1 -1 21 4 30 3 36 -5 25 -6 -8 -11 -12
-11 -8 0 4 -18 1 -39 -7 -42 -14 -51 -12 -51 15 0 22 67 35 89 17 12 -10 14
-9 8 6 -10 27 1 20 18 -13z m3035 26 c0 -2 -8 -10 -17 -17 -16 -13 -17 -12 -4
4 13 16 21 21 21 13z m-4306 -76 c4 -24 3 -29 -3 -15 -4 11 -11 36 -15 55 -4
24 -3 29 3 15 4 -11 11 -36 15 -55z m4638 56 c15 -8 40 -17 56 -21 16 -3 44
-19 63 -36 l34 -29 -38 24 c-21 14 -52 28 -70 31 -18 4 -37 12 -44 17 -20 16
-90 -2 -141 -35 -66 -45 -108 -128 -106 -213 3 -129 75 -224 181 -240 38 -5
55 -2 104 22 36 17 67 40 79 58 11 17 20 26 20 19 0 -24 -60 -80 -105 -98 -43
-16 -54 -16 -157 -3 -9 1 -14 7 -11 12 4 5 -1 7 -11 3 -11 -5 -15 -3 -10 5 5
7 2 9 -9 5 -10 -4 -26 6 -47 30 -35 40 -45 61 -70 152 -16 55 -16 69 -5 102
16 45 40 84 74 122 13 15 21 27 16 27 -5 0 2 11 15 25 13 14 28 25 33 25 5 0
-2 -10 -17 -21 -39 -31 -25 -35 21 -6 65 41 100 46 145 23z m252 -23 c-3 -16
-9 -111 -13 -213 l-8 -185 -1 213 c-2 181 0 212 13 212 11 0 13 -7 9 -27z
m-1177 -5 c-3 -8 -6 -5 -6 6 -1 11 2 17 5 13 3 -3 4 -12 1 -19z m380 -10 c-3
-7 -5 -2 -5 12 0 14 2 19 5 13 2 -7 2 -19 0 -25z m-4214 2 c3 -11 1 -20 -4
-20 -5 0 -9 9 -9 20 0 11 2 20 4 20 2 0 6 -9 9 -20z m260 8 c9 -28 -5 -48 -35
-48 -24 0 -27 2 -16 14 7 8 15 10 16 5 8 -20 24 -7 20 16 -5 25 7 35 15 13z
m98 -19 c-5 -13 -10 -19 -10 -12 -1 15 10 45 15 40 3 -2 0 -15 -5 -28z m4122
14 c-5 -12 -3 -14 7 -8 8 5 5 -5 -6 -24 -23 -39 -41 -56 -41 -38 0 6 -3 23 -6
37 -4 14 -4 19 -1 12 4 -9 12 -5 26 13 23 29 30 32 21 8z m-466 -25 c-3 -7 -5
-2 -5 12 0 14 2 19 5 13 2 -7 2 -19 0 -25z m488 -23 c-15 -26 -29 -44 -31 -42
-3 3 6 22 21 42 14 21 25 42 25 48 0 6 3 8 6 4 4 -3 -6 -27 -21 -52z m-505 27
c0 -13 -12 -22 -22 -16 -10 6 -1 24 13 24 5 0 9 -4 9 -8z m412 -22 c-5 -35
-38 -43 -38 -10 0 11 6 20 13 20 7 0 13 5 13 10 0 6 4 10 8 10 5 0 7 -13 4
-30z m-106 -9 c14 11 15 10 12 -7 -1 -10 -9 -26 -17 -34 -12 -13 -11 -16 10
-22 23 -7 23 -7 -3 -4 -22 2 -29 -3 -44 -36 -9 -21 -19 -36 -21 -34 -3 3 7 28
21 57 15 28 24 54 21 58 -4 3 -11 -2 -16 -12 -6 -9 -15 -17 -20 -17 -6 0 -7 6
-3 13 4 6 -1 5 -12 -4 -22 -19 -106 -43 -126 -37 -7 3 4 8 24 12 40 7 78 45
78 77 0 18 2 18 40 -2 34 -18 43 -19 56 -8z m460 14 c16 -8 38 -15 49 -16 l20
0 -20 -10 c-17 -8 -16 -9 8 -6 33 5 35 0 5 -13 -22 -8 -21 -9 7 -10 30 -2 30
-2 5 -10 -24 -8 -24 -8 -2 -9 12 -1 22 -6 22 -12 0 -6 -6 -9 -13 -6 -8 3 -19
2 -26 -2 -7 -5 0 -8 18 -9 17 0 31 4 31 9 0 15 17 10 24 -6 3 -8 2 -14 -2 -14
-4 1 -25 0 -47 -1 l-40 -3 45 -7 45 -7 -45 -3 c-26 -1 -35 -5 -22 -7 12 -2 22
-11 22 -19 0 -8 11 -15 28 -15 24 -2 23 -2 -8 -9 -23 -5 -27 -8 -12 -9 12 0
22 -5 22 -11 0 -5 9 -10 20 -10 16 0 20 -6 19 -32 0 -35 -17 -86 -18 -58 -1 8
-10 0 -21 -18 -13 -20 -38 -41 -65 -53 -39 -17 -52 -18 -112 -9 -77 13 -133
36 -133 56 0 22 -1 28 -11 47 -7 12 -6 17 3 17 7 0 5 5 -5 13 -12 8 -16 23
-13 52 2 22 4 55 5 73 0 19 5 31 11 27 6 -3 7 1 4 10 -8 20 11 42 65 77 50 31
94 36 137 13z m-4489 -27 c-3 -7 -5 -2 -5 12 0 14 2 19 5 13 2 -7 2 -19 0 -25z
m-460 -30 c-2 -13 -4 -5 -4 17 -1 22 1 32 4 23 2 -10 2 -28 0 -40z m1550 46
c-3 -3 -12 -4 -19 -1 -8 3 -5 6 6 6 11 1 17 -2 13 -5z m-497 -101 c-6 -48 -13
-116 -15 -150 -3 -61 -2 -63 21 -63 13 0 24 4 24 9 0 6 16 7 35 4 40 -6 40 -8
0 71 -14 27 -25 61 -24 75 1 19 4 15 10 -15 l10 -41 77 4 c56 3 80 9 90 21 21
27 14 -6 -13 -64 -14 -29 -33 -55 -42 -57 -10 -3 9 -5 42 -6 71 -1 78 6 95 98
11 60 7 101 -10 101 -4 0 -16 12 -25 28 l-18 27 22 -19 c36 -32 37 -8 1 29
-27 28 -30 35 -16 35 27 0 75 -32 84 -55 4 -11 7 -65 7 -120 0 -106 -3 -101
49 -96 7 0 17 11 21 24 6 20 7 19 15 -11 8 -34 20 -54 20 -34 0 7 8 12 18 12
14 0 15 -2 2 -10 -11 -7 -4 -10 27 -10 38 0 43 3 42 23 -1 29 6 58 13 55 3 -2
12 3 22 11 21 18 31 8 17 -17 -6 -12 -11 -32 -11 -46 0 -23 4 -26 33 -26 80 0
77 6 77 -169 0 -190 15 -358 41 -459 10 -41 20 -76 22 -78 1 -1 82 -4 179 -5
164 -4 178 -5 178 -22 0 -12 -4 -15 -12 -11 -6 4 -42 8 -80 9 -64 1 -68 0 -63
-19 6 -20 5 -20 -14 2 -17 20 -28 22 -109 22 -88 0 -90 0 -85 -22 3 -18 2 -20
-6 -7 -18 27 -51 215 -51 288 0 39 -4 71 -9 71 -5 0 -7 81 -5 190 l4 191 -21
-12 c-17 -9 -20 -8 -14 2 6 9 3 11 -8 6 -9 -3 -67 -7 -129 -8 -62 0 -134 -5
-160 -9 -26 -4 -49 -3 -50 1 -2 4 -160 9 -351 12 -191 2 -350 7 -353 9 -2 3
-2 12 1 20 5 11 27 15 102 16 l97 1 38 38 c48 47 144 188 154 226 13 55 16 16
4 -70z m2694 78 c-12 -11 -94 -19 -94 -9 0 5 20 8 45 8 28 0 45 5 45 12 0 6 3
8 7 5 4 -4 2 -11 -3 -16z m-3427 -38 c-3 -10 -5 -2 -5 17 0 19 2 27 5 18 2
-10 2 -26 0 -35z m133 14 c0 -7 -7 -22 -15 -33 -13 -17 -14 -16 -4 14 11 33
19 41 19 19z m793 -4 c-2 -7 2 -12 8 -10 6 1 13 -3 16 -9 4 -12 -86 -12 -105
0 -6 3 -14 1 -18 -5 -4 -8 -3 -9 4 -5 7 4 12 2 12 -4 0 -7 -6 -10 -12 -8 -7 3
-20 -5 -30 -16 -10 -12 -17 -16 -17 -11 0 17 43 63 69 74 33 13 76 9 73 -6z
m2582 -10 c-114 -7 -215 -7 -215 -1 0 8 217 16 240 8 8 -3 -3 -6 -25 -7z
m1272 -35 c-2 -13 -4 -5 -4 17 -1 22 1 32 4 23 2 -10 2 -28 0 -40z m-1002 27
c6 -2 -30 -3 -80 -3 -52 0 -79 3 -65 7 23 7 122 4 145 -4z m-2395 -25 c0 -5
-7 -7 -15 -4 -8 4 -12 10 -9 15 6 11 24 2 24 -11z m1870 10 c0 -5 -4 -10 -10
-10 -5 0 -10 5 -10 10 0 6 5 10 10 10 6 0 10 -4 10 -10z m1067 4 c-3 -3 -12
-4 -19 -1 -8 3 -5 6 6 6 11 1 17 -2 13 -5z m-607 -24 c0 -3 28 -4 62 -2 l63 3
-2 -285 -1 -286 -159 -2 c-287 -4 -383 0 -383 17 0 11 -7 14 -22 11 -58 -12
-156 -15 -187 -6 -43 12 -81 47 -80 74 0 15 2 16 6 6 12 -33 23 -39 53 -29 20
7 33 23 44 50 21 51 51 51 51 1 0 -17 1 -32 3 -32 9 0 48 24 54 34 6 8 8 8 8
-1 0 -12 -11 -24 -50 -56 -24 -20 -71 -26 -110 -14 -24 8 -24 7 -6 -7 23 -19
75 -20 163 -5 62 11 63 12 63 43 1 17 1 132 1 255 0 123 2 227 4 232 6 8 425
7 425 -1z m-2813 -6 c-3 -3 -12 -4 -19 -1 -8 3 -5 6 6 6 11 1 17 -2 13 -5z
m226 -34 c4 -17 3 -19 -9 -9 -8 6 -14 18 -14 26 0 20 16 8 23 -17z m2940 23
c-18 -2 -48 -2 -65 0 -18 2 -4 4 32 4 36 0 50 -2 33 -4z m-136 -9 c-3 -3 -12
-4 -19 -1 -8 3 -5 6 6 6 11 1 17 -2 13 -5z m-2960 -26 c-3 -8 -6 -5 -6 6 -1
11 2 17 5 13 3 -3 4 -12 1 -19z m3820 -20 c-3 -7 -5 -2 -5 12 0 14 2 19 5 13
2 -7 2 -19 0 -25z m-4992 -56 c20 -22 69 -53 111 -72 79 -37 92 -55 44 -65
-29 -6 -52 -25 -31 -25 5 0 8 -9 6 -20 -2 -11 0 -20 5 -20 4 0 6 -9 3 -20 -6
-22 -28 -27 -39 -9 -3 6 0 16 7 21 11 8 10 9 -3 5 -9 -3 -19 1 -22 9 -7 18
-56 18 -81 0 -14 -10 -19 -25 -19 -55 1 -31 -2 -39 -11 -31 -7 6 -17 68 -25
154 -16 182 -11 195 55 128z m1439 19 c3 -4 -8 -8 -23 -7 -16 1 -27 4 -24 9 6
10 41 9 47 -2z m186 -61 l-8 -35 -1 31 c-1 17 2 34 6 37 11 12 12 3 3 -33z
m3406 -107 c-3 -3 -12 -3 -21 0 -16 7 -21 47 -5 47 6 0 11 24 11 53 2 50 2 50
11 -22 5 -40 7 -76 4 -78z m-5139 35 c-2 -18 -4 -4 -4 32 0 36 2 50 4 33 2
-18 2 -48 0 -65z m4334 73 c15 26 19 2 8 -57 -12 -69 -25 -88 -35 -50 -4 18
-13 26 -28 26 -11 0 -28 5 -36 10 -13 8 -12 10 5 11 11 1 25 1 32 0 6 -1 15 4
19 10 5 8 3 9 -5 4 -9 -5 -12 -2 -9 11 2 11 10 18 16 17 7 -2 12 5 13 15 0 12
2 13 6 3 4 -11 7 -11 14 0z m-3021 -11 c0 -5 -4 -10 -10 -10 -5 0 -10 5 -10
10 0 6 5 10 10 10 6 0 10 -4 10 -10z m-880 -37 c-11 -17 -11 -17 -6 0 3 10 6
24 7 30 0 9 2 9 5 0 3 -7 0 -20 -6 -30z m2986 -65 c-15 -29 -39 -66 -52 -83
l-25 -30 14 33 c17 40 80 141 86 136 2 -2 -8 -28 -23 -56z m-3052 14 c-4 -15
-11 -31 -17 -37 -6 -7 -8 -2 -3 15 3 14 6 33 6 43 0 10 5 15 10 12 6 -3 7 -18
4 -33z m680 18 c165 0 296 -4 290 -8 -14 -12 -664 -2 -664 10 0 7 14 8 38 4
20 -3 172 -6 336 -6z m3159 3 c-7 -2 -19 -2 -25 0 -7 3 -2 5 12 5 14 0 19 -2
13 -5z m954 -25 c-3 -7 -5 -2 -5 12 0 14 2 19 5 13 2 -7 2 -19 0 -25z m-3333
-47 c-8 -8 -33 34 -34 54 0 14 5 10 19 -15 10 -19 17 -37 15 -39z m2410 61 c3
-5 -1 -9 -9 -9 -8 0 -12 4 -9 9 3 4 7 8 9 8 2 0 6 -4 9 -8z m-2590 -35 c3 -12
6 -37 6 -54 0 -30 3 -33 33 -35 l32 -1 -32 -4 -33 -4 0 -85 0 -84 33 -2 32 -1
-32 -4 c-39 -5 -47 -25 -38 -96 5 -43 4 -49 -7 -37 -33 39 -77 60 -127 60 -55
0 -160 -34 -162 -53 -1 -7 -5 2 -9 18 -10 39 -12 198 -4 312 l7 90 147 1 c145
1 148 1 154 -21z m2551 13 c3 -5 1 -10 -4 -10 -6 0 -11 5 -11 10 0 6 2 10 4
10 3 0 8 -4 11 -10z m-3861 -79 c-4 -17 -9 -30 -11 -27 -3 2 -2 19 2 36 9 41
17 33 9 -9z m206 -14 c0 -24 3 -28 10 -17 6 10 10 -17 13 -85 l3 -100 2 118
c1 64 6 117 10 117 5 0 12 -150 15 -332 22 -1119 22 -1032 1 -1024 -10 4 -55
14 -99 22 -134 23 -288 68 -391 115 -57 25 -83 49 -54 49 15 0 53 48 57 71 2
12 14 30 28 41 14 11 22 24 19 29 -3 6 3 13 15 16 12 3 21 9 21 13 0 17 46 80
63 85 9 4 17 10 17 15 0 5 18 28 40 51 22 23 40 46 40 51 0 5 9 21 21 37 13
18 20 43 20 72 1 49 19 101 33 96 6 -2 21 -35 35 -73 35 -94 43 -106 51 -74 4
14 5 172 2 353 -2 180 -1 343 2 363 8 42 26 36 26 -9z m4040 -11 c-30 -49 -37
-46 -9 4 12 22 25 38 27 35 2 -2 -6 -20 -18 -39z m60 34 c0 -5 -2 -10 -4 -10
-3 0 -8 5 -11 10 -3 6 -1 10 4 10 6 0 11 -4 11 -10z m-4355 -152 c-14 -45 -46
-132 -69 -193 -24 -60 -49 -132 -56 -160 l-13 -50 -73 -1 c-43 0 -75 4 -77 10
-2 6 -1 39 2 73 5 52 8 61 21 53 8 -5 27 -10 42 -10 30 0 41 -12 46 -50 2 -14
7 -26 13 -28 5 -2 9 -11 10 -20 0 -9 20 44 44 118 121 372 130 396 133 368 2
-15 -9 -64 -23 -110z m-95 119 c0 -22 -23 -37 -57 -37 -40 0 -42 10 -5 32 33
20 62 22 62 5z m4983 -4 c-7 -2 -19 -2 -25 0 -7 3 -2 5 12 5 14 0 19 -2 13 -5z
m-398 -70 c11 -7 14 -13 8 -13 -7 0 -14 4 -17 9 -3 5 -15 7 -26 4 -14 -4 -20
0 -20 11 0 17 20 13 55 -11z m73 -5 c-3 -7 -13 -15 -24 -17 -16 -3 -17 -1 -5
13 16 19 34 21 29 4z m-156 -45 c3 -28 4 -28 73 -26 56 1 63 0 35 -7 -19 -4
-56 -10 -82 -13 l-48 -4 0 39 c0 43 17 52 22 11z m278 -15 c-1 -30 -19 -68
-33 -68 -5 0 0 61 9 88 7 25 24 11 24 -20z m27 10 c-3 -8 -6 -5 -6 6 -1 11 2
17 5 13 3 -3 4 -12 1 -19z m30 0 c-3 -8 -6 -5 -6 6 -1 11 2 17 5 13 3 -3 4
-12 1 -19z m-368 -22 c-2 -1 -26 0 -54 3 l-50 5 50 6 c28 3 52 1 54 -3 1 -5 1
-9 0 -11z m478 -28 c-2 -13 -4 -5 -4 17 -1 22 1 32 4 23 2 -10 2 -28 0 -40z
m-270 36 c-3 -3 -12 -4 -19 -1 -8 3 -5 6 6 6 11 1 17 -2 13 -5z m311 -34 c14
0 15 -2 2 -9 -20 -14 -30 -4 -29 27 2 24 2 24 6 5 2 -13 12 -23 21 -23z
m-4443 -30 c17 -8 51 -22 77 -31 l48 -16 -84 -51 c-47 -29 -87 -52 -90 -52 -3
0 -6 48 -6 108 0 93 2 104 13 82 7 -14 26 -32 42 -40z m4302 54 c-3 -3 -12 -4
-19 -1 -8 3 -5 6 6 6 11 1 17 -2 13 -5z m-4587 -24 c0 -11 -2 -20 -4 -20 -2 0
-6 9 -9 20 -3 11 -1 20 4 20 5 0 9 -9 9 -20z m4153 -7 c-7 -2 -21 -2 -30 0
-10 3 -4 5 12 5 17 0 24 -2 18 -5z m-4576 -34 c2 -17 -1 -18 -13 -8 -13 11
-10 20 11 29 1 0 1 -9 2 -21z m398 1 c3 -6 -1 -7 -9 -4 -18 7 -21 14 -7 14 6
0 13 -4 16 -10z m4745 -170 c-1 -113 -5 -170 -12 -170 -8 0 -9 31 -5 98 4 53
7 130 7 170 0 39 2 72 5 72 3 0 5 -76 5 -170z m-4697 153 c-7 -2 -19 -2 -25 0
-7 3 -2 5 12 5 14 0 19 -2 13 -5z m1546 -78 c21 -39 13 -62 -12 -35 -9 10 -9
11 1 6 7 -5 12 -1 12 9 0 9 -4 13 -10 10 -5 -3 -10 -1 -10 4 0 19 -2 26 -12
46 -7 14 -7 17 0 10 5 -5 19 -28 31 -50z m2948 23 c-3 -7 -5 -2 -5 12 0 14 2
19 5 13 2 -7 2 -19 0 -25z m-417 8 c0 -11 -19 -15 -25 -6 -3 5 1 10 9 10 9 0
16 -2 16 -4z m397 -28 c-3 -7 -5 -2 -5 12 0 14 2 19 5 13 2 -7 2 -19 0 -25z
m-3367 9 c9 -7 25 -25 38 -41 20 -26 22 -39 22 -167 l0 -139 -137 0 c-76 0
-144 4 -152 9 -11 7 -13 33 -9 133 6 137 19 177 66 202 33 18 151 20 172 3z
m2960 -34 c0 -41 -16 -61 -22 -29 -3 15 -1 29 4 32 4 3 6 10 3 15 -4 5 -1 9 4
9 6 0 11 -12 11 -27z m207 21 c-3 -3 -12 -4 -19 -1 -8 3 -5 6 6 6 11 1 17 -2
13 -5z m-58 -59 c-13 -25 -27 -45 -31 -45 -4 0 -15 11 -24 25 -9 14 -24 25
-33 26 -13 0 -13 2 -2 6 9 4 24 -6 37 -22 l22 -28 13 36 c7 20 16 34 21 31 4
-3 8 3 8 12 0 10 3 14 6 11 4 -4 -4 -27 -17 -52z m111 40 c0 -8 -4 -15 -10
-15 -5 0 -7 7 -4 15 4 8 8 15 10 15 2 0 4 -7 4 -15z m47 9 c-3 -3 -12 -4 -19
-1 -8 3 -5 6 6 6 11 1 17 -2 13 -5z m-103 -10 c22 -8 20 -19 -4 -21 -11 -1
-20 4 -20 13 0 16 2 16 24 8z m289 -1 c-7 -2 -21 -2 -30 0 -10 3 -4 5 12 5 17
0 24 -2 18 -5z m-3340 -18 c-3 -9 -8 -14 -10 -11 -3 3 -2 9 2 15 9 16 15 13 8
-4z m3173 -8 c9 3 6 -5 -9 -21 -29 -31 -42 -34 -27 -6 8 16 8 20 -4 20 -9 0
-13 6 -10 15 5 13 8 13 20 0 8 -8 22 -11 30 -8z m61 -49 c-2 -13 -4 -3 -4 22
0 25 2 35 4 23 2 -13 2 -33 0 -45z m-392 -5 c14 -31 14 -43 0 -43 -7 0 -15 14
-17 30 -5 33 5 40 17 13z m65 13 c0 -2 -9 -6 -20 -9 -11 -3 -18 -1 -14 4 5 9
34 13 34 5z m-735 -26 c-10 -11 -23 -20 -28 -20 -6 0 -2 9 8 20 10 11 23 20
28 20 6 0 2 -9 -8 -20z m96 3 c13 -17 13 -17 -6 -3 -11 8 -22 16 -24 17 -2 2
0 3 6 3 6 0 17 -8 24 -17z m549 -8 c0 -9 -9 -15 -22 -14 -17 1 -19 2 -5 6 9 2
17 9 17 14 0 5 2 9 5 9 3 0 5 -7 5 -15z m140 0 c4 3 6 -4 3 -15 -7 -25 -23
-16 -22 13 0 12 3 16 6 9 2 -6 8 -10 13 -7z m347 9 c-3 -3 -12 -4 -19 -1 -8 3
-5 6 6 6 11 1 17 -2 13 -5z m-383 -30 c3 -8 1 -14 -4 -14 -6 0 -10 5 -10 10 0
6 -9 10 -20 10 -11 0 -20 4 -20 9 0 13 48 0 54 -15z m186 -3 c0 -9 -4 -22 -9
-30 -6 -9 -10 -3 -13 22 -3 25 0 33 9 30 7 -3 13 -13 13 -22z m-2970 -15 c0 5
4 3 9 -4 7 -11 16 -11 55 2 26 9 53 16 60 16 22 0 14 -25 -8 -26 -12 -1 -43
-5 -71 -9 -49 -7 -50 -6 -68 27 l-18 33 20 -24 c12 -13 21 -19 21 -15z m2909
1 c-1 -20 -2 -20 -9 3 l-8 25 -1 -27 c-1 -19 4 -28 14 -28 14 0 20 13 15 35
-1 6 3 6 10 -1 17 -17 1 -46 -24 -42 -22 3 -32 28 -22 54 8 21 26 7 25 -19z
m-2869 8 c0 -8 -4 -15 -8 -15 -5 0 -9 7 -9 15 0 8 4 15 9 15 4 0 8 -7 8 -15z
m2060 4 c0 -5 4 -8 8 -5 4 2 9 -7 10 -22 1 -14 7 -29 12 -32 19 -12 -25 -50
-57 -50 -39 0 -64 28 -61 69 3 44 18 50 18 8 0 -39 23 -56 47 -35 11 9 16 9
24 -3 6 -10 8 -7 5 11 -3 14 -5 31 -5 38 -1 18 -28 15 -35 -4 -4 -9 -9 -14
-13 -10 -7 7 25 46 39 46 4 0 8 -5 8 -11z m1257 -76 c-3 -10 -5 -2 -5 17 0 19
2 27 5 18 2 -10 2 -26 0 -35z m-169 12 c-3 -3 -9 2 -12 12 -6 14 -5 15 5 6 7
-7 10 -15 7 -18z m-5071 -52 c-2 -16 -4 -5 -4 22 0 28 2 40 4 28 2 -13 2 -35
0 -50z m5110 52 c0 -8 -4 -12 -9 -9 -4 3 -8 9 -8 15 0 5 4 9 8 9 5 0 9 -7 9
-15z m-403 -7 c-3 -4 -13 -8 -22 -8 -13 0 -14 -2 -4 -9 11 -6 10 -10 -4 -15
-10 -4 -15 -4 -12 0 4 4 3 15 -2 25 -9 15 -6 18 20 17 16 -1 27 -5 24 -10z
m333 6 c-3 -3 -12 -4 -19 -1 -8 3 -5 6 6 6 11 1 17 -2 13 -5z m-1147 -29 c14
-19 14 -19 -2 -6 -10 7 -18 18 -18 24 0 6 1 8 3 6 1 -2 9 -13 17 -24z m150 6
c0 -5 -7 -12 -16 -15 -14 -5 -15 -4 -4 9 14 17 20 19 20 6z m963 2 c-18 -2
-33 -9 -33 -14 0 -6 28 -7 75 -3 53 5 75 3 75 -5 0 -7 -21 -11 -57 -11 -75 0
-129 -15 -147 -42 -9 -13 -21 -18 -31 -14 -9 3 -13 2 -10 -4 6 -9 -68 -12
-412 -15 -34 0 -47 4 -48 15 -2 13 17 15 124 15 69 0 132 4 140 10 11 7 13 7
7 -2 -5 -10 11 -13 68 -13 44 0 76 4 76 10 0 6 5 10 12 10 7 0 27 15 46 33 27
25 32 27 23 10 -12 -24 2 -33 16 -10 14 21 47 36 78 35 l30 -1 -32 -4z m-4966
-85 c-2 -13 -4 -3 -4 22 0 25 2 35 4 23 2 -13 2 -33 0 -45z m2090 25 c62 -54
142 -133 134 -133 -4 0 -17 9 -28 19 -12 11 -23 18 -25 16 -2 -2 -14 6 -28 17
l-25 20 28 -16 c15 -9 27 -12 27 -7 0 6 -10 16 -22 22 -25 13 -121 99 -111 99
3 0 26 -17 50 -37z m8 17 c10 -11 16 -20 13 -20 -3 0 -13 9 -23 20 -10 11 -16
20 -13 20 3 0 13 -9 23 -20z m80 -26 c22 -20 31 -31 20 -26 -11 6 -29 20 -39
31 -11 12 -25 21 -32 21 -7 0 -15 4 -18 9 -13 20 31 -3 69 -35z m897 -24 c-11
-33 -26 -56 -35 -58 -25 -5 -21 13 15 74 39 64 45 59 20 -16z m2108 60 c0 -7
-14 -8 -37 -4 -52 9 -54 14 -5 14 23 0 42 -5 42 -10z m-1616 -9 c4 -5 -4 -7
-16 -4 -25 6 12 -29 126 -121 34 -26 63 -50 64 -51 2 -2 -14 -27 -36 -57 -50
-68 -65 -96 -56 -110 4 -6 3 -8 -2 -5 -12 7 -107 -160 -99 -173 3 -6 1 -18 -5
-27 -9 -15 -10 -14 -4 7 8 31 -7 16 -24 -22 -7 -17 -8 -28 -2 -28 6 0 10 -5
10 -11 0 -6 -7 -9 -15 -5 -17 6 -50 -48 -41 -70 3 -7 0 -13 -6 -11 -6 1 -16
-13 -21 -30 -5 -18 -14 -33 -18 -33 -5 0 -9 -12 -9 -26 0 -14 -4 -23 -9 -19
-5 3 -12 -4 -16 -15 -8 -26 -45 -61 -56 -54 -5 3 -6 -3 -2 -12 4 -12 3 -15 -5
-10 -7 4 -12 1 -12 -7 0 -21 -106 -212 -117 -210 -5 1 -35 -40 -66 -92 -57
-93 -97 -132 -120 -119 -7 4 -9 4 -5 -1 5 -5 -8 -19 -27 -32 -41 -28 -45 -28
-45 -5 1 21 29 73 30 53 0 -11 5 -10 20 4 11 10 20 15 20 11 0 -4 7 -1 15 8 9
8 22 13 29 10 17 -7 28 19 32 81 3 40 2 45 -6 26 -7 -16 -16 -22 -30 -18 -26
7 -43 -8 -74 -67 -15 -27 -38 -65 -51 -84 -13 -19 -22 -39 -19 -44 3 -4 -16
-37 -41 -74 -25 -36 -50 -76 -55 -89 -6 -17 -15 -23 -30 -20 -11 2 -18 0 -16
-4 3 -4 -3 -15 -14 -24 -18 -15 -20 -13 -47 21 -31 41 -149 216 -165 246 -7
13 -7 16 1 12 6 -4 11 -1 11 7 0 8 16 32 36 53 19 22 65 87 102 146 36 59 70
104 74 102 4 -3 8 -1 8 5 0 6 21 36 46 66 25 31 50 70 56 86 5 16 15 29 22 29
6 0 31 32 55 70 24 39 49 76 55 83 7 7 23 34 35 60 13 27 30 51 37 54 8 3 11
9 8 14 -3 5 0 9 5 9 6 0 11 7 11 15 0 8 5 15 10 15 6 0 10 6 10 13 0 7 8 22
18 33 38 44 63 85 56 96 -4 6 -3 8 3 5 6 -4 14 0 17 9 4 10 2 13 -7 9 -6 -4
-5 -1 4 7 8 7 32 38 53 68 21 30 40 57 43 60 14 13 -32 -67 -48 -86 -11 -11
-21 -31 -24 -43 -2 -12 -11 -28 -19 -37 -9 -8 -16 -20 -16 -26 0 -6 2 -9 4 -7
10 12 89 126 143 208 42 63 63 87 63 73 0 -12 -5 -22 -12 -22 -6 0 -8 -3 -5
-6 3 -4 0 -16 -8 -28 -22 -30 -18 -45 4 -17 l19 24 6 -30 c8 -35 32 -66 59
-76 9 -3 17 -13 17 -21 0 -9 18 -18 48 -25 26 -6 55 -13 65 -16 10 -2 27 7 41
22 l24 26 -64 74 c-36 41 -62 79 -58 85 4 7 3 8 -4 4 -11 -6 -16 6 -13 27 0 4
-3 7 -9 7 -15 0 -12 38 6 65 17 25 38 32 48 16z m-2814 -47 c0 -1 -9 0 -20 3
-12 3 -20 14 -20 26 0 19 1 19 20 -3 11 -13 20 -24 20 -26z m7 40 c-3 -3 -12
-4 -19 -1 -8 3 -5 6 6 6 11 1 17 -2 13 -5z m4423 -8 c0 -2 -7 -6 -15 -10 -8
-3 -15 -1 -15 4 0 6 7 10 15 10 8 0 15 -2 15 -4z m-5223 -68 c-2 -13 -4 -3 -4
22 0 25 2 35 4 23 2 -13 2 -33 0 -45z m877 36 c3 -8 1 -24 -4 -36 -8 -21 -9
-21 -9 8 -1 16 -7 36 -13 43 -11 10 -10 11 4 6 9 -4 19 -13 22 -21z m1341 -15
c16 -19 13 -18 -17 5 -21 16 -38 30 -38 33 0 8 36 -16 55 -38z m2782 25 c-3
-3 -12 -4 -19 -1 -8 3 -5 6 6 6 11 1 17 -2 13 -5z m-4830 -56 c-2 -13 -4 -5
-4 17 -1 22 1 32 4 23 2 -10 2 -28 0 -40z m1566 35 c-7 -2 -19 -2 -25 0 -7 3
-2 5 12 5 14 0 19 -2 13 -5z m3305 0 c-10 -2 -28 -2 -40 0 -13 2 -5 4 17 4 22
1 32 -1 23 -4z m-2773 -33 c10 -11 16 -20 13 -20 -3 0 -13 9 -23 20 -10 11
-16 20 -13 20 3 0 13 -9 23 -20z m1692 14 c-3 -3 -12 -4 -19 -1 -8 3 -5 6 6 6
11 1 17 -2 13 -5z m-3920 -71 c-2 -16 -4 -5 -4 22 0 28 2 40 4 28 2 -13 2 -35
0 -50z m5208 17 c-3 -6 -15 -10 -26 -10 -18 0 -19 -10 -19 -310 0 -243 -3
-311 -12 -309 -29 3 -53 -2 -42 -9 7 -4 -148 -7 -344 -7 -318 0 -357 2 -360
16 -2 14 17 17 140 22 79 4 232 7 342 7 l198 0 -6 83 c-8 102 -8 314 0 425 7
84 6 84 -17 81 -38 -4 -476 11 -559 19 -50 5 50 9 299 12 298 4 375 8 379 18
3 10 8 7 19 -7 8 -12 11 -26 8 -31z m-3556 29 c35 0 41 -2 26 -9 -28 -12 -345
-12 -345 -1 0 15 55 20 169 15 57 -2 125 -4 150 -5z m562 -6 c13 -16 12 -17
-3 -4 -10 7 -18 15 -18 17 0 8 8 3 21 -13z m-2101 -68 c-7 -8 -9 -24 -5 -36 5
-16 4 -19 -5 -14 -8 5 -11 4 -7 -2 4 -6 -5 -70 -19 -143 -14 -73 -23 -139 -20
-147 3 -8 2 -12 -3 -8 -5 3 -11 -1 -14 -7 -2 -7 -7 -10 -11 -7 -8 8 62 361 75
374 5 5 10 18 10 30 2 17 2 17 6 -3 3 -13 -1 -29 -7 -37z m1948 19 c13 -20 19
-33 13 -30 -16 10 -53 66 -44 66 4 0 18 -16 31 -36z m177 -34 c3 -5 12 -7 19
-4 8 3 17 1 21 -5 4 -7 -1 -9 -12 -5 -16 5 -16 4 1 -10 18 -14 18 -16 3 -16
-10 0 -20 7 -24 16 -4 11 -8 12 -13 4 -5 -8 -11 -6 -20 5 -11 13 -10 15 6 9
17 -5 17 -4 -2 13 -12 10 -34 28 -50 41 -16 13 -8 9 18 -8 26 -17 50 -35 53
-40z m1812 64 c-3 -3 -12 -4 -19 -1 -8 3 -5 6 6 6 11 1 17 -2 13 -5z m146 -11
c-13 -2 -33 -2 -45 0 -13 2 -3 4 22 4 25 0 35 -2 23 -4z m77 -3 c0 -5 -11 -10
-25 -10 -14 0 -25 -4 -25 -8 0 -5 -13 -7 -30 -4 -18 3 -30 0 -30 -7 0 -6 -5
-11 -11 -11 -5 0 -7 5 -4 10 3 6 2 10 -4 10 -5 0 -11 -6 -13 -12 -3 -7 -7 -4
-10 7 -4 18 0 20 43 17 26 -2 56 1 66 7 23 13 43 14 43 1z m-300 -14 c0 -3 -4
-8 -10 -11 -5 -3 -10 -1 -10 4 0 6 5 11 10 11 6 0 10 -2 10 -4z m-1789 -23
c13 -16 12 -17 -3 -4 -10 7 -18 15 -18 17 0 8 8 3 21 -13z m69 7 c0 -5 -2 -10
-4 -10 -3 0 -8 5 -11 10 -3 6 -1 10 4 10 6 0 11 -4 11 -10z m-1504 -38 c-6 -5
-36 23 -36 34 0 4 9 -1 20 -11 11 -10 18 -20 16 -23z m787 31 c-7 -2 -19 -2
-25 0 -7 3 -2 5 12 5 14 0 19 -2 13 -5z m44 1 c-3 -3 -12 -4 -19 -1 -8 3 -5 6
6 6 11 1 17 -2 13 -5z m-1501 -23 c-3 -4 -24 -5 -48 -2 -40 4 -41 5 -13 11 33
7 67 2 61 -9z m3876 -33 c2 -20 0 -34 -4 -32 -4 3 -8 24 -7 47 1 47 6 41 11
-15z m-2324 35 c-21 -2 -57 -2 -80 0 -24 2 -7 4 37 4 44 0 63 -2 43 -4z m3572
-73 c0 -49 -4 -80 -10 -80 -10 0 -13 136 -3 153 10 17 13 2 13 -73z m-1063 8
c-2 -13 -4 -3 -4 22 0 25 2 35 4 23 2 -13 2 -33 0 -45z m-1896 23 c15 -6 18
-10 8 -10 -9 -1 -25 7 -36 17 -10 9 -14 14 -8 10 6 -4 22 -12 36 -17z m-1453
-17 c1 -16 6 -38 11 -49 5 -11 13 -32 19 -47 12 -30 45 -43 92 -36 17 3 30 0
31 -6 0 -8 2 -8 5 0 3 6 15 9 28 7 13 -3 33 0 45 6 16 9 21 9 21 -1 0 -9 3 -9
10 2 7 12 10 12 10 1 0 -8 6 -11 16 -7 8 3 12 2 9 -4 -3 -6 3 -10 15 -10 13 0
19 4 14 11 -4 8 -1 8 12 1 17 -8 340 -17 534 -15 60 1 62 1 25 -7 -22 -5 -56
-9 -75 -10 -19 0 -30 -4 -23 -8 6 -4 -19 -7 -55 -7 -386 0 -625 -6 -616 -15 6
-6 111 -11 270 -11 142 -1 246 -5 229 -9 -16 -4 -34 -9 -40 -11 -5 -1 -113 1
-239 5 -164 6 -236 12 -250 21 -12 8 -59 21 -106 30 l-85 17 3 84 c3 81 4 84
28 84 13 0 24 4 24 9 0 5 8 8 18 7 11 -2 18 -13 20 -32z m-751 11 c0 -8 -6
-15 -14 -15 -14 0 -17 12 -6 23 11 11 20 8 20 -8z m897 -17 c7 -5 4 -8 -6 -8
-12 0 -18 7 -17 23 0 15 2 17 6 7 3 -8 11 -18 17 -22z m2247 5 c-12 -20 -14
-14 -5 12 4 9 9 14 11 11 3 -2 0 -13 -6 -23z m1228 -55 c-1 -46 -4 -73 -6 -62
-3 16 -16 25 -48 33 -24 6 -47 16 -50 22 -12 19 -52 28 -88 19 -32 -7 -36 -5
-42 17 -11 43 7 51 125 52 l110 2 -1 -83z m-3747 -215 c-2 -35 -8 -63 -13 -63
-11 0 -12 284 -1 320 8 30 19 -162 14 -257z m1633 259 c-3 -3 -11 0 -18 7 -9
10 -8 11 6 5 10 -3 15 -9 12 -12z m-2298 -69 c-2 -16 -4 -3 -4 27 0 30 2 43 4
28 2 -16 2 -40 0 -55z m1160 33 c4 -4 -12 -4 -36 0 -32 5 -42 4 -37 -4 5 -8
45 -12 118 -12 61 0 109 -2 107 -5 -3 -2 -50 -5 -105 -6 -99 -2 -144 10 -144
37 0 12 84 3 97 -10z m2964 -9 c-10 -9 -11 -8 -5 6 3 10 9 15 12 12 3 -3 0
-11 -7 -18z m-2440 3 c10 -6 19 -20 19 -30 0 -16 -7 -20 -35 -20 -24 0 -35 5
-35 14 0 8 -3 21 -6 30 -7 19 26 22 57 6z m1297 -35 c-3 -3 -9 2 -12 12 -6 14
-5 15 5 6 7 -7 10 -15 7 -18z m914 -3 c13 1 45 -6 71 -17 47 -18 71 -16 143
12 11 4 14 -5 14 -35 0 -31 -4 -41 -19 -45 -11 -3 -22 -2 -26 1 -7 7 -32 13
-65 14 -14 0 -29 3 -35 6 -5 4 -12 7 -15 8 -16 2 -60 29 -60 36 0 4 -15 8 -34
8 -19 0 -36 4 -38 8 -1 5 -23 -21 -47 -57 l-44 -66 35 33 c80 76 183 56 209
-40 6 -25 7 -44 1 -51 -5 -7 -15 -29 -21 -49 -12 -36 -52 -78 -75 -78 -6 0 1
7 14 16 35 23 50 44 50 68 0 17 -2 18 -10 6 -15 -23 -12 -6 6 29 17 35 9 78
-23 113 -52 57 -193 -32 -193 -122 0 -56 34 -92 96 -101 l49 -8 -55 4 c-62 4
-91 9 -89 16 1 2 -8 23 -20 46 -11 23 -21 52 -21 64 0 32 26 80 70 130 22 24
42 52 45 61 6 16 9 17 35 3 16 -8 39 -14 52 -13z m366 11 c-10 -2 -26 -2 -35
0 -10 3 -2 5 17 5 19 0 27 -2 18 -5z m-2988 -28 c-7 -8 -27 -15 -44 -14 l-31
1 32 9 c18 5 35 14 39 20 3 6 8 8 11 5 3 -3 0 -12 -7 -21z m3037 19 c-3 -3
-12 -4 -19 -1 -8 3 -5 6 6 6 11 1 17 -2 13 -5z m-3147 -14 c0 -5 -5 -10 -11
-10 -5 0 -7 5 -4 10 3 6 8 10 11 10 2 0 4 -4 4 -10z m3025 -60 c-20 -39 -13
-51 10 -17 9 14 25 27 35 30 12 3 2 -11 -26 -36 -25 -24 -46 -52 -47 -64 -1
-15 -5 -19 -11 -13 -9 9 9 84 37 150 10 24 11 24 14 3 2 -12 -3 -36 -12 -53z
m103 53 c-10 -2 -26 -2 -35 0 -10 3 -2 5 17 5 19 0 27 -2 18 -5z m-4286 -110
c2 -28 0 -49 -4 -46 -5 2 -7 37 -7 76 2 74 6 62 11 -30z m5198 -95 c0 -158 -5
-212 -19 -190 -3 6 -5 95 -3 198 2 123 6 184 12 174 5 -8 10 -90 10 -182z
m-3000 117 c0 -5 -5 -3 -10 5 -5 8 -10 20 -10 25 0 6 5 3 10 -5 5 -8 10 -19
10 -25z m2100 21 c0 -2 -15 -6 -34 -8 -19 -2 -32 0 -30 4 5 8 64 12 64 4z
m-1440 -16 c0 -5 -4 -10 -10 -10 -5 0 -10 5 -10 10 0 6 5 10 10 10 6 0 10 -4
10 -10z m1370 -13 c0 -2 -10 -12 -22 -23 l-23 -19 19 23 c18 21 26 27 26 19z
m-2012 -32 c-3 -3 -9 2 -12 12 -6 14 -5 15 5 6 7 -7 10 -15 7 -18z m627 -32
c-8 -33 -25 -46 -42 -31 -15 12 -18 32 -4 23 6 -3 15 4 21 15 16 30 33 25 25
-7z m1419 14 c-3 -8 -12 -14 -21 -14 -13 0 -13 2 3 14 10 7 19 13 21 13 1 0 0
-6 -3 -13z m-2766 -73 c21 -4 32 -3 32 5 0 7 5 9 10 6 6 -3 14 4 19 17 6 13
10 16 10 8 1 -28 -16 -41 -57 -47 -47 -6 -65 4 -89 51 l-15 31 28 -33 c17 -18
43 -35 62 -38z m109 14 c-2 -13 -4 -5 -4 17 -1 22 1 32 4 23 2 -10 2 -28 0
-40z m3440 15 c-3 -10 -5 -4 -5 12 0 17 2 24 5 18 2 -7 2 -21 0 -30z m-5090
-10 c-3 -10 -5 -4 -5 12 0 17 2 24 5 18 2 -7 2 -21 0 -30z m2302 -18 c0 -5 -6
1 -14 15 -8 14 -14 30 -14 35 0 6 6 -1 14 -15 8 -14 14 -29 14 -35z m1396 15
c-15 -30 -15 -32 7 -51 l23 -21 -25 16 c-13 9 -27 16 -31 16 -3 0 -17 -21 -31
-47 -63 -121 -144 -263 -179 -314 -21 -31 -36 -59 -32 -63 3 -3 1 -6 -5 -6
-20 0 -13 -27 11 -43 21 -16 21 -16 -11 -5 -25 8 -37 7 -45 -1 -8 -8 -7 -11 5
-11 21 0 68 -38 68 -56 0 -9 -5 -12 -12 -8 -8 5 -9 2 -4 -11 4 -12 0 -24 -14
-37 -11 -10 -20 -14 -20 -8 0 7 -7 7 -22 -2 -13 -6 -36 -11 -53 -9 -26 3 -27
1 -16 -13 11 -13 11 -16 0 -16 -8 0 -43 -53 -78 -117 -97 -178 -267 -472 -374
-648 -17 -27 -45 -76 -63 -109 -17 -32 -34 -53 -38 -47 -7 11 20 71 36 82 5 3
8 8 7 10 -2 2 10 24 27 49 36 53 102 168 168 295 26 50 57 101 69 114 12 13
15 21 7 17 -8 -4 -5 1 7 11 12 10 39 54 59 98 20 43 51 101 70 127 18 27 58
99 89 161 32 61 83 152 115 202 32 49 99 162 148 250 50 88 97 168 105 177 9
9 21 26 27 38 6 12 14 19 17 17 2 -3 -3 -19 -12 -37z m-2068 8 c-3 -8 -6 -5
-6 6 -1 11 2 17 5 13 3 -3 4 -12 1 -19z m52 -26 c1 -7 -3 -10 -9 -7 -5 3 -10
18 -9 33 0 24 1 25 9 7 5 -11 9 -26 9 -33z m2129 18 c-7 -11 -16 -16 -21 -11
-12 12 0 31 19 31 12 0 12 -3 2 -20z m282 -52 c-23 -24 -37 -33 -31 -22 5 12
8 24 6 28 -3 3 -2 4 1 2 8 -6 54 39 55 55 1 9 3 8 6 -3 2 -10 -12 -34 -37 -60z
m186 22 c9 0 12 5 8 12 -4 7 -3 8 5 4 6 -4 8 -12 5 -18 -5 -8 -1 -9 12 -4 10
5 32 12 47 17 16 4 36 14 45 21 15 12 15 11 4 -4 -17 -22 -106 -51 -130 -44
-10 4 -32 21 -48 38 l-29 32 33 -27 c19 -15 40 -27 48 -27z m-3482 -18 c-1 -2
-11 1 -21 7 -10 6 -12 11 -5 11 6 0 12 8 13 18 1 11 4 8 8 -8 4 -14 7 -27 5
-28z m2066 18 c6 -11 9 -20 7 -20 -2 0 -12 9 -22 20 -10 11 -13 20 -7 20 6 0
16 -9 22 -20z m1110 0 c0 -16 -56 -40 -93 -40 -20 0 -45 8 -58 20 l-24 20 30
-15 c41 -21 88 -19 116 5 28 23 29 23 29 10z m-1652 -25 c-3 -3 -9 2 -12 12
-6 14 -5 15 5 6 7 -7 10 -15 7 -18z m703 2 c-10 -9 -11 -8 -5 6 3 10 9 15 12
12 3 -3 0 -11 -7 -18z m-235 -18 c19 -22 19 -22 -3 -8 -13 8 -23 17 -23 21 0
12 6 9 26 -13z m-427 -74 c0 -5 -8 6 -19 25 -11 19 -19 40 -19 45 0 6 8 -6 19
-25 11 -19 19 -39 19 -45z m636 44 c-9 -17 -19 -29 -22 -26 -5 5 25 57 33 57
3 0 -3 -14 -11 -31z m-2278 -9 c1 -15 -4 -20 -23 -20 -30 0 -31 12 -1 26 12 7
22 12 22 13 1 0 1 -8 2 -19z m3459 -8 c-17 -16 -18 -16 -5 5 7 12 15 20 18 17
3 -2 -3 -12 -13 -22z m59 8 c-4 -19 5 -24 32 -21 6 1 15 -13 19 -31 6 -29 8
-30 15 -13 7 18 8 18 8 -5 1 -33 -9 -47 -42 -59 -55 -21 -107 13 -107 71 0 17
6 29 19 33 10 3 26 14 36 25 23 25 25 25 20 0z m-1737 2 c9 -6 5 -15 -15 -33
-26 -23 -27 -23 -8 -1 16 20 17 25 5 32 -8 6 -10 10 -5 10 6 0 16 -4 23 -8z
m-1588 -12 c0 -5 -4 -10 -10 -10 -5 0 -10 5 -10 10 0 6 5 10 10 10 6 0 10 -4
10 -10z m2897 -57 c-9 -12 47 -33 91 -33 12 0 22 -5 22 -11 0 -8 -11 -9 -32
-5 -89 19 -92 19 -122 -13 -17 -18 -29 -42 -30 -60 -1 -16 -5 -27 -9 -24 -16
10 5 68 37 102 25 27 26 31 9 22 -19 -9 -22 -9 -17 3 3 9 -2 16 -13 18 -16 3
-16 5 5 26 13 13 20 28 16 35 -4 7 6 -1 22 -18 19 -19 27 -34 21 -42z m-2934
50 c-7 -2 -19 -2 -25 0 -7 3 -2 5 12 5 14 0 19 -2 13 -5z m144 -40 c-3 -10 -5
-2 -5 17 0 19 2 27 5 18 2 -10 2 -26 0 -35z m3082 30 c20 -20 43 -78 34 -87
-4 -3 -1 -6 6 -6 7 0 9 -5 5 -12 -4 -7 -3 -10 1 -5 5 4 16 0 25 -8 28 -25 83
-29 123 -10 20 9 40 14 46 11 5 -4 13 -1 17 5 5 8 3 9 -6 4 -8 -5 -11 -4 -6 3
8 14 45 11 43 -3 -1 -5 -9 -15 -17 -22 -8 -7 -11 -13 -7 -13 4 0 19 12 33 27
25 27 25 27 16 2 -9 -25 -78 -68 -149 -93 -39 -13 -43 -13 -64 5 -12 10 -31
19 -42 19 -11 0 -37 18 -58 40 -44 46 -59 98 -39 136 16 29 16 29 39 7z
m-2923 -51 c-4 -3 -14 2 -23 11 -16 16 -16 17 0 17 9 0 18 8 18 18 1 9 4 4 6
-11 3 -16 2 -32 -1 -35z m134 21 c0 -28 -3 -34 -10 -23 -13 20 -13 60 0 60 6
0 10 -17 10 -37z m633 -68 c12 -27 37 -79 57 -115 19 -36 45 -94 56 -129 18
-54 23 -61 32 -45 9 16 10 15 9 -8 -1 -14 -6 -23 -12 -20 -5 3 -3 -3 6 -14 9
-10 28 -50 42 -89 14 -38 26 -65 27 -60 1 6 5 1 10 -10 8 -20 9 -19 9 1 1 12
-6 27 -14 34 -17 14 -20 40 -5 40 6 0 10 -9 10 -19 0 -11 5 -23 11 -27 16 -10
43 22 35 42 -6 16 -8 16 -22 -2 -14 -16 -14 -15 0 8 17 29 12 94 -5 67 -6 -11
-14 -8 -36 11 -15 14 -30 26 -32 28 -3 1 1 8 7 14 9 9 12 9 12 -3 0 -8 9 -20
20 -27 16 -10 20 -10 20 2 0 7 -7 19 -15 26 -8 7 -15 23 -15 36 0 13 -4 24 -9
24 -4 0 -6 11 -4 24 3 13 0 27 -6 30 -6 4 -11 18 -11 32 0 14 -7 47 -16 74
-12 36 -13 53 -5 67 10 17 11 17 9 -2 -1 -11 0 -31 2 -45 2 -22 4 -20 10 10 7
32 8 33 15 13 4 -13 12 -23 18 -23 14 0 36 -32 37 -53 0 -10 5 -15 10 -12 6 3
10 0 10 -7 0 -7 8 -29 19 -48 10 -19 22 -46 26 -60 4 -14 18 -49 31 -78 13
-29 24 -57 24 -63 0 -5 18 -52 40 -104 52 -122 52 -126 -1 -138 -21 -5 -34 1
-65 29 -21 20 -33 33 -25 29 9 -5 12 -3 9 6 -3 8 -11 13 -17 11 -7 -1 -10 2
-6 8 3 5 2 17 -3 26 -8 15 -10 15 -15 0 -4 -9 -13 -13 -22 -10 -17 7 -21 -11
-5 -21 6 -4 8 -11 4 -16 -3 -5 6 -35 20 -65 l26 -57 69 7 69 7 28 -73 c15 -40
52 -134 82 -208 90 -223 93 -233 85 -240 -4 -4 -39 -19 -78 -35 -38 -15 -75
-29 -81 -32 -21 -8 -220 487 -408 1013 -24 66 -50 134 -58 150 -19 37 -45 118
-52 164 l-6 35 11 -30 c6 -16 20 -52 32 -80z m-863 68 c0 -19 -3 -24 -10 -17
-6 6 -8 18 -4 27 9 24 14 21 14 -10z m345 18 c-3 -6 3 -14 12 -20 10 -5 14
-13 10 -17 -11 -11 -41 22 -33 35 4 6 9 11 12 11 3 0 3 -4 -1 -9z m155 5 c0
-2 -11 -6 -25 -8 -13 -3 -22 -1 -19 3 5 9 44 13 44 5z m957 -54 c-23 -35 -104
-122 -113 -122 -2 0 -4 8 -4 18 0 9 -7 26 -15 36 -8 11 -15 25 -15 30 0 6 10
-4 21 -21 17 -27 24 -31 39 -23 25 13 69 68 88 108 9 18 18 29 20 22 2 -6 -7
-28 -21 -48z m-1334 35 c3 -8 1 -20 -4 -28 -6 -10 -9 -7 -9 14 0 29 5 35 13
14z m194 -19 c-3 -7 -5 -2 -5 12 0 14 2 19 5 13 2 -7 2 -19 0 -25z m78 16 c9
-9 13 -19 10 -22 -3 -3 -14 4 -25 16 -24 25 -10 30 15 6z m211 7 c-3 -5 1 -11
9 -15 8 -3 15 -17 15 -31 0 -22 -4 -25 -36 -25 -21 0 -33 4 -29 10 3 6 14 10
25 10 13 0 17 5 13 20 -5 19 -6 20 -19 3 -7 -10 -14 -14 -14 -9 0 5 7 18 17
28 17 19 28 24 19 9z m-826 -11 c0 -5 -11 -10 -25 -10 -14 0 -25 5 -25 10 0 6
11 10 25 10 14 0 25 -4 25 -10z m90 -5 c0 -8 -7 -15 -15 -15 -8 0 -15 7 -15
15 0 8 7 15 15 15 8 0 15 -7 15 -15z m50 11 c0 -2 -7 -6 -15 -10 -8 -3 -15 -1
-15 4 0 6 7 10 15 10 8 0 15 -2 15 -4z m237 -28 c-3 -7 -5 -2 -5 12 0 14 2 19
5 13 2 -7 2 -19 0 -25z m100 10 c-3 -8 -6 -5 -6 6 -1 11 2 17 5 13 3 -3 4 -12
1 -19z m37 7 c-4 -8 -9 -15 -13 -15 -4 0 -8 7 -8 15 0 8 6 15 13 15 8 0 11 -6
8 -15z m1015 -40 c0 -5 -6 1 -14 15 -8 14 -14 30 -14 35 0 6 6 -1 14 -15 8
-14 14 -29 14 -35z m46 35 c-10 -11 -22 -20 -28 -20 -5 0 1 9 14 20 31 25 37
25 14 0z m-525 -69 c0 -5 3 -16 6 -25 5 -12 0 -16 -19 -16 -14 0 -31 -8 -36
-17 -8 -14 -10 -9 -11 25 0 40 1 42 30 42 17 0 30 -4 30 -9z m-1173 -23 c-3
-8 -6 -5 -6 6 -1 11 2 17 5 13 3 -3 4 -12 1 -19z m923 -35 c0 -14 -19 -18 -21
-5 0 4 -3 18 -5 32 -4 24 -4 24 10 5 9 -11 16 -26 16 -32z m60 37 c0 -5 -5
-10 -11 -10 -5 0 -7 5 -4 10 3 6 8 10 11 10 2 0 4 -4 4 -10z m2780 0 c12 -8
12 -10 -5 -9 -11 0 -29 4 -40 9 -18 8 -18 9 5 9 14 0 32 -4 40 -9z m68 -7
c-10 -2 -26 -2 -35 0 -10 3 -2 5 17 5 19 0 27 -2 18 -5z m-79 -55 c1 -12 -37
-9 -45 3 -3 6 -1 16 6 22 10 9 11 9 6 -3 -4 -8 -1 -7 6 2 12 17 13 17 20 0 3
-9 7 -20 7 -24z m71 13 c0 -9 -3 -12 -8 -6 -4 6 -13 10 -21 10 -8 0 -16 5 -18
11 -2 7 6 10 22 7 15 -3 25 -12 25 -22z m-2630 -16 c0 -28 -4 -35 -19 -35 -22
0 -37 -29 -18 -35 6 -2 24 -6 38 -9 20 -4 28 -14 33 -37 8 -39 7 -39 -42 -46
-39 -5 -39 -5 -46 31 -4 20 -4 41 -1 46 3 6 1 10 -5 10 -7 0 -8 5 -3 13 4 6 8
15 9 20 1 4 3 9 4 12 4 8 7 24 9 39 0 8 9 17 19 19 9 3 18 5 20 6 1 0 2 -15 2
-34z m2723 28 c-7 -2 -19 -2 -25 0 -7 3 -2 5 12 5 14 0 19 -2 13 -5z m-3982
-86 c-16 -16 -193 -20 -203 -4 -9 15 -9 -118 1 -153 6 -22 8 -23 14 -7 5 14
11 16 26 8 14 -8 20 -8 23 1 6 16 105 13 125 -4 11 -9 13 -8 11 2 -2 8 2 14 7
15 22 1 35 18 31 41 -4 21 -2 23 15 14 19 -11 19 -11 -2 -33 -66 -70 -99 -143
-99 -220 0 -80 18 -123 73 -173 52 -46 55 -56 9 -26 l-27 17 16 -24 c21 -33
110 -80 165 -88 86 -11 192 55 264 166 34 54 40 75 10 40 l-20 -24 17 35 c20
41 31 185 13 160 -9 -12 -10 -9 -6 13 4 18 -1 41 -14 68 l-21 40 99 -2 c55 -1
105 -5 112 -9 16 -10 9 -86 -9 -82 -37 8 -51 -8 -51 -61 0 -101 -12 -187 -26
-187 -8 0 -25 -21 -38 -47 -30 -60 -58 -86 -121 -115 -44 -20 -65 -23 -170
-22 -111 1 -125 3 -186 31 -36 17 -69 38 -72 47 -4 9 -18 21 -32 26 -14 5 -25
15 -25 22 0 9 3 9 11 -2 9 -12 9 -11 3 5 -35 94 -45 137 -55 223 -11 92 -13
98 -35 100 -14 1 -29 -7 -39 -20 -14 -21 -15 -19 -16 42 0 83 -14 219 -24 244
-7 16 -6 17 13 7 12 -7 22 -20 22 -30 0 -10 9 -21 20 -24 28 -7 136 7 152 20
7 6 18 11 23 10 6 -1 12 9 15 23 3 20 5 17 8 -14 2 -21 -1 -43 -7 -49z m973
25 c28 -65 41 -81 58 -64 17 17 24 15 25 -10 2 -18 0 -19 -7 -8 -7 12 -12 12
-21 3 -10 -10 -3 -31 31 -100 24 -49 48 -91 54 -95 6 -4 7 -8 2 -8 -5 0 -3 -6
3 -13 6 -8 8 -17 4 -20 -3 -4 -1 -7 5 -7 6 0 9 -6 6 -14 -3 -8 4 -24 16 -36
20 -20 21 -24 7 -38 -14 -13 -19 -7 -53 61 -27 57 -40 74 -53 70 -11 -3 -12
-2 -4 4 10 7 -1 40 -42 133 -78 178 -85 189 -104 183 -14 -4 -14 -3 -1 6 29
21 51 7 74 -47z m3167 49 c-29 -18 0 -63 115 -181 18 -20 34 -43 34 -53 0 -9
4 -17 10 -17 6 0 5 -10 -2 -26 -8 -18 -9 -27 -1 -32 6 -4 15 -28 20 -53 10
-47 10 -47 -20 -56 -41 -11 -71 -54 -63 -87 3 -14 26 -47 51 -72 24 -26 42
-51 39 -56 -3 -5 -1 -7 4 -6 5 2 26 -12 45 -29 27 -25 46 -33 74 -34 21 0 47
-4 58 -9 26 -11 -98 -1 -190 15 -38 7 -131 31 -205 54 -147 45 -196 54 -85 15
39 -13 85 -31 104 -40 19 -9 62 -25 95 -35 57 -18 58 -18 16 -13 -25 3 -86 23
-137 44 -122 51 -166 58 -189 31 -13 -15 -21 -17 -30 -10 -10 8 -14 1 -19 -28
-3 -21 -18 -85 -32 -143 -14 -58 -32 -132 -40 -165 -8 -33 -15 -72 -16 -86 -2
-24 -4 -25 -35 -18 -29 6 -35 4 -44 -17 -6 -13 -14 -21 -19 -18 -4 2 -8 -4 -8
-13 0 -27 -5 -57 -11 -63 -14 -12 -75 -244 -82 -307 -1 -7 -6 -13 -11 -13 -5
0 -7 -13 -4 -30 5 -21 3 -29 -6 -27 -8 1 -11 -10 -10 -36 2 -23 -1 -35 -7 -32
-6 3 -10 -4 -11 -17 -1 -37 -34 -129 -44 -121 -4 4 -5 3 -1 -4 3 -6 2 -22 -3
-35 -4 -13 -17 -48 -26 -78 -10 -30 -25 -71 -33 -90 -9 -19 -16 -42 -18 -50
-5 -32 -43 -144 -43 -129 -1 22 52 259 94 419 96 368 157 573 238 800 25 69
57 180 72 246 l28 122 41 -6 c23 -2 48 -8 57 -13 16 -8 17 0 10 44 0 4 -18 26
-39 50 -37 40 -39 47 -51 142 -14 117 -40 171 -103 213 -36 24 -53 27 -135 30
-57 3 -105 -1 -122 -8 -40 -16 -99 -79 -126 -136 -18 -37 -24 -43 -25 -26 0
13 5 32 11 44 6 11 12 43 14 71 2 29 7 68 12 87 9 33 11 35 48 32 103 -9 205
-6 217 6 14 14 32 17 24 3 -3 -4 6 -6 19 -3 14 2 23 7 21 11 -3 4 6 8 19 9 13
1 28 3 32 4 14 4 53 -13 53 -23 0 -6 4 -8 9 -4 5 3 12 1 16 -5 12 -19 70 -9
170 30 61 23 118 39 145 39 29 1 40 -2 31 -8z m-4691 -10 c0 -6 -4 -13 -10
-16 -5 -3 -10 1 -10 9 0 9 5 16 10 16 6 0 10 -4 10 -9z m287 -6 c0 -8 -7 -15
-15 -15 -12 0 -12 3 -2 15 7 8 13 15 15 15 1 0 2 -7 2 -15z m1296 -57 c3 -10
0 -19 -9 -22 -8 -3 -13 -2 -9 3 6 11 -5 42 -14 37 -3 -2 -7 7 -7 20 l-2 24 17
-22 c10 -13 20 -31 24 -40z m2097 -8 c31 -7 32 -8 8 -9 -26 -1 -88 41 -88 60
0 6 10 -2 23 -16 12 -15 38 -30 57 -35z m-2840 26 c118 -3 245 -5 281 -6 58 0
67 -3 72 -20 4 -15 0 -20 -16 -20 -12 0 -32 -3 -44 -6 -19 -5 -23 -2 -23 15 0
19 -3 20 -22 10 -16 -9 -79 -10 -235 -5 -118 4 -220 9 -228 13 -8 3 -15 15
-15 27 0 12 3 16 8 10 5 -8 77 -14 222 -18z m-923 -368 c-1 -73 -3 -16 -3 127
0 143 2 203 3 133 2 -70 2 -187 0 -260z m3960 320 c-3 -8 -6 -5 -6 6 -1 11 2
17 5 13 3 -3 4 -12 1 -19z m-3781 -48 c32 0 44 -4 44 -15 0 -19 46 -20 66 -1
19 19 18 28 -3 25 -10 -1 -29 0 -43 1 -23 1 -23 2 -5 10 26 10 66 1 83 -19 11
-14 12 -11 7 17 -4 20 -3 32 4 32 7 0 11 -50 11 -152 0 -84 3 -238 7 -341 l6
-189 39 4 c21 2 38 0 38 -4 0 -11 -360 -9 -385 2 -19 8 -19 9 3 9 12 1 23 8
23 16 1 8 3 20 4 25 1 6 4 130 5 278 1 151 5 256 10 242 7 -21 8 -18 10 20 2
38 3 41 10 20 6 -20 9 -14 11 30 1 38 3 45 6 23 4 -32 6 -33 49 -33z m-71 20
c3 -5 -1 -10 -10 -10 -9 0 -13 5 -10 10 3 6 8 10 10 10 2 0 7 -4 10 -10z
m2412 -20 c2 0 3 -5 3 -11 0 -7 -11 -9 -30 -5 -33 6 -42 -9 -11 -19 23 -7 18
-30 -7 -40 -9 -3 -13 -3 -9 1 4 4 -2 14 -14 22 -11 8 -18 20 -15 29 3 8 1 11
-4 8 -6 -3 -10 -2 -10 4 0 19 33 29 64 20 17 -5 32 -9 33 -9z m1593 10 c-8 -5
-19 -10 -25 -10 -5 0 -3 5 5 10 8 5 20 10 25 10 6 0 3 -5 -5 -10z m68 -7 c-10
-2 -26 -2 -35 0 -10 3 -2 5 17 5 19 0 27 -2 18 -5z m-4211 -125 c-2 -24 -4 -5
-4 42 0 47 2 66 4 43 2 -24 2 -62 0 -85z m3950 100 c-3 -8 -6 -5 -6 6 -1 11 2
17 5 13 3 -3 4 -12 1 -19z m-3187 8 c0 -3 -4 -8 -10 -11 -5 -3 -10 -1 -10 4 0
6 5 11 10 11 6 0 10 -2 10 -4z m967 -2 c-3 -3 -12 -4 -19 -1 -8 3 -5 6 6 6 11
1 17 -2 13 -5z m2408 -7 c-80 -48 -148 -187 -118 -241 6 -11 9 -4 11 27 2 46
34 131 45 120 4 -3 7 0 7 9 0 8 11 21 25 28 13 7 22 16 20 20 -6 10 31 20 76
20 32 0 38 -4 45 -27 4 -16 6 -36 5 -45 -1 -11 5 -18 16 -19 16 -1 16 -2 1 -6
-14 -3 -15 -9 -8 -29 7 -17 6 -24 -3 -24 -8 0 -8 -3 2 -9 9 -6 10 -11 3 -15
-12 -7 -4 -37 12 -48 7 -5 5 -8 -4 -8 -13 0 -13 -1 0 -10 13 -9 13 -10 0 -10
-13 0 -13 -1 0 -10 9 -6 10 -10 3 -10 -6 0 -10 -9 -8 -20 2 -11 -1 -20 -7 -20
-6 0 -8 -3 -5 -7 12 -12 -25 -43 -52 -44 l-26 -1 28 -10 c41 -15 92 -2 135 35
l37 31 -29 -31 c-40 -44 -119 -77 -165 -68 -45 8 -102 47 -137 93 -15 19 -22
32 -15 28 6 -4 3 7 -9 26 -35 58 -22 139 36 216 23 30 80 73 94 71 3 0 -4 -6
-15 -12z m82 -3 c-3 -3 -12 -4 -19 -1 -8 3 -5 6 6 6 11 1 17 -2 13 -5z m-3172
-44 l30 -35 -32 29 c-18 17 -33 34 -33 40 0 5 1 7 3 5 1 -2 16 -20 32 -39z
m-145 10 c0 -5 -10 -10 -22 -9 -22 0 -22 1 -3 9 11 5 21 9 23 9 1 1 2 -3 2 -9z
m56 -5 c26 -20 39 -19 23 3 -13 15 -12 16 4 3 9 -8 16 -16 13 -18 -2 -2 7 -16
21 -31 14 -15 32 -41 39 -59 17 -38 18 -119 3 -128 -6 -4 -8 -13 -5 -21 3 -8
2 -13 -2 -13 -18 3 -32 -2 -32 -12 0 -5 4 -7 10 -4 6 4 7 -1 3 -11 -4 -12 -8
-14 -11 -6 -3 10 -7 10 -20 0 -13 -11 -15 -10 -9 5 4 11 3 16 -3 12 -6 -3 -10
-12 -10 -18 0 -7 -11 -17 -25 -24 -14 -6 -23 -7 -19 -2 8 13 -10 11 -24 -3
-18 -18 -112 -15 -153 4 -46 22 -84 67 -80 96 1 12 -2 22 -8 22 -6 0 -11 9
-11 21 0 11 4 18 9 14 5 -3 12 5 14 17 3 19 5 17 6 -7 2 -27 4 -25 17 18 10
32 28 60 56 85 57 52 62 51 12 -4 -72 -77 -83 -153 -30 -211 30 -33 39 -37 92
-40 48 -3 66 1 98 19 63 37 81 69 83 151 2 69 1 71 -33 104 -20 18 -44 33 -55
33 -10 0 -19 5 -19 10 0 15 23 12 46 -5z m2534 -21 c0 -2 -9 0 -20 6 -11 6
-20 13 -20 16 0 2 9 0 20 -6 11 -6 20 -13 20 -16z m-277 -9 c-3 -9 -8 -14 -10
-11 -3 3 -2 9 2 15 9 16 15 13 8 -4z m-1886 -27 c-3 -8 -6 -5 -6 6 -1 11 2 17
5 13 3 -3 4 -12 1 -19z m672 6 c2 -2 -14 -4 -37 -4 -27 0 -42 -5 -42 -12 0 -9
-4 -8 -11 2 -8 11 -9 5 -4 -22 7 -45 1 -48 -19 -10 -8 15 -15 21 -16 14 0 -7
5 -22 10 -33 6 -10 8 -19 5 -19 -3 0 -13 16 -21 36 -22 53 -8 65 70 57 33 -3
63 -7 65 -9z m1932 -11 c-12 -20 -14 -14 -5 12 4 9 9 14 11 11 3 -2 0 -13 -6
-23z m-3534 -5 c-3 -8 -6 -5 -6 6 -1 11 2 17 5 13 3 -3 4 -12 1 -19z m1741
-13 c-3 -3 -9 2 -12 12 -6 14 -5 15 5 6 7 -7 10 -15 7 -18z m-161 9 c-3 -3
-12 -4 -19 -1 -8 3 -5 6 6 6 11 1 17 -2 13 -5z m200 -9 c0 -8 -4 -12 -9 -9 -4
3 -8 9 -8 15 0 5 4 9 8 9 5 0 9 -7 9 -15z m1693 -20 c0 -8 -7 -15 -15 -15 -13
0 -14 3 -3 15 16 18 18 18 18 0z m1358 -192 l-2 -208 -6 200 c-3 110 -4 203
-2 208 10 23 12 -14 10 -200z m-1303 187 c3 -5 1 -10 -4 -10 -6 0 -11 5 -11
10 0 6 2 10 4 10 3 0 8 -4 11 -10z m-108 -6 c-3 -3 -12 -4 -19 -1 -8 3 -5 6 6
6 11 1 17 -2 13 -5z m-3033 -64 c3 0 3 7 0 15 -4 11 -2 13 9 10 8 -4 14 -14
14 -23 0 -34 3 -43 12 -38 8 5 23 -45 16 -53 -2 -1 -15 -4 -29 -5 -40 -2 -19
-10 32 -11 26 -1 50 4 54 9 5 7 8 7 8 -1 0 -7 7 -10 18 -7 14 5 15 4 2 -5 -19
-14 -115 -14 -140 -1 -28 15 -41 46 -34 77 7 25 8 25 15 8 6 -17 8 -16 8 8 1
16 -3 26 -8 23 -5 -4 -7 4 -3 16 l5 22 8 -22 c5 -12 11 -22 13 -22z m1128 15
c-8 -16 -9 -16 -15 -1 -4 10 -3 15 3 11 6 -3 10 -1 10 6 0 7 3 10 6 6 3 -3 2
-13 -4 -22z m2508 -16 c0 -15 -18 -19 -23 -6 -3 8 1 14 9 14 8 0 14 -4 14 -8z
m37 -59 c-3 -38 -11 -78 -17 -87 -11 -17 -11 -17 -6 0 3 10 9 50 12 88 4 38 9
69 12 69 3 0 2 -31 -1 -70z m-1074 25 c-3 -9 -8 -14 -10 -11 -3 3 -2 9 2 15 9
16 15 13 8 -4z m-2439 -47 c6 -4 2 -6 -10 -6 -16 2 -19 7 -15 27 4 22 6 23 9
6 2 -11 9 -23 16 -27z m1004 17 c-3 -3 -9 2 -12 12 -6 14 -5 15 5 6 7 -7 10
-15 7 -18z m626 -35 c6 -22 5 -23 -5 -7 -10 18 -13 17 -41 -10 -27 -25 -29
-26 -19 -5 7 13 19 26 27 29 10 3 12 13 8 27 -5 19 -4 19 9 6 8 -8 18 -26 21
-40z m723 44 c-3 -3 -12 -4 -19 -1 -8 3 -5 6 6 6 11 1 17 -2 13 -5z m-1970
-176 c-2 -35 -3 -9 -3 57 0 66 1 94 3 63 2 -32 2 -86 0 -120z m1614 149 c-10
-9 -11 -8 -5 6 3 10 9 15 12 12 3 -3 0 -11 -7 -18z m324 4 c3 -5 2 -12 -3 -15
-5 -3 -9 1 -9 9 0 17 3 19 12 6z m1682 -23 c-3 -7 -5 -2 -5 12 0 14 2 19 5 13
2 -7 2 -19 0 -25z m-2962 12 c4 7 14 3 26 -11 13 -15 19 -17 19 -8 0 11 2 11
10 -1 5 -8 10 -26 10 -40 0 -15 4 -30 8 -35 16 -20 33 -67 21 -59 -9 5 -10 -1
-5 -22 14 -53 15 -94 3 -87 -7 4 -6 -1 2 -10 7 -9 20 -17 27 -17 8 0 14 -7 14
-16 0 -28 -61 17 -68 51 -3 17 -5 33 -4 38 1 4 -3 7 -9 7 -5 0 -7 5 -4 10 3 6
2 10 -2 10 -5 0 -19 33 -32 73 -13 39 -30 86 -39 102 -14 27 -14 29 1 17 11
-9 17 -10 22 -2z m1265 -44 c0 -2 -7 -7 -16 -10 -8 -3 -12 -2 -9 4 6 10 25 14
25 6z m707 -53 c-4 -15 -6 -15 -12 5 -4 12 -12 22 -19 23 -6 0 -2 4 9 8 22 9
30 -5 22 -36z m-1281 -58 c23 -42 5 -21 -40 45 -31 44 -32 48 -8 20 17 -19 38
-48 48 -65z m554 60 c7 -9 8 -15 2 -15 -5 0 -12 7 -16 15 -3 8 -4 15 -2 15 2
0 9 -7 16 -15z m1867 3 c5 -7 14 -30 20 -50 10 -36 10 -38 -11 -38 -12 0 -27
-5 -33 -11 -7 -7 -17 -2 -32 19 -24 34 -27 46 -8 36 9 -5 9 -4 0 6 -10 11 -9
17 4 32 19 21 46 23 60 6z m-3833 -24 c11 -28 6 -44 -11 -44 -31 0 -46 16 -38
39 7 25 40 28 49 5z m-1267 -26 c-3 -7 -5 -2 -5 12 0 14 2 19 5 13 2 -7 2 -19
0 -25z m3995 -74 c9 -15 15 -31 12 -36 -3 -4 -1 -8 4 -8 6 0 8 -9 5 -20 -4
-13 -14 -20 -32 -21 -15 -1 -19 -3 -9 -6 14 -4 16 -16 11 -88 -3 -52 0 -91 7
-104 7 -14 7 -21 0 -21 -5 0 -10 6 -10 14 0 20 -27 39 -79 56 l-46 15 -3 132
c-4 163 0 170 73 137 27 -13 58 -35 67 -50z m-1994 54 c7 -7 12 -16 12 -20 0
-15 -15 -8 -28 12 -13 22 -3 27 16 8z m915 -33 c-9 -19 -18 -33 -21 -31 -4 5
26 66 33 66 3 0 -3 -16 -12 -35z m-443 -20 c0 -5 -5 -3 -10 5 -5 8 -10 20 -10
25 0 6 5 3 10 -5 5 -8 10 -19 10 -25z m620 25 c0 -5 -5 -10 -11 -10 -5 0 -7 5
-4 10 3 6 8 10 11 10 2 0 4 -4 4 -10z m2037 -6 c-3 -3 -12 -4 -19 -1 -8 3 -5
6 6 6 11 1 17 -2 13 -5z m-1967 -8 c0 -3 -4 -8 -10 -11 -5 -3 -10 -1 -10 4 0
6 5 11 10 11 6 0 10 -2 10 -4z m1853 -53 c-7 -2 -21 -2 -30 0 -10 3 -4 5 12 5
17 0 24 -2 18 -5z m-803 -19 c0 -12 -11 -15 -54 -12 -30 1 -52 7 -49 11 3 5
23 7 44 4 21 -2 39 0 39 4 0 5 5 9 10 9 6 0 10 -7 10 -16z m617 10 c-3 -3 -12
-4 -19 -1 -8 3 -5 6 6 6 11 1 17 -2 13 -5z m341 -1 c-21 -2 -57 -2 -80 0 -24
2 -7 4 37 4 44 0 63 -2 43 -4z m-2518 -83 c17 -40 28 -75 26 -77 -2 -2 -16 27
-31 64 -37 91 -39 99 -32 92 4 -3 20 -38 37 -79z m-2113 16 c10 2 32 0 48 -6
30 -10 30 -10 2 -6 -15 2 -30 -1 -33 -5 -3 -5 72 -9 171 -8 98 0 180 -2 183
-5 3 -3 -98 -6 -224 -6 -126 0 -223 4 -216 8 7 5 13 25 14 45 l1 37 18 -29
c12 -20 24 -28 36 -25z m4692 -71 c-3 -113 -19 -190 -19 -89 0 64 12 204 17
204 2 0 3 -52 2 -115z m-1035 93 c10 -32 15 -82 7 -70 -5 9 -11 -7 -15 -45 -4
-32 -13 -94 -20 -138 -16 -109 -25 -63 -19 105 2 83 0 131 -7 135 -20 12 -10
25 20 25 17 0 32 -6 34 -12z m-2144 -2 c0 -9 -39 -13 -51 -5 -10 6 -4 9 19 9
17 0 32 -2 32 -4z m2953 -23 c-7 -2 -19 -2 -25 0 -7 3 -2 5 12 5 14 0 19 -2
13 -5z m-1928 -22 c-3 -6 -11 -11 -16 -11 -5 0 -4 6 3 14 14 16 24 13 13 -3z
m-1835 -7 c2 -3 -46 -4 -108 -3 -62 1 -115 6 -118 11 -6 9 216 1 226 -8z
m-277 -1 c-7 -2 -19 -2 -25 0 -7 3 -2 5 12 5 14 0 19 -2 13 -5z m354 -33 c-3
-11 -1 -18 4 -14 5 3 9 -229 9 -572 0 -318 -3 -575 -6 -572 -3 3 -6 257 -7
563 -2 541 -3 557 -22 571 -18 14 -20 12 -31 -23 -10 -34 -11 -36 -15 -13 l-4
25 -480 6 c-264 3 -529 8 -590 9 -110 4 -109 4 55 10 91 4 343 8 560 10 325 2
504 8 529 18 2 1 1 -7 -2 -18z m1733 0 c0 -5 -4 -10 -10 -10 -5 0 -10 5 -10
10 0 6 5 10 10 10 6 0 10 -4 10 -10z m1910 -5 c-6 -8 -9 -19 -5 -24 4 -7 0 -8
-10 -5 -14 6 -14 8 1 25 20 22 32 26 14 4z m-910 -20 c-7 -8 -16 -12 -21 -9
-13 8 -1 24 18 24 13 0 13 -3 3 -15z m-1020 -5 c0 -5 -2 -10 -4 -10 -3 0 -8 5
-11 10 -3 6 -1 10 4 10 6 0 11 -4 11 -10z m-259 -71 c-8 -23 -7 -39 3 -67 38
-101 25 -124 -18 -33 -34 69 -41 148 -14 143 9 -1 20 3 25 10 13 21 16 -19 4
-53z m1559 49 c0 -7 -12 -35 -25 -63 -14 -29 -22 -60 -19 -75 4 -22 3 -23 -6
-5 -9 19 -10 18 -9 -5 2 -31 -11 -89 -21 -95 -19 -12 9 145 36 196 8 16 12 29
8 29 -4 0 -1 7 6 15 15 18 30 20 30 3z m-1320 -8 c0 -5 -5 -10 -11 -10 -5 0
-7 5 -4 10 3 6 8 10 11 10 2 0 4 -4 4 -10z m1992 -68 c40 -4 56 0 81 17 l32
23 -33 -31 c-19 -19 -43 -31 -59 -31 -36 0 -104 34 -134 67 -20 23 -17 22 19
-7 32 -24 57 -34 94 -38z m-3914 -132 c2 -122 6 -180 12 -170 8 13 10 12 10
-2 0 -10 -4 -18 -10 -18 -14 0 -13 -33 2 -48 9 -9 9 -12 0 -12 -9 0 -12 -38
-12 -139 0 -90 -4 -142 -11 -147 -7 -4 -2 -11 13 -18 19 -10 23 -20 26 -69 2
-31 -1 -57 -5 -57 -18 0 -170 30 -198 39 -181 57 -296 119 -355 191 -72 88
-99 160 -139 368 -42 213 -46 253 -30 263 8 5 167 8 354 6 l340 -2 3 -185z
m1892 160 c-6 -11 -13 -20 -16 -20 -2 0 0 9 6 20 6 11 13 20 16 20 2 0 0 -9
-6 -20z m907 -13 c0 -7 4 -29 8 -49 5 -27 4 -38 -4 -38 -7 0 -9 -4 -6 -10 3
-5 2 -10 -3 -10 -11 0 -22 48 -22 96 0 24 4 32 13 28 8 -3 14 -10 14 -17z m50
-9 c-3 -8 -6 -5 -6 6 -1 11 2 17 5 13 3 -3 4 -12 1 -19z m1060 16 c-3 -3 -12
-4 -19 -1 -8 3 -5 6 6 6 11 1 17 -2 13 -5z m-962 -22 c-3 -3 -11 0 -18 7 -9
10 -8 11 6 5 10 -3 15 -9 12 -12z m-2819 -5 c4 -4 -2 -7 -14 -7 -12 0 -22 4
-22 9 0 10 26 9 36 -2z m2902 -64 c0 -43 -4 -68 -7 -55 -6 24 -2 132 5 132 2
0 3 -35 2 -77z m79 55 c-3 -8 -6 -5 -6 6 -1 11 2 17 5 13 3 -3 4 -12 1 -19z
m684 5 c13 -16 12 -17 -3 -4 -10 7 -18 15 -18 17 0 8 8 3 21 -13z m-17 -22
c-2 -3 -12 3 -22 13 -16 17 -16 18 5 5 12 -7 20 -15 17 -18z m-4797 -18 c-4
-20 -11 -41 -18 -47 -8 -8 -9 -3 -4 22 4 21 2 38 -5 47 -10 12 -9 15 10 15 20
0 22 -4 17 -37z m1057 22 c3 -8 1 -15 -4 -15 -6 0 -10 7 -10 15 0 8 2 15 4 15
2 0 6 -7 10 -15z m2886 0 c7 -9 8 -15 2 -15 -5 0 -12 7 -16 15 -3 8 -4 15 -2
15 2 0 9 -7 16 -15z m43 -5 c-8 -30 -21 -34 -15 -5 2 14 8 25 12 25 5 0 6 -9
3 -20z m47 -11 c0 -13 -7 -19 -21 -19 -19 0 -19 1 -5 16 9 8 13 20 10 26 -4 7
-2 8 4 4 7 -4 12 -16 12 -27z m1130 -9 c0 -16 -5 -30 -10 -30 -6 0 -9 14 -8
30 1 17 6 30 10 30 4 0 8 -13 8 -30z m-2300 0 c0 -5 -4 -10 -10 -10 -5 0 -10
5 -10 10 0 6 5 10 10 10 6 0 10 -4 10 -10z m2317 -12 c-3 -8 -6 -5 -6 6 -1 11
2 17 5 13 3 -3 4 -12 1 -19z m-3042 -18 c3 -5 1 -10 -4 -10 -6 0 -11 5 -11 10
0 6 2 10 4 10 3 0 8 -4 11 -10z m-2098 -32 c-3 -8 -6 -5 -6 6 -1 11 2 17 5 13
3 -3 4 -12 1 -19z m1023 -24 c0 -26 -4 -43 -10 -39 -5 3 -7 20 -3 37 5 25 3
29 -8 23 -12 -8 -12 -6 0 8 19 24 21 22 21 -29z m2957 20 c-3 -3 -12 -4 -19
-1 -8 3 -5 6 6 6 11 1 17 -2 13 -5z m60 -46 c-3 -7 -5 -2 -5 12 0 14 2 19 5
13 2 -7 2 -19 0 -25z m-1269 -3 c-3 -3 -9 2 -12 12 -6 14 -5 15 5 6 7 -7 10
-15 7 -18z m2255 18 c-7 -2 -19 -2 -25 0 -7 3 -2 5 12 5 14 0 19 -2 13 -5z
m-2489 -12 c3 -4 -6 -6 -19 -3 -14 2 -25 6 -25 8 0 8 39 4 44 -5z m2210 0 c13
-20 -7 -41 -38 -40 -17 0 -26 3 -19 5 7 3 10 11 7 19 -5 11 7 19 38 24 4 0 9
-3 12 -8z m-2298 -23 c-49 -25 -148 -60 -154 -53 -3 2 4 8 14 11 10 4 51 20
89 35 83 33 106 36 51 7z m1504 12 c0 -5 15 -11 33 -11 19 -1 24 -3 13 -6 -26
-7 -106 6 -106 18 0 5 14 9 30 9 17 0 30 -4 30 -10z m1030 6 c0 -2 -7 -7 -16
-10 -8 -3 -12 -2 -9 4 6 10 25 14 25 6z m-1293 -58 c-3 -7 -5 -2 -5 12 0 14 2
19 5 13 2 -7 2 -19 0 -25z m-941 0 c4 -6 3 -8 -4 -4 -5 3 -13 0 -15 -6 -3 -8
-6 -6 -6 5 -1 19 14 23 25 5z m1159 -11 c15 -4 14 -5 -7 -6 -21 -1 -28 4 -28
17 0 11 3 13 8 6 4 -7 16 -14 27 -17z m93 11 c12 1 22 -3 22 -8 0 -12 -73 -13
-85 -1 -6 5 -19 12 -30 15 -11 3 0 2 25 -1 25 -4 55 -6 68 -5z m119 -20 c-3
-8 -6 -5 -6 6 -1 11 2 17 5 13 3 -3 4 -12 1 -19z m-3087 2 c0 -5 -5 -10 -11
-10 -5 0 -7 5 -4 10 3 6 8 10 11 10 2 0 4 -4 4 -10z m3027 -32 c-3 -7 -5 -2
-5 12 0 14 2 19 5 13 2 -7 2 -19 0 -25z m-1322 -6 c-3 -3 -11 0 -18 7 -9 10
-8 11 6 5 10 -3 15 -9 12 -12z m2244 -10 c-14 -5 -39 6 -39 17 0 5 11 4 25 -2
13 -7 20 -14 14 -15z m148 -4 c-3 -8 -6 -5 -6 6 -1 11 2 17 5 13 3 -3 4 -12 1
-19z m-2427 2 c0 -5 -5 -10 -11 -10 -5 0 -7 5 -4 10 3 6 8 10 11 10 2 0 4 -4
4 -10z m1090 -9 c0 -11 -3 -22 -7 -24 -5 -3 -8 6 -8 19 0 13 3 24 8 24 4 0 7
-9 7 -19z m1304 -18 c-28 -21 -35 -15 -11 10 12 12 24 18 26 13 2 -5 -4 -15
-15 -23z m-4073 4 c-10 -9 -11 -8 -5 6 3 10 9 15 12 12 3 -3 0 -11 -7 -18z
m2739 4 c0 -5 -9 -11 -21 -14 -16 -4 -18 -3 -8 9 13 16 29 19 29 5z m-1156
-17 c8 -21 -11 -44 -35 -44 -23 0 -24 18 -2 42 20 22 29 23 37 2z m1476 -29
c-6 -30 -8 -33 -9 -13 -1 25 8 62 14 56 2 -2 -1 -21 -5 -43z m1037 -42 c-2
-16 -4 -5 -4 22 0 28 2 40 4 28 2 -13 2 -35 0 -50z m-4100 15 c-3 -7 -5 -2 -5
12 0 14 2 19 5 13 2 -7 2 -19 0 -25z m2918 14 c6 -4 10 -11 10 -17 -13 -132
-24 -168 -51 -158 -11 4 -12 9 -3 19 6 7 8 18 4 24 -3 5 -2 10 3 10 5 0 12 11
14 25 4 16 1 25 -8 25 -20 0 -26 17 -19 50 6 29 27 39 50 22z m-2822 -24 c-11
-13 -23 -30 -26 -38 -5 -13 -6 -13 -6 0 -1 20 27 60 41 60 6 0 2 -10 -9 -22z
m1539 0 c-7 -7 -12 -8 -12 -2 0 6 3 14 7 17 3 4 9 5 12 2 2 -3 -1 -11 -7 -17z
m2108 -31 c0 -1 -18 -1 -40 1 -30 3 -40 8 -40 22 0 17 2 17 40 -1 22 -11 40
-21 40 -22z m330 -33 c0 -2 -24 -3 -52 -3 -52 2 -53 2 -13 8 37 6 65 4 65 -5z
m-4075 -24 c3 -5 1 -10 -4 -10 -6 0 -11 5 -11 10 0 6 2 10 4 10 3 0 8 -4 11
-10z m1267 -20 c22 -39 15 -39 -12 0 -12 17 -18 30 -13 30 4 0 16 -14 25 -30z
m1575 8 c-3 -8 -6 -5 -6 6 -1 11 2 17 5 13 3 -3 4 -12 1 -19z m-2729 -14 c20
5 23 4 12 -4 -15 -10 -50 -14 -50 -6 0 2 -3 13 -6 23 -5 17 -5 17 6 0 9 -14
19 -17 38 -13z m1472 1 c7 -8 8 -15 2 -15 -5 0 -15 7 -22 15 -7 8 -8 15 -2 15
5 0 15 -7 22 -15z m2307 -2 c-20 -2 -52 -2 -70 0 -17 2 0 4 38 4 39 0 53 -2
32 -4z m181 0 c-10 -2 -28 -2 -40 0 -13 2 -5 4 17 4 22 1 32 -1 23 -4z m-5091
-40 c-3 -10 -5 -4 -5 12 0 17 2 24 5 18 2 -7 2 -21 0 -30z m2505 5 c-8 -8 -9
-4 -5 13 4 13 8 18 11 10 2 -7 -1 -18 -6 -23z m79 15 c13 -16 12 -17 -3 -4
-17 13 -22 21 -14 21 2 0 10 -8 17 -17z m-90 -43 c7 0 9 -3 6 -6 -10 -10 -37
16 -36 35 0 11 3 9 9 -6 5 -13 15 -23 21 -23z m2439 20 c22 -6 36 -6 40 0 3 6
18 9 33 8 l26 -2 1 -346 c0 -190 3 -397 6 -461 5 -81 3 -118 -4 -123 -16 -10
-385 -13 -399 -3 -10 6 -13 110 -13 463 l0 454 148 2 147 2 -150 6 -150 6 140
2 c77 1 156 -2 175 -8z m-1026 -9 c3 -5 -6 -12 -20 -15 l-25 -7 2 -144 2 -145
46 -2 46 -1 -50 -7 c-38 -5 -42 -7 -17 -8 17 -1 32 -6 32 -11 0 -7 -51 -31
-66 -31 -2 0 -4 86 -4 190 l0 190 24 0 c14 0 27 -4 30 -9z m-99 -11 c-3 -5
-12 -10 -18 -10 -7 0 -6 4 3 10 19 12 23 12 15 0z m-2785 -10 c0 -5 -4 -10
-10 -10 -5 0 -10 5 -10 10 0 6 5 10 10 10 6 0 10 -4 10 -10z m4097 -47 c-3
-10 -5 -2 -5 17 0 19 2 27 5 18 2 -10 2 -26 0 -35z m-1320 -15 c-3 -8 -6 -5
-6 6 -1 11 2 17 5 13 3 -3 4 -12 1 -19z m-2767 2 c0 -5 -4 -10 -10 -10 -5 0
-10 5 -10 10 0 6 5 10 10 10 6 0 10 -4 10 -10z m2950 -52 c0 -57 -16 -98 -40
-106 -12 -4 -13 -2 -3 9 6 8 14 44 18 82 9 79 25 89 25 15z m-173 26 c-3 -3
-12 -4 -19 -1 -8 3 -5 6 6 6 11 1 17 -2 13 -5z m-2697 -29 c0 -8 -2 -15 -4
-15 -2 0 -11 -3 -20 -6 -10 -4 -16 -1 -16 9 0 14 13 24 33 26 4 1 7 -6 7 -14z
m3495 -241 c0 -140 -3 -245 -7 -232 -4 13 -6 -19 -5 -69 0 -51 -3 -96 -7 -100
-9 -8 0 458 11 585 3 39 6 72 7 72 0 0 1 -115 1 -256z m-829 68 c-11 -10 -13
3 -7 43 l6 40 3 -39 c2 -21 1 -41 -2 -44z m81 -249 c-2 -27 -3 -5 -3 47 0 52
1 74 3 48 2 -27 2 -69 0 -95z m1220 65 c-3 -8 -6 -5 -6 6 -1 11 2 17 5 13 3
-3 4 -12 1 -19z m-4430 -30 c7 -6 20 -8 28 -4 10 3 15 -1 16 -12 0 -10 3 -12
6 -4 3 9 45 12 161 12 120 0 153 -3 144 -12 -7 -7 -62 -13 -154 -15 -185 -5
-204 -8 -212 -36 l-7 -22 -12 25 c-11 24 -16 25 -102 25 -49 0 -191 2 -315 4
-177 4 -205 6 -128 10 107 7 142 20 57 22 -50 2 -51 2 -19 9 51 12 523 9 537
-2z m-677 -44 c0 -2 -12 -4 -26 -4 -14 0 -23 4 -20 9 6 8 46 4 46 -5z m413
-21 c103 -3 184 -10 180 -14 -14 -13 -285 -39 -406 -39 -105 0 -117 2 -127 19
-5 11 -10 24 -10 30 0 13 92 14 363 4z m297 -63 l-8 -35 -1 45 c-1 27 3 40 8
35 6 -6 6 -25 1 -45z m30 -66 c0 -67 -4 -103 -10 -99 -7 4 -7 -3 0 -20 6 -15
10 -36 9 -48 0 -21 -1 -21 -9 -2 -5 11 -9 15 -9 8 -2 -20 11 -43 20 -37 5 3 8
-19 8 -48 -1 -45 -3 -49 -9 -23 -6 24 -8 17 -10 -35 -3 -97 -9 -54 -18 128 -6
131 -5 159 6 145 10 -15 12 -12 12 18 0 26 -3 31 -11 19 -7 -11 -8 -4 -3 25
16 108 24 98 24 -31z m392 79 c25 -23 23 -37 -4 -19 -12 9 -31 16 -41 16 -10
0 -15 5 -12 10 9 15 36 12 57 -7z m76 -130 l-23 -46 -6 45 c-4 25 -12 55 -18
66 -16 30 -3 52 30 52 20 0 30 5 31 18 1 9 3 -7 5 -36 3 -40 -1 -64 -19 -99z
m2552 143 c0 -2 -7 -7 -16 -10 -8 -3 -12 -2 -9 4 6 10 25 14 25 6z m-2873 -98
c-2 -18 -4 -4 -4 32 0 36 2 50 4 33 2 -18 2 -48 0 -65z m-220 40 c-3 -8 -6 -5
-6 6 -1 11 2 17 5 13 3 -3 4 -12 1 -19z m3761 -45 c-10 -2 -26 -2 -35 0 -10 3
-2 5 17 5 19 0 27 -2 18 -5z m169 -35 c-3 -8 -6 -5 -6 6 -1 11 2 17 5 13 3 -3
4 -12 1 -19z m-862 -8 c3 -6 -1 -7 -9 -4 -18 7 -21 14 -7 14 6 0 13 -4 16 -10z
m-2848 -32 c-3 -8 -6 -5 -6 6 -1 11 2 17 5 13 3 -3 4 -12 1 -19z m-190 -636
c-1 -114 -2 -20 -2 208 0 228 1 322 2 207 2 -114 2 -300 0 -415z m223 573 c19
-19 32 -35 29 -35 -3 0 -20 16 -39 35 -19 19 -32 35 -29 35 3 0 20 -16 39 -35z
m238 13 c-20 -29 -76 -58 -113 -57 -25 0 -22 3 18 13 27 8 61 25 75 40 32 32
39 33 20 4z m3295 -46 c3 7 6 -2 6 -19 1 -32 0 -33 -39 -33 -22 0 -40 3 -40 8
1 14 27 42 33 35 4 -3 7 -1 7 7 0 9 3 10 14 1 11 -9 15 -9 19 1z m-3453 -12
c18 -12 2 -12 -25 0 -13 6 -15 9 -5 9 8 0 22 -4 30 -9z m-793 -32 c-3 -7 -5
-2 -5 12 0 14 2 19 5 13 2 -7 2 -19 0 -25z m3570 17 c7 -20 3 -23 -35 -31 -35
-7 -42 5 -16 30 20 20 43 20 51 1z m-3580 -67 c-3 -8 -6 -5 -6 6 -1 11 2 17 5
13 3 -3 4 -12 1 -19z m-17 -43 c-7 -8 -17 -15 -23 -15 -6 0 -2 7 9 15 25 19
30 19 14 0z m1048 -32 c-10 -2 -28 -2 -40 0 -13 2 -5 4 17 4 22 1 32 -1 23 -4z
m2676 -51 c46 -21 73 -42 95 -72 16 -22 103 -116 192 -208 89 -92 187 -198
217 -237 31 -38 75 -92 99 -119 24 -26 43 -54 43 -61 0 -13 -156 -32 -168 -21
-3 3 11 6 32 6 l37 0 -22 33 c-53 74 -292 326 -399 419 -63 56 -162 146 -219
201 l-104 100 66 -5 c44 -4 88 -16 131 -36z m-2987 22 c-3 -3 -12 -4 -19 -1
-8 3 -5 6 6 6 11 1 17 -2 13 -5z m-593 -127 c-2 -78 -15 -102 -39 -71 -37 49
-41 134 -6 163 15 13 15 13 -1 8 -10 -4 -18 -2 -18 2 0 21 26 16 45 -8 16 -20
20 -39 19 -94z m403 -74 c-2 -21 -4 -6 -4 32 0 39 2 55 4 38 2 -18 2 -50 0
-70z m504 32 c5 4 9 -31 9 -86 l0 -91 -77 7 c-43 4 -79 8 -81 10 -1 1 0 27 4
58 7 62 17 75 84 117 l45 27 3 -24 c2 -13 8 -21 13 -18z m3234 35 c3 -5 -1
-10 -10 -10 -9 0 -13 5 -10 10 3 6 8 10 10 10 2 0 7 -4 10 -10z m633 -27 c-27
-2 -69 -2 -95 0 -27 2 -5 3 47 3 52 0 74 -1 48 -3z m-288 -35 c0 -10 36 -12
162 -7 90 4 171 10 181 14 15 6 17 0 17 -71 0 -101 -5 -109 -65 -101 -59 8
-62 11 -70 47 -8 36 -35 45 -96 33 -43 -8 -44 -9 -64 -73 -25 -80 -31 -90 -56
-90 -19 0 -19 1 -2 24 10 13 21 22 24 20 4 -2 9 6 13 19 3 12 2 23 -2 25 -5 1
-7 15 -4 31 4 27 1 29 -47 41 -28 7 -62 9 -75 6 -23 -6 -24 -4 -21 37 1 23 3
45 4 50 2 13 101 8 101 -5z m-20 -178 c0 -5 -5 -10 -11 -10 -5 0 -7 5 -4 10 3
6 8 10 11 10 2 0 4 -4 4 -10z m-3601 -36 c30 -6 32 -9 29 -48 l-3 -41 -72 -2
-73 -2 0 49 0 50 44 0 c24 0 58 -3 75 -6z m-1079 -46 c-1 -36 -12 -55 -31 -51
-20 6 -34 36 -24 53 9 14 55 12 55 -2z m4747 -33 c-5 -12 -25 -15 -109 -14
l-103 2 100 9 c55 4 102 13 104 19 1 6 5 8 8 5 3 -3 3 -12 0 -21z m-1006 -34
c6 10 9 3 9 -23 0 -33 -3 -38 -23 -38 -27 0 -72 29 -47 30 12 0 13 2 1 9 -24
16 -3 32 25 19 20 -10 27 -9 35 3z m-2764 -37 c-3 -3 -12 -4 -19 -1 -8 3 -5 6
6 6 11 1 17 -2 13 -5z m4066 -139 c2 11 5 -14 6 -55 l1 -75 -55 -3 -55 -3 0
65 c0 60 2 66 20 66 11 0 23 7 26 15 4 8 10 12 15 9 5 -3 9 1 10 8 0 7 6 0 14
-17 11 -25 13 -27 18 -10z m-4338 5 c3 -5 2 -10 -4 -10 -5 0 -13 5 -16 10 -3
6 -2 10 4 10 5 0 13 -4 16 -10z m3322 4 c-3 -3 -12 -4 -19 -1 -8 3 -5 6 6 6
11 1 17 -2 13 -5z m450 -26 c-3 -7 -5 -2 -5 12 0 14 2 19 5 13 2 -7 2 -19 0
-25z m-3920 -20 c-3 -7 -5 -2 -5 12 0 14 2 19 5 13 2 -7 2 -19 0 -25z m3576
25 c-7 -2 -19 -2 -25 0 -7 3 -2 5 12 5 14 0 19 -2 13 -5z m-3536 -25 c-3 -8
-6 -5 -6 6 -1 11 2 17 5 13 3 -3 4 -12 1 -19z m3631 5 c-10 -2 -26 -2 -35 0
-10 3 -2 5 17 5 19 0 27 -2 18 -5z m-3095 -10 c-7 -2 -19 -2 -25 0 -7 3 -2 5
12 5 14 0 19 -2 13 -5z m3664 -30 c-3 -10 -5 -4 -5 12 0 17 2 24 5 18 2 -7 2
-21 0 -30z m20 -5 c-3 -7 -5 -2 -5 12 0 14 2 19 5 13 2 -7 2 -19 0 -25z
m-4394 15 c-72 -2 -194 -2 -270 0 -76 1 -16 3 132 3 149 0 211 -2 138 -3z
m4357 3 c0 -3 -4 -8 -10 -11 -5 -3 -10 -1 -10 4 0 6 5 11 10 11 6 0 10 -2 10
-4z m-3802 -13 c-10 -2 -26 -2 -35 0 -10 3 -2 5 17 5 19 0 27 -2 18 -5z m4551
-25 c0 -28 -2 -30 -9 -13 -12 28 -12 45 0 45 6 0 10 -15 9 -32z m-6079 -33
c-6 -30 -8 -33 -9 -13 -1 25 8 62 14 56 2 -2 -1 -21 -5 -43z m5707 39 c-3 -3
-12 -4 -19 -1 -8 3 -5 6 6 6 11 1 17 -2 13 -5z m-694 -11 c-7 -2 -21 -2 -30 0
-10 3 -4 5 12 5 17 0 24 -2 18 -5z m246 -7 c-2 -2 -53 -6 -114 -9 -63 -3 -101
-2 -90 3 19 8 213 14 204 6z m-4992 -33 c-15 -2 -25 -8 -22 -13 7 -11 -77 0
-89 11 -6 5 22 8 65 8 40 -1 62 -4 46 -6z m126 0 c-13 -2 -35 -2 -50 0 -16 2
-5 4 22 4 28 0 40 -2 28 -4z m5623 -16 c8 3 14 0 14 -6 0 -6 -14 -11 -30 -11
-26 0 -29 2 -18 14 7 8 14 10 16 6 2 -5 10 -6 18 -3z m-161 -6 c3 -5 1 -12 -5
-16 -5 -3 -10 1 -10 9 0 18 6 21 15 7z m-5611 -32 c-8 -14 -104 -11 -104 4 0
8 16 11 55 9 30 -2 53 -8 49 -13z m181 1 c-3 -5 -32 -9 -63 -8 l-57 1 60 7
c33 4 61 7 63 8 2 1 0 -2 -3 -8z m112 3 c-20 -2 -52 -2 -70 0 -17 2 0 4 38 4
39 0 53 -2 32 -4z m108 -3 c3 -5 -1 -10 -10 -10 -9 0 -13 5 -10 10 3 6 8 10
10 10 2 0 7 -4 10 -10z m510 -4 c11 -2 -90 -3 -225 -3 -135 -1 -232 2 -216 6
29 6 403 4 441 -3z m-1117 -3 c-10 -2 -26 -2 -35 0 -10 3 -2 5 17 5 19 0 27
-2 18 -5z m5470 0 c-53 -2 -143 -2 -200 0 -57 1 -13 3 97 3 110 0 156 -2 103
-3z m190 0 c-10 -2 -26 -2 -35 0 -10 3 -2 5 17 5 19 0 27 -2 18 -5z m218 -6
c7 -7 -5 -9 -51 -10 -41 0 -56 3 -50 12 6 11 91 9 101 -2z m-5736 -47 c0 -5
-6 -10 -12 -11 -7 -1 -2 -4 12 -8 24 -7 24 -8 -7 -12 -29 -5 -33 -3 -33 18 0
16 6 23 20 23 11 0 20 -4 20 -10z m5515 -10 c3 -5 -1 -10 -10 -10 -9 0 -13 5
-10 10 3 6 8 10 10 10 2 0 7 -4 10 -10z m205 -11 c0 -5 -23 -9 -51 -9 -41 0
-49 3 -41 13 12 14 92 11 92 -4z m-5843 5 c-3 -3 -12 -4 -19 -1 -8 3 -5 6 6 6
11 1 17 -2 13 -5z m183 -9 c0 -8 -4 -15 -9 -15 -13 0 -22 16 -14 24 11 11 23
6 23 -9z m80 5 c0 -5 -2 -10 -4 -10 -3 0 -8 5 -11 10 -3 6 -1 10 4 10 6 0 11
-4 11 -10z m77 4 c-3 -3 -12 -4 -19 -1 -8 3 -5 6 6 6 11 1 17 -2 13 -5z m5361
-1 c-10 -2 -26 -2 -35 0 -10 3 -2 5 17 5 19 0 27 -2 18 -5z m269 -19 c-3 -3
-12 -4 -19 -1 -8 3 -5 6 6 6 11 1 17 -2 13 -5z m-5827 -44 c0 -5 -13 -10 -30
-10 -16 0 -30 5 -30 10 0 6 14 10 30 10 17 0 30 -4 30 -10z m143 3 c-7 -2 -19
-2 -25 0 -7 3 -2 5 12 5 14 0 19 -2 13 -5z m5542 -2 c29 -7 29 -7 7 -15 -28
-9 -92 1 -92 14 0 11 39 11 85 1z m-198 -7 c-3 -3 -12 -4 -19 -1 -8 3 -5 6 6
6 11 1 17 -2 13 -5z m-5489 -51 c-10 -2 -26 -2 -35 0 -10 3 -2 5 17 5 19 0 27
-2 18 -5z m5706 -13 c-7 -7 -29 -7 -65 -1 l-54 9 65 1 c43 1 61 -2 54 -9z"/>
<path d="M2760 7296 c0 -2 8 -10 18 -17 15 -13 16 -12 3 4 -13 16 -21 21 -21
13z"/>
<path d="M7085 6780 c10 -11 20 -20 23 -20 3 0 -3 9 -13 20 -10 11 -20 20 -23
20 -3 0 3 -9 13 -20z"/>
<path d="M6982 7178 c-7 -7 -12 -19 -12 -27 0 -11 5 -8 16 7 18 25 15 39 -4
20z"/>
<path d="M7177 7158 c-16 -10 41 -8 73 2 20 6 16 8 -18 6 -24 0 -49 -4 -55 -8z"/>
<path d="M7145 7130 c-3 -5 3 -10 15 -10 12 0 18 5 15 10 -3 6 -10 10 -15 10
-5 0 -12 -4 -15 -10z"/>
<path d="M7168 7083 c18 -2 45 -2 60 0 15 2 0 4 -33 4 -33 0 -45 -2 -27 -4z"/>
<path d="M7355 6950 c3 -5 2 -10 -2 -13 -5 -2 -2 -2 5 -1 6 2 12 -4 12 -12 0
-8 4 -13 9 -10 15 10 6 39 -12 42 -10 1 -15 -1 -12 -6z"/>
<path d="M7088 6933 c12 -2 32 -2 45 0 12 2 2 4 -23 4 -25 0 -35 -2 -22 -4z"/>
<path d="M7410 6920 c0 -11 5 -20 10 -20 6 0 10 9 10 20 0 11 -4 20 -10 20 -5
0 -10 -9 -10 -20z"/>
<path d="M7283 6913 c9 -2 23 -2 30 0 6 3 -1 5 -18 5 -16 0 -22 -2 -12 -5z"/>
<path d="M7213 6883 c9 -2 23 -2 30 0 6 3 -1 5 -18 5 -16 0 -22 -2 -12 -5z"/>
<path d="M7377 6869 c7 -7 15 -10 18 -7 3 3 -2 9 -12 12 -14 6 -15 5 -6 -5z"/>
<path d="M7248 6863 c6 -2 18 -2 25 0 6 3 1 5 -13 5 -14 0 -19 -2 -12 -5z"/>
<path d="M3951 6854 c0 -11 3 -14 6 -6 3 7 2 16 -1 19 -3 4 -6 -2 -5 -13z"/>
<path d="M6452 6900 c-1 -64 -7 -121 -12 -126 -7 -7 -10 -61 -8 -140 3 -113 5
-129 21 -132 15 -3 17 7 16 120 -1 68 -5 184 -8 258 l-8 135 -1 -115z"/>
<path d="M5970 6978 c1 -54 -8 -52 287 -62 73 -2 137 -7 143 -11 5 -3 10 2 10
13 0 11 3 34 6 51 l7 31 -227 0 -226 0 0 -22z"/>
<path d="M6198 6493 c7 -3 16 -2 19 1 4 3 -2 6 -13 5 -11 0 -14 -3 -6 -6z"/>
<path d="M6661 6784 c0 -11 3 -14 6 -6 3 7 2 16 -1 19 -3 4 -6 -2 -5 -13z"/>
<path d="M5380 4796 c7 -7 13 -7 20 0 6 6 3 10 -10 10 -13 0 -16 -4 -10 -10z"/>
<path d="M7440 5640 c0 -176 4 -300 9 -300 34 0 41 13 39 74 l-1 61 -8 -60
c-4 -33 -6 69 -4 227 4 251 2 287 -11 292 -9 3 -18 6 -20 6 -2 0 -4 -135 -4
-300z"/>
<path d="M7482 5500 c0 -14 2 -19 5 -12 2 6 2 18 0 25 -3 6 -5 1 -5 -13z"/>
<path d="M3993 5753 c-17 -6 -17 -23 0 -23 8 0 14 7 14 15 0 8 -1 15 -1 14 -1
0 -7 -3 -13 -6z"/>
<path d="M4490 4790 c0 -5 5 -10 10 -10 6 0 10 5 10 10 0 6 -4 10 -10 10 -5 0
-10 -4 -10 -10z"/>
<path d="M7180 4915 c0 -11 5 -15 15 -11 8 3 15 1 15 -3 0 -5 -6 -12 -12 -14
-8 -3 -5 -6 5 -6 13 -1 18 5 15 21 -4 27 -38 38 -38 13z"/>
<path d="M3338 4758 c-7 -17 15 -19 29 -3 4 4 3 5 -4 2 -6 -4 -13 -2 -15 5 -3
8 -6 6 -10 -4z"/>
<path d="M3255 4670 c-3 -6 1 -7 9 -4 18 7 21 14 7 14 -6 0 -13 -4 -16 -10z"/>
<path d="M4291 4685 c1 -19 18 -51 18 -35 0 8 -4 22 -9 30 -5 8 -9 11 -9 5z"/>
<path d="M3547 4581 c-4 -17 -3 -21 5 -13 5 5 8 16 6 23 -3 8 -7 3 -11 -10z"/>
<path d="M6220 4340 c0 -24 35 -28 44 -4 9 23 8 24 -19 24 -18 0 -25 -5 -25
-20z"/>
<path d="M5051 4164 c0 -11 3 -14 6 -6 3 7 2 16 -1 19 -3 4 -6 -2 -5 -13z"/>
<path d="M7252 2210 c0 -14 2 -19 5 -12 2 6 2 18 0 25 -3 6 -5 1 -5 -13z"/>
<path d="M6658 6473 c7 -3 16 -2 19 1 4 3 -2 6 -13 5 -11 0 -14 -3 -6 -6z"/>
<path d="M4183 6353 c-7 -2 -13 -17 -13 -33 0 -24 5 -28 33 -33 36 -5 57 7 57
32 0 33 -38 50 -77 34z"/>
<path d="M4266 6263 c-6 -14 -5 -15 5 -6 7 7 10 15 7 18 -3 3 -9 -2 -12 -12z"/>
<path d="M6387 6065 c-15 -19 -22 -32 -14 -29 11 4 53 64 45 64 -2 0 -15 -16
-31 -35z"/>
<path d="M5038 5393 c6 -2 10 -8 7 -13 -3 -4 4 -6 15 -3 25 7 16 23 -13 22
-12 0 -16 -3 -9 -6z"/>
<path d="M0 103 l0 -103 35 0 c35 0 35 0 36 48 0 26 2 71 2 99 1 29 0 54 -3
54 -3 1 -20 2 -37 3 l-33 2 0 -103z"/>
</g>
</svg>
